# File produced by Open Asset Import Library (http://www.assimp.sf.net)
# (assimp v3.1.187496374)

mtllib Supports.obj.mtl

# 139 vertex positions
v  -0.025 0.08 -3.825
v  -0.02 0.08 -3.83105
v  -0.025 0.248894 -3.94
v  -0.02 0.240011 -3.94
v  -0.02 0.08 -3.94
v  -0.05 0.08 -3.94
v  -0.045 0.08 -3.825
v  -0.05 0.08 -3.83105
v  -0.045 0.248894 -3.94
v  -0.05 0.240011 -3.94
v  -0.139546 0.107148 -4.01
v  -0.139546 0.08 -4.01
v  -0.109545 0.0947212 -3.94
v  -0.109545 0.08 -3.94
v  -0.0666931 0.137574 -3.94
v  -0.0966931 0.15 -4.01
v  -0.0666931 0.242175 -3.94
v  -0.0966931 0.229748 -4.01
v  -0.0801323 0.255614 -3.94
v  -0.105469 0.238525 -4.01
v  -0.0973099 0.296086 -3.94
v  -0.127204 0.289733 -4.01
v  -0.0977256 0.32 -3.94
v  -0.111797 0.333829 -3.97227
v  -0.127945 0.332384 -4.01
v  -0.123872 0.340157 -4.00018
v  -0.139546 0.08 -4.03
v  -0.139546 0.107148 -4.03
v  -0.0966931 0.15 -4.03
v  -0.0966931 0.229748 -4.03
v  -0.105469 0.238525 -4.03
v  -0.127204 0.289733 -4.03
v  -0.127945 0.332384 -4.03
v  -0.119799 0.34793 -4.01
v  -0.119799 0.34793 -4.03
v  -0.116693 0.35 -4.01
v  0 0.32 -3.94
v  0 0.35 -4.01
v  -0.116693 0.35 -4.03
v  0 0.35 -4.05
v  -1 0.35 -4.05
v  -0.93 0.35 -4.03
v  -2 0.35 -4.05
v  -1.88331 0.35 -4.03
v  -1.07 0.35 -4.03
v  -0.93 0.35 -4.01
v  -1.07 0.35 -4.01
v  -2 0.35 -4.01
v  -1.88331 0.35 -4.01
v  0 0.05 -3.94
v  0 0.05 -4.05
v  -1.95 0.240011 -3.94
v  -1.93331 0.242175 -3.94
v  -1.955 0.248894 -3.94
v  -1.93331 0.137574 -3.94
v  -1.95 0.08 -3.94
v  -1.91987 0.255614 -3.94
v  -1.975 0.248894 -3.94
v  -1.90269 0.296086 -3.94
v  -2 0.32 -3.94
v  -1.98 0.240011 -3.94
v  -1.90227 0.32 -3.94
v  -2 0.05 -3.94
v  -1.98 0.08 -3.94
v  -1.89045 0.08 -3.94
v  -1 0.05 -3.94
v  -1.89045 0.0947212 -3.94
v  -1.04 0.08 -3.94
v  -1.015 0.08 -3.94
v  -1.04 0.144223 -3.94
v  -0.985 0.08 -3.94
v  -1.015 0.240011 -3.94
v  -1.02 0.194223 -3.94
v  -0.98 0.194223 -3.94
v  -0.985 0.240011 -3.94
v  -0.96 0.144223 -3.94
v  -0.96 0.08 -3.94
v  -0.98 0.236158 -3.94
v  -0.99 0.248894 -3.94
v  -0.944068 0.32 -3.94
v  -1.05593 0.32 -3.94
v  -1.01 0.248894 -3.94
v  -1.02 0.236158 -3.94
v  -0.95 0.23 -4.01
v  -0.94181 0.321489 -3.94347
v  -0.92 0.3 -4.01
v  -0.92 0.325689 -3.98639
v  -0.95 0.2 -4.01
v  -0.93 0.15 -4.01
v  -0.93 0.08 -4.01
v  -0.92 0.34 -4.01
v  -0.92 0.34 -4.03
v  -0.92 0.3 -4.03
v  -0.95 0.23 -4.03
v  -0.95 0.2 -4.03
v  -0.93 0.15 -4.03
v  -0.93 0.08 -4.03
v  -1.07 0.15 -4.01
v  -1.07 0.08 -4.01
v  -1.05 0.2 -4.01
v  -1.05 0.23 -4.01
v  -1.05819 0.321489 -3.94347
v  -1.08 0.3 -4.01
v  -1.08 0.325689 -3.98639
v  -1.07 0.08 -4.03
v  -1.07 0.15 -4.03
v  -1.05 0.2 -4.03
v  -1.05 0.23 -4.03
v  -1.08 0.3 -4.03
v  -1.08 0.34 -4.01
v  -1.08 0.34 -4.03
v  -1.89527 0.326883 -3.95606
v  -1.88187 0.34904 -4.00776
v  -1.8802 0.34793 -4.03
v  -1.8802 0.34793 -4.01
v  -1.87205 0.332384 -4.01
v  -1.8728 0.289733 -4.01
v  -1.89453 0.238525 -4.01
v  -1.90331 0.229748 -4.01
v  -1.90331 0.15 -4.01
v  -1.86045 0.107148 -4.01
v  -1.86045 0.08 -4.01
v  -1.87205 0.332384 -4.03
v  -1.8728 0.289733 -4.03
v  -1.89453 0.238525 -4.03
v  -1.90331 0.229748 -4.03
v  -1.90331 0.15 -4.03
v  -1.86045 0.107148 -4.03
v  -1.86045 0.08 -4.03
v  -2 0.05 -4.05
v  -1 0.05 -4.05
v  -0.99 0.08 -3.825
v  -0.985 0.08 -3.83105
v  -1.01 0.08 -3.825
v  -1.015 0.08 -3.83105
v  -1.955 0.08 -3.825
v  -1.95 0.08 -3.83105
v  -1.975 0.08 -3.825
v  -1.98 0.08 -3.83105

# 0 UV coordinates

# 61 vertex normals
vn 0.707107 0.397972 0.584481
vn 1.69685e-15 -1 -8.91635e-16
vn -0 -1 -9.65411e-16
vn -1.69685e-15 -1 -8.91635e-16
vn 0 0.562818 0.826581
vn -0.707107 0.397972 0.584481
vn -1 0 0
vn 1 0 0
vn -0.919145 0 0.393919
vn -0.649934 0.649934 0.393919
vn -0.919145 2.43892e-16 0.393919
vn -0.649934 -0.649934 0.393919
vn -0.84609 -0.359109 0.393919
vn -0.919006 -0.0159773 0.393919
vn -0.707107 0.707107 0
vn -0.707107 -0.707107 -0
vn -0.707107 -0.707107 -3.43962e-15
vn -0.920518 -0.390699 1.27748e-15
vn -0.920518 -0.390699 -4.47117e-15
vn -0.999849 -0.0173827 1.38757e-15
vn -0.999849 -0.0173827 2.772e-15
vn -0.885743 0.464177 -2.67403e-15
vn -0.885743 0.464177 2.45843e-15
vn -0.885743 0.464177 -6.17751e-16
vn -0.50985 0.764775 0.393919
vn 0 0.919145 0.393919
vn -1.52809e-15 0.919145 0.393919
vn 0 1 0
vn 0 0 1
vn 0.844828 -0.362069 0.393919
vn 0.919145 0 0.393919
vn 0.853405 0.341362 0.393919
vn 0.919145 -0.393919 0
vn 0.928477 0.371391 0
vn -0.853405 0.341362 0.393919
vn -0.844828 -0.362069 0.393919
vn -0.928477 0.371391 0
vn -0.919145 -0.393919 -0
vn 0.649934 0.649934 0.393919
vn 1.30497e-15 0.919145 0.393919
vn 1.84796e-15 0.919145 0.393919
vn 0.5547 0.83205 0
vn 0.5547 0.83205 -4.35698e-15
vn 0.5547 0.83205 4.61881e-15
vn 0.814126 0.426646 0.393919
vn 0.919006 -0.0159773 0.393919
vn 0.84609 -0.359109 0.393919
vn 0.649934 -0.649934 0.393919
vn 0.885743 0.464177 -9.83372e-15
vn 0.885743 0.464177 2.5767e-15
vn 0.999849 -0.0173827 -1.11006e-14
vn 0.999849 -0.0173827 0
vn 0.920518 -0.390699 1.08441e-15
vn 0.920518 -0.390699 0
vn 0.707107 -0.707107 1.96262e-15
vn 0.707107 -0.707107 0
vn 0.707107 0.707107 0
vn -0.5547 0.83205 -3.84901e-16
vn -0.5547 0.83205 -1.15734e-15
vn 0 0 -1
vn 0 -1 0

# Mesh '<STL_BINARY>' with 274 faces
g <STL_BINARY>
usemtl DefaultMaterial
f  1//1 2//1 3//1
f  3//1 2//1 4//1
f  2//2 1//2 5//2
f  5//2 1//2 6//3
f  6//3 1//2 7//3
f  6//3 7//3 8//4
f  1//5 3//5 7//5
f  7//5 3//5 9//5
f  7//6 9//6 8//6
f  8//6 9//6 10//6
f  8//7 10//7 6//7
f  4//8 2//8 5//8
f  11//9 12//9 13//9
f  13//9 12//9 14//9
f  15//10 16//10 13//10
f  13//10 16//10 11//10
f  17//11 18//11 15//11
f  15//11 18//11 16//9
f  19//12 20//12 17//12
f  17//12 20//12 18//12
f  21//13 22//13 19//13
f  19//13 22//13 20//13
f  21//14 23//14 22//14
f  22//14 23//14 24//14
f  22//14 24//14 25//14
f  25//14 24//14 26//14
f  12//7 11//7 27//7
f  27//7 11//7 28//7
f  11//15 16//15 28//15
f  28//15 16//15 29//15
f  16//7 18//7 29//7
f  29//7 18//7 30//7
f  18//16 20//16 30//16
f  30//16 20//16 31//17
f  22//18 32//18 20//18
f  20//18 32//18 31//19
f  22//20 25//20 32//20
f  32//20 25//20 33//21
f  26//22 34//22 25//22
f  25//22 34//22 33//23
f  33//23 34//22 35//24
f  24//25 36//25 26//25
f  26//25 36//25 34//25
f  23//26 37//26 24//26
f  24//26 37//26 38//27
f  24//26 38//27 36//26
f  36//28 38//28 39//28
f  39//28 38//28 40//28
f  39//28 40//28 41//28
f  42//28 39//28 41//28
f  43//28 44//28 41//28
f  41//28 44//28 45//28
f  41//28 45//28 42//28
f  42//28 45//28 46//28
f  46//28 45//28 47//28
f  43//28 48//28 44//28
f  44//28 48//28 49//28
f  37//8 50//8 38//8
f  38//8 50//8 51//8
f  38//8 51//8 40//8
f  52//29 53//29 54//29
f  53//29 52//29 55//29
f  55//29 52//29 56//29
f  54//29 53//29 57//29
f  54//29 57//29 58//29
f  58//29 57//29 59//29
f  58//29 59//29 60//29
f  60//29 61//29 58//29
f  60//29 59//29 62//29
f  63//29 61//29 60//29
f  63//29 64//29 61//29
f  65//29 56//29 63//29
f  65//29 63//29 66//29
f  56//29 64//29 63//29
f  67//29 56//29 65//29
f  66//29 68//29 65//29
f  55//29 56//29 67//29
f  66//29 69//29 68//29
f  69//29 70//29 68//29
f  71//29 69//29 66//29
f  72//29 73//29 69//29
f  69//29 73//29 70//29
f  74//29 75//29 71//29
f  74//29 71//29 76//29
f  76//29 71//29 77//29
f  77//29 71//29 66//29
f  78//29 75//29 74//29
f  75//29 78//29 79//29
f  79//29 78//29 80//29
f  79//29 80//29 81//29
f  81//29 82//29 79//29
f  83//29 82//29 81//29
f  83//29 72//29 82//29
f  73//29 72//29 83//29
f  77//29 66//29 14//29
f  14//29 66//29 50//29
f  14//29 50//29 6//29
f  6//29 13//29 14//29
f  6//29 50//29 5//29
f  5//29 50//29 4//29
f  4//29 50//29 37//29
f  10//29 15//29 6//29
f  6//29 15//29 13//29
f  15//29 10//29 17//29
f  17//29 10//29 9//29
f  17//29 9//29 19//29
f  19//29 9//29 3//29
f  3//29 21//29 19//29
f  4//29 37//29 3//29
f  3//29 37//29 21//29
f  37//29 23//29 21//29
f  78//30 84//30 85//30
f  85//30 80//30 78//30
f  85//30 84//30 86//30
f  85//30 86//30 87//30
f  78//31 74//31 84//31
f  84//31 74//31 88//31
f  76//32 89//32 74//32
f  74//32 89//32 88//32
f  77//31 90//31 76//31
f  76//31 90//31 89//31
f  87//8 86//8 91//8
f  91//8 86//8 92//8
f  92//8 86//8 93//8
f  86//33 84//33 93//33
f  93//33 84//33 94//33
f  84//8 88//8 94//8
f  94//8 88//8 95//8
f  88//34 89//34 95//34
f  95//34 89//34 96//34
f  89//8 90//8 96//8
f  96//8 90//8 97//8
f  98//9 99//9 70//9
f  70//9 99//9 68//9
f  70//35 73//35 98//35
f  98//35 73//35 100//35
f  83//9 101//9 73//9
f  73//9 101//9 100//9
f  81//36 102//36 83//36
f  83//36 102//36 101//36
f  101//36 102//36 103//36
f  103//36 102//36 104//36
f  99//7 98//7 105//7
f  105//7 98//7 106//7
f  98//37 100//37 106//37
f  106//37 100//37 107//37
f  100//7 101//7 107//7
f  107//7 101//7 108//7
f  101//38 103//38 108//38
f  108//38 103//38 109//38
f  104//7 110//7 103//7
f  103//7 110//7 109//7
f  109//7 110//7 111//7
f  104//10 102//10 110//10
f  110//10 102//10 47//10
f  80//26 85//26 81//26
f  81//26 85//26 102//26
f  102//26 85//26 47//26
f  47//26 85//26 46//26
f  87//39 91//39 85//39
f  85//39 91//39 46//39
f  60//40 112//40 48//40
f  60//40 62//26 112//40
f  48//40 112//40 113//41
f  48//40 113//41 49//26
f  49//42 113//42 44//42
f  44//42 113//42 114//43
f  114//43 113//42 115//44
f  112//45 116//45 113//45
f  113//45 116//45 115//45
f  62//46 59//46 112//46
f  112//46 59//46 117//46
f  112//46 117//46 116//46
f  118//47 117//47 57//47
f  57//47 117//47 59//47
f  119//48 118//48 53//48
f  53//48 118//48 57//48
f  120//31 119//31 55//31
f  55//31 119//31 53//31
f  121//39 120//39 67//39
f  67//39 120//39 55//39
f  65//31 122//31 67//31
f  67//31 122//31 121//31
f  116//49 123//49 115//49
f  115//49 123//49 114//50
f  116//51 117//51 123//51
f  123//51 117//51 124//52
f  118//53 125//53 117//53
f  117//53 125//53 124//54
f  118//55 119//55 125//55
f  125//55 119//55 126//56
f  119//8 120//8 126//8
f  126//8 120//8 127//8
f  120//57 121//57 127//57
f  127//57 121//57 128//57
f  121//8 122//8 128//8
f  128//8 122//8 129//8
f  34//58 36//58 35//58
f  35//58 36//58 39//59
f  39//29 42//29 35//29
f  35//29 42//29 92//29
f  35//29 92//29 33//29
f  33//29 92//29 93//29
f  33//29 93//29 32//29
f  32//29 93//29 94//29
f  32//29 94//29 31//29
f  31//29 94//29 95//29
f  31//29 95//29 30//29
f  30//29 95//29 96//29
f  30//29 96//29 29//29
f  29//29 96//29 28//29
f  28//29 96//29 97//29
f  28//29 97//29 27//29
f  107//29 126//29 106//29
f  126//29 107//29 125//29
f  125//29 107//29 108//29
f  106//29 126//29 127//29
f  106//29 127//29 128//29
f  128//29 105//29 106//29
f  129//29 105//29 128//29
f  125//29 108//29 124//29
f  124//29 108//29 109//29
f  124//29 109//29 123//29
f  123//29 109//29 111//29
f  123//29 111//29 114//29
f  114//29 111//29 45//29
f  114//29 45//29 44//29
f  105//28 129//28 99//28
f  99//28 129//28 122//28
f  99//28 122//28 68//28
f  68//28 122//28 65//28
f  110//15 47//15 111//15
f  111//15 47//15 45//15
f  46//57 91//57 42//57
f  42//57 91//57 92//57
f  27//28 97//28 12//28
f  12//28 97//28 90//28
f  12//28 90//28 14//28
f  14//28 90//28 77//28
f  43//60 41//60 130//60
f  130//60 41//60 131//60
f  131//60 41//60 40//60
f  131//60 40//60 51//60
f  130//61 131//61 63//61
f  63//61 131//61 66//61
f  66//61 131//61 51//61
f  66//61 51//61 50//61
f  60//7 48//7 63//7
f  63//7 48//7 130//7
f  130//7 48//7 43//7
f  132//1 133//1 79//1
f  79//1 133//1 75//1
f  133//2 132//2 71//2
f  71//2 132//2 69//3
f  69//3 132//2 134//3
f  69//3 134//3 135//4
f  132//5 79//5 134//5
f  134//5 79//5 82//5
f  134//6 82//6 135//6
f  135//6 82//6 72//6
f  135//7 72//7 69//7
f  75//8 133//8 71//8
f  136//1 137//1 54//1
f  54//1 137//1 52//1
f  137//2 136//2 56//2
f  56//2 136//2 64//3
f  64//3 136//2 138//3
f  64//3 138//3 139//4
f  136//5 54//5 138//5
f  138//5 54//5 58//5
f  138//6 58//6 139//6
f  139//6 58//6 61//6
f  139//7 61//7 64//7
f  52//8 137//8 56//8

