# This file uses centimeters as units for non-parametric coordinates.

mtllib dryerventhouse_turbo.mtl
v 3.884931 -1.262291 58.967254
v 2.401020 -3.304720 58.967254
v 0.000000 -4.084858 58.967254
v -2.401019 -3.304719 58.967254
v -3.884930 -1.262290 58.967254
v -3.884930 1.262290 58.967254
v -2.401019 3.304718 58.967254
v -0.000000 4.084856 58.967254
v 2.401018 3.304718 58.967254
v 3.884929 1.262290 58.967254
v 3.884931 -1.262291 -58.967254
v 2.401020 -3.304720 -58.967254
v 0.000000 -4.084858 -58.967254
v -2.401019 -3.304719 -58.967254
v -3.884930 -1.262290 -58.967254
v -3.884930 1.262290 -58.967254
v -2.401019 3.304718 -58.967254
v -0.000000 4.084856 -58.967254
v 2.401018 3.304718 -58.967254
v 3.884929 1.262290 -58.967254
v 3.884929 1.262290 0.000000
v 2.401018 3.304718 0.000000
v -0.000000 4.084856 0.000000
v -2.401019 3.304718 0.000000
v -3.884930 1.262290 0.000000
v -3.884930 -1.262290 -0.000000
v -2.401019 -3.304719 -0.000000
v 0.000000 -4.084858 -0.000000
v 2.401020 -3.304720 -0.000000
v 3.884931 -1.262291 -0.000000
v 3.884931 -1.262291 -29.483627
v 2.401020 -3.304720 -29.483627
v 0.000000 -4.084858 -29.483627
v -2.401019 -3.304719 -29.483627
v -3.884930 -1.262290 -29.483627
v -3.884930 1.262290 -29.483627
v -2.401019 3.304718 -29.483627
v -0.000000 4.084856 -29.483627
v 2.401018 3.304718 -29.483627
v 3.884929 1.262290 -29.483627
v 3.884929 1.262290 29.483627
v 2.401018 3.304718 29.483627
v -0.000000 4.084856 29.483627
v -2.401019 3.304718 29.483627
v -3.884930 1.262290 29.483627
v -3.884930 -1.262290 29.483627
v -2.401019 -3.304719 29.483627
v 0.000000 -4.084858 29.483627
v 2.401020 -3.304720 29.483627
v 3.884931 -1.262291 29.483627
v 3.884931 -1.262291 14.741814
v 2.401020 -3.304720 14.741814
v 0.000000 -4.084858 14.741814
v -2.401019 -3.304719 14.741814
v -3.884930 -1.262290 14.741814
v -3.884930 1.262290 14.741814
v -2.401019 3.304718 14.741814
v -0.000000 4.084856 14.741814
v 2.401018 3.304718 14.741814
v 3.884929 1.262290 14.741814
v 3.884929 1.262290 -44.225441
v 2.401018 3.304718 -44.225441
v -0.000000 4.084856 -44.225441
v -2.401019 3.304718 -44.225441
v -3.884930 1.262290 -44.225441
v -3.884930 -1.262290 -44.225441
v -2.401019 -3.304719 -44.225441
v 0.000000 -4.084858 -44.225441
v 2.401020 -3.304720 -44.225441
v 3.884931 -1.262291 -44.225441
v 3.884931 -1.262291 -14.741814
v 2.401020 -3.304720 -14.741814
v 0.000000 -4.084858 -14.741814
v -2.401019 -3.304719 -14.741814
v -3.884930 -1.262290 -14.741814
v -3.884930 1.262290 -14.741814
v -2.401019 3.304718 -14.741814
v -0.000000 4.084856 -14.741814
v 2.401018 3.304718 -14.741814
v 3.884929 1.262290 -14.741814
v 3.884929 1.262290 44.225441
v 2.401018 3.304718 44.225441
v -0.000000 4.084856 44.225441
v -2.401019 3.304718 44.225441
v -3.884930 1.262290 44.225441
v -3.884930 -1.262290 44.225441
v -2.401019 -3.304719 44.225441
v 0.000000 -4.084858 44.225441
v 2.401020 -3.304720 44.225441
v 3.884931 -1.262291 44.225441
v 3.884931 -1.262291 36.854534
v 2.401020 -3.304720 36.854534
v 0.000000 -4.084858 36.854534
v -2.401019 -3.304719 36.854534
v -3.884930 -1.262290 36.854534
v -3.884930 1.262290 36.854534
v -2.401019 3.304718 36.854534
v -0.000000 4.084856 36.854534
v 2.401018 3.304718 36.854534
v 3.884929 1.262290 36.854534
v 3.884929 1.262290 -22.112720
v 2.401018 3.304718 -22.112720
v -0.000000 4.084856 -22.112720
v -2.401019 3.304718 -22.112720
v -3.884930 1.262290 -22.112720
v -3.884930 -1.262290 -22.112720
v -2.401019 -3.304719 -22.112720
v 0.000000 -4.084858 -22.112720
v 2.401020 -3.304720 -22.112720
v 3.884931 -1.262291 -22.112720
v 3.884931 -1.262291 -51.596347
v 2.401020 -3.304720 -51.596347
v 0.000000 -4.084858 -51.596347
v -2.401019 -3.304719 -51.596347
v -3.884930 -1.262290 -51.596347
v -3.884930 1.262290 -51.596347
v -2.401019 3.304718 -51.596347
v -0.000000 4.084856 -51.596347
v 2.401018 3.304718 -51.596347
v 3.884929 1.262290 -51.596347
v 3.884929 1.262290 7.370907
v 2.401018 3.304718 7.370907
v -0.000000 4.084856 7.370907
v -2.401019 3.304718 7.370907
v -3.884930 1.262290 7.370907
v -3.884930 -1.262290 7.370907
v -2.401019 -3.304719 7.370907
v 0.000000 -4.084858 7.370907
v 2.401020 -3.304720 7.370907
v 3.884931 -1.262291 7.370907
v 3.884931 -1.262291 22.112720
v 2.401020 -3.304720 22.112720
v 0.000000 -4.084858 22.112720
v -2.401019 -3.304719 22.112720
v -3.884930 -1.262290 22.112720
v -3.884930 1.262290 22.112720
v -2.401019 3.304718 22.112720
v -0.000000 4.084856 22.112720
v 2.401018 3.304718 22.112720
v 3.884929 1.262290 22.112720
v 3.884929 1.262290 -36.854534
v 2.401018 3.304718 -36.854534
v -0.000000 4.084856 -36.854534
v -2.401019 3.304718 -36.854534
v -3.884930 1.262290 -36.854534
v -3.884930 -1.262290 -36.854534
v -2.401019 -3.304719 -36.854534
v 0.000000 -4.084858 -36.854534
v 2.401020 -3.304720 -36.854534
v 3.884931 -1.262291 -36.854534
v 3.884931 -1.262291 -7.370907
v 2.401020 -3.304720 -7.370907
v 0.000000 -4.084858 -7.370907
v -2.401019 -3.304719 -7.370907
v -3.884930 -1.262290 -7.370907
v -3.884930 1.262290 -7.370907
v -2.401019 3.304718 -7.370907
v -0.000000 4.084856 -7.370907
v 2.401018 3.304718 -7.370907
v 3.884929 1.262290 -7.370907
v 3.884929 1.262290 51.596347
v 2.401018 3.304718 51.596347
v -0.000000 4.084856 51.596347
v -2.401019 3.304718 51.596347
v -3.884930 1.262290 51.596347
v -3.884930 -1.262290 51.596347
v -2.401019 -3.304719 51.596347
v 0.000000 -4.084858 51.596347
v 2.401020 -3.304720 51.596347
v 3.884931 -1.262291 51.596347
vt -0.000000 1.000000
vt -0.000000 0.897420
vt -0.000000 0.798183
vt 0.000000 0.698945
vt 0.000000 0.599707
vt -0.000000 0.500470
vt -0.000000 0.401233
vt -0.000000 0.301995
vt -0.000000 0.202757
vt -0.000000 0.103519
vt -0.000000 -0.000000
vt 1.000000 1.000000
vt 1.000000 0.897421
vt 1.000000 0.798183
vt 1.000000 0.698945
vt 1.000000 0.599707
vt 1.000000 0.500470
vt 1.000000 0.401232
vt 1.000000 0.301995
vt 1.000000 0.202757
vt 1.000000 0.103520
vt 1.000000 -0.000000
vt 0.500000 0.103520
vt 0.500000 0.202757
vt 0.500000 0.301995
vt 0.500000 0.401232
vt 0.500000 0.500470
vt 0.500000 0.599708
vt 0.500000 0.698945
vt 0.500000 0.798183
vt 0.500000 0.897420
vt 0.500000 -0.000000
vt 0.500000 1.000000
vt 0.747127 -0.000000
vt 0.747127 1.000000
vt 0.747127 0.897420
vt 0.747127 0.798183
vt 0.747127 0.698945
vt 0.747127 0.599707
vt 0.747127 0.500470
vt 0.747127 0.401232
vt 0.747127 0.301995
vt 0.747127 0.202757
vt 0.747127 0.103519
vt 0.252873 0.103520
vt 0.252873 0.202757
vt 0.252873 0.301995
vt 0.252873 0.401232
vt 0.252873 0.500470
vt 0.252873 0.599707
vt 0.252873 0.698945
vt 0.252873 0.798183
vt 0.252873 0.897420
vt 0.252873 -0.000000
vt 0.252873 1.000000
vt 0.376436 -0.000000
vt 0.376436 1.000000
vt 0.376436 0.897420
vt 0.376436 0.798183
vt 0.376436 0.698945
vt 0.376436 0.599708
vt 0.376436 0.500470
vt 0.376436 0.401232
vt 0.376436 0.301995
vt 0.376436 0.202757
vt 0.376436 0.103520
vt 0.870690 0.103520
vt 0.870690 0.202757
vt 0.870690 0.301995
vt 0.870690 0.401232
vt 0.870690 0.500470
vt 0.870690 0.599707
vt 0.870690 0.698945
vt 0.870690 0.798183
vt 0.870690 0.897420
vt 0.870690 -0.000000
vt 0.870690 1.000000
vt 0.623563 -0.000000
vt 0.623563 1.000000
vt 0.623563 0.897420
vt 0.623563 0.798183
vt 0.623563 0.698945
vt 0.623563 0.599708
vt 0.623563 0.500470
vt 0.623563 0.401232
vt 0.623563 0.301995
vt 0.623563 0.202757
vt 0.623563 0.103520
vt 0.129310 0.103520
vt 0.129309 0.202757
vt 0.129309 0.301995
vt 0.129309 0.401232
vt 0.129310 0.500470
vt 0.129310 0.599708
vt 0.129310 0.698945
vt 0.129309 0.798183
vt 0.129309 0.897421
vt 0.129310 0.000000
vt 0.129310 1.000000
vt 0.191091 -0.000000
vt 0.191091 1.000000
vt 0.191091 0.897420
vt 0.191091 0.798183
vt 0.191091 0.698945
vt 0.191091 0.599707
vt 0.191091 0.500470
vt 0.191091 0.401232
vt 0.191091 0.301995
vt 0.191091 0.202757
vt 0.191091 0.103519
vt 0.685345 0.103520
vt 0.685345 0.202757
vt 0.685345 0.301995
vt 0.685345 0.401232
vt 0.685345 0.500470
vt 0.685345 0.599707
vt 0.685345 0.698945
vt 0.685345 0.798183
vt 0.685345 0.897420
vt 0.685345 -0.000000
vt 0.685345 1.000000
vt 0.932472 -0.000000
vt 0.932472 1.000000
vt 0.932472 0.897420
vt 0.932472 0.798183
vt 0.932472 0.698945
vt 0.932472 0.599707
vt 0.932472 0.500470
vt 0.932472 0.401232
vt 0.932472 0.301995
vt 0.932472 0.202757
vt 0.932472 0.103520
vt 0.438218 0.103520
vt 0.438218 0.202757
vt 0.438218 0.301995
vt 0.438218 0.401232
vt 0.438218 0.500470
vt 0.438218 0.599707
vt 0.438218 0.698945
vt 0.438218 0.798183
vt 0.438218 0.897420
vt 0.438218 0.000000
vt 0.438218 1.000000
vt 0.314655 0.000000
vt 0.314655 1.000000
vt 0.314655 0.897420
vt 0.314655 0.798183
vt 0.314655 0.698945
vt 0.314655 0.599708
vt 0.314655 0.500470
vt 0.314655 0.401233
vt 0.314655 0.301995
vt 0.314655 0.202757
vt 0.314655 0.103520
vt 0.808909 0.103520
vt 0.808909 0.202757
vt 0.808909 0.301995
vt 0.808909 0.401232
vt 0.808909 0.500470
vt 0.808909 0.599707
vt 0.808909 0.698945
vt 0.808909 0.798183
vt 0.808909 0.897420
vt 0.808909 -0.000000
vt 0.808909 1.000000
vt 0.561782 -0.000000
vt 0.561782 1.000000
vt 0.561782 0.897420
vt 0.561782 0.798183
vt 0.561782 0.698945
vt 0.561782 0.599707
vt 0.561782 0.500470
vt 0.561782 0.401232
vt 0.561782 0.301995
vt 0.561782 0.202757
vt 0.561782 0.103520
vt 0.067528 0.103520
vt 0.067528 0.202757
vt 0.067528 0.301995
vt 0.067528 0.401232
vt 0.067528 0.500470
vt 0.067528 0.599708
vt 0.067528 0.698945
vt 0.067528 0.798182
vt 0.067528 0.897421
vt 0.067528 0.000000
vt 0.067528 1.000000
vn 0.587785 -0.809017 -0.000000
vn 0.951057 -0.309017 -0.000000
vn 0.951057 -0.309017 -0.000000
vn 0.587785 -0.809017 -0.000000
vn -0.000000 -1.000000 -0.000000
vn -0.000000 -1.000000 -0.000000
vn -0.587785 -0.809017 -0.000000
vn -0.587785 -0.809017 -0.000000
vn -0.951057 -0.309017 -0.000000
vn -0.951057 -0.309017 -0.000000
vn -0.951056 0.309017 0.000000
vn -0.951056 0.309017 0.000000
vn -0.587785 0.809017 0.000000
vn -0.587785 0.809017 0.000000
vn 0.000000 1.000000 0.000000
vn 0.000000 1.000000 0.000000
vn 0.587785 0.809017 0.000000
vn 0.587785 0.809017 0.000000
vn 0.951056 0.309017 0.000000
vn 0.951056 0.309017 0.000000
vn 0.951057 -0.309017 -0.000000
vn 0.951056 0.309017 0.000000
vn 0.951056 0.309017 0.000000
vn 0.951057 -0.309017 -0.000000
vn 0.587785 0.809017 0.000000
vn 0.587785 0.809017 0.000000
vn 0.000000 1.000000 0.000000
vn 0.000000 1.000000 0.000000
vn -0.587785 0.809017 0.000000
vn -0.587785 0.809017 0.000000
vn -0.951056 0.309017 0.000000
vn -0.951056 0.309017 0.000000
vn -0.951057 -0.309017 -0.000000
vn -0.951057 -0.309017 -0.000000
vn -0.587785 -0.809017 -0.000000
vn -0.587785 -0.809017 -0.000000
vn -0.000000 -1.000000 -0.000000
vn -0.000000 -1.000000 -0.000000
vn 0.587785 -0.809017 -0.000000
vn 0.587785 -0.809017 -0.000000
vn 0.587785 -0.809017 -0.000000
vn 0.951057 -0.309017 -0.000000
vn 0.951057 -0.309017 -0.000000
vn 0.587785 -0.809017 -0.000000
vn -0.000000 -1.000000 -0.000000
vn -0.000000 -1.000000 -0.000000
vn -0.587785 -0.809017 -0.000000
vn -0.587785 -0.809017 -0.000000
vn -0.951057 -0.309017 -0.000000
vn -0.951057 -0.309017 -0.000000
vn -0.951056 0.309017 0.000000
vn -0.951056 0.309017 0.000000
vn -0.587785 0.809017 0.000000
vn -0.587785 0.809017 0.000000
vn 0.000000 1.000000 0.000000
vn 0.000000 1.000000 0.000000
vn 0.587785 0.809017 0.000000
vn 0.587785 0.809017 0.000000
vn 0.951056 0.309017 0.000000
vn 0.951056 0.309017 0.000000
vn 0.951057 -0.309017 -0.000000
vn 0.951056 0.309017 0.000000
vn 0.951056 0.309017 0.000000
vn 0.951057 -0.309017 -0.000000
vn 0.587785 0.809017 0.000000
vn 0.587785 0.809017 0.000000
vn 0.000000 1.000000 0.000000
vn 0.000000 1.000000 0.000000
vn -0.587785 0.809017 0.000000
vn -0.587785 0.809017 0.000000
vn -0.951056 0.309017 0.000000
vn -0.951056 0.309017 0.000000
vn -0.951057 -0.309017 -0.000000
vn -0.951057 -0.309017 -0.000000
vn -0.587785 -0.809017 -0.000000
vn -0.587785 -0.809017 -0.000000
vn -0.000000 -1.000000 -0.000000
vn -0.000000 -1.000000 -0.000000
vn 0.587785 -0.809017 -0.000000
vn 0.587785 -0.809017 -0.000000
vn 0.587785 -0.809017 -0.000000
vn 0.951057 -0.309017 -0.000000
vn 0.951057 -0.309017 -0.000000
vn 0.587785 -0.809017 -0.000000
vn -0.000000 -1.000000 -0.000000
vn -0.000000 -1.000000 -0.000000
vn -0.587785 -0.809017 -0.000000
vn -0.587785 -0.809017 -0.000000
vn -0.951057 -0.309017 -0.000000
vn -0.951057 -0.309017 -0.000000
vn -0.951056 0.309017 0.000000
vn -0.951056 0.309017 0.000000
vn -0.587785 0.809017 0.000000
vn -0.587785 0.809017 0.000000
vn 0.000000 1.000000 0.000000
vn 0.000000 1.000000 0.000000
vn 0.587785 0.809017 0.000000
vn 0.587785 0.809017 0.000000
vn 0.951056 0.309017 0.000000
vn 0.951056 0.309017 0.000000
vn 0.951057 -0.309017 -0.000000
vn 0.951056 0.309017 0.000000
vn 0.951056 0.309017 0.000000
vn 0.951057 -0.309017 -0.000000
vn 0.587785 0.809017 0.000000
vn 0.587785 0.809017 0.000000
vn 0.000000 1.000000 0.000000
vn 0.000000 1.000000 0.000000
vn -0.587785 0.809017 0.000000
vn -0.587785 0.809017 0.000000
vn -0.951056 0.309017 0.000000
vn -0.951056 0.309017 0.000000
vn -0.951057 -0.309017 -0.000000
vn -0.951057 -0.309017 -0.000000
vn -0.587785 -0.809017 -0.000000
vn -0.587785 -0.809017 -0.000000
vn -0.000000 -1.000000 -0.000000
vn -0.000000 -1.000000 -0.000000
vn 0.587785 -0.809017 -0.000000
vn 0.587785 -0.809017 -0.000000
vn 0.587785 -0.809017 -0.000000
vn 0.951057 -0.309017 -0.000000
vn 0.951057 -0.309017 -0.000000
vn 0.587785 -0.809017 -0.000000
vn -0.000000 -1.000000 -0.000000
vn -0.000000 -1.000000 -0.000000
vn -0.587785 -0.809017 -0.000000
vn -0.587785 -0.809017 -0.000000
vn -0.951057 -0.309017 -0.000000
vn -0.951057 -0.309017 -0.000000
vn -0.951056 0.309017 0.000000
vn -0.951056 0.309017 0.000000
vn -0.587785 0.809017 0.000000
vn -0.587785 0.809017 0.000000
vn 0.000000 1.000000 0.000000
vn 0.000000 1.000000 0.000000
vn 0.587785 0.809017 0.000000
vn 0.587785 0.809017 0.000000
vn 0.951056 0.309017 0.000000
vn 0.951056 0.309017 0.000000
vn 0.951057 -0.309017 -0.000000
vn 0.951056 0.309017 0.000000
vn 0.951056 0.309017 0.000000
vn 0.951057 -0.309017 -0.000000
vn 0.587785 0.809017 0.000000
vn 0.587785 0.809017 0.000000
vn 0.000000 1.000000 0.000000
vn 0.000000 1.000000 0.000000
vn -0.587785 0.809017 0.000000
vn -0.587785 0.809017 0.000000
vn -0.951056 0.309017 0.000000
vn -0.951056 0.309017 0.000000
vn -0.951057 -0.309017 -0.000000
vn -0.951057 -0.309017 -0.000000
vn -0.587785 -0.809017 -0.000000
vn -0.587785 -0.809017 -0.000000
vn -0.000000 -1.000000 -0.000000
vn -0.000000 -1.000000 -0.000000
vn 0.587785 -0.809017 -0.000000
vn 0.587785 -0.809017 -0.000000
vn 0.951057 -0.309017 -0.000000
vn 0.587785 -0.809017 -0.000000
vn -0.000000 -1.000000 -0.000000
vn -0.587785 -0.809017 -0.000000
vn -0.951057 -0.309017 -0.000000
vn -0.951056 0.309017 0.000000
vn -0.587785 0.809017 0.000000
vn 0.000000 1.000000 0.000000
vn 0.587785 0.809017 0.000000
vn 0.951056 0.309017 0.000000
s 1
usemtl initialShadingGroup
f 12/13/1 11/12/2 111/123/3 112/124/4
f 13/14/5 12/13/1 112/124/4 113/125/6
f 14/15/7 13/14/5 113/125/6 114/126/8
f 15/16/9 14/15/7 114/126/8 115/127/10
f 16/17/11 15/16/9 115/127/10 116/128/12
f 17/18/13 16/17/11 116/128/12 117/129/14
f 18/19/15 17/18/13 117/129/14 118/130/16
f 19/20/17 18/19/15 118/130/16 119/131/18
f 20/21/19 19/20/17 119/131/18 120/132/20
f 11/22/2 20/21/19 120/132/20 111/122/3
f 30/32/21 21/23/22 121/133/23 130/142/24
f 21/23/22 22/24/25 122/134/26 121/133/23
f 22/24/25 23/25/27 123/135/28 122/134/26
f 23/25/27 24/26/29 124/136/30 123/135/28
f 24/26/29 25/27/31 125/137/32 124/136/30
f 25/27/31 26/28/33 126/138/34 125/137/32
f 26/28/33 27/29/35 127/139/36 126/138/34
f 27/29/35 28/30/37 128/140/38 127/139/36
f 28/30/37 29/31/39 129/141/40 128/140/38
f 29/31/39 30/33/21 130/143/24 129/141/40
f 49/53/41 50/55/42 91/101/43 92/102/44
f 48/52/45 49/53/41 92/102/44 93/103/46
f 47/51/47 48/52/45 93/103/46 94/104/48
f 46/50/49 47/51/47 94/104/48 95/105/50
f 45/49/51 46/50/49 95/105/50 96/106/52
f 44/48/53 45/49/51 96/106/52 97/107/54
f 43/47/55 44/48/53 97/107/54 98/108/56
f 42/46/57 43/47/55 98/108/56 99/109/58
f 41/45/59 42/46/57 99/109/58 100/110/60
f 50/54/42 41/45/59 100/110/60 91/100/43
f 31/34/61 40/44/62 101/111/63 110/120/64
f 40/44/62 39/43/65 102/112/66 101/111/63
f 39/43/65 38/42/67 103/113/68 102/112/66
f 38/42/67 37/41/69 104/114/70 103/113/68
f 37/41/69 36/40/71 105/115/72 104/114/70
f 36/40/71 35/39/73 106/116/74 105/115/72
f 35/39/73 34/38/75 107/117/76 106/116/74
f 34/38/75 33/37/77 108/118/78 107/117/76
f 33/37/77 32/36/79 109/119/80 108/118/78
f 32/36/79 31/35/61 110/121/64 109/119/80
f 72/80/81 71/79/82 151/167/83 152/168/84
f 73/81/85 72/80/81 152/168/84 153/169/86
f 74/82/87 73/81/85 153/169/86 154/170/88
f 75/83/89 74/82/87 154/170/88 155/171/90
f 76/84/91 75/83/89 155/171/90 156/172/92
f 77/85/93 76/84/91 156/172/92 157/173/94
f 78/86/95 77/85/93 157/173/94 158/174/96
f 79/87/97 78/86/95 158/174/96 159/175/98
f 80/88/99 79/87/97 159/175/98 160/176/100
f 71/78/82 80/88/99 160/176/100 151/166/83
f 90/98/101 81/89/102 161/177/103 170/186/104
f 81/89/102 82/90/105 162/178/106 161/177/103
f 82/90/105 83/91/107 163/179/108 162/178/106
f 83/91/107 84/92/109 164/180/110 163/179/108
f 84/92/109 85/93/111 165/181/112 164/180/110
f 85/93/111 86/94/113 166/182/114 165/181/112
f 86/94/113 87/95/115 167/183/116 166/182/114
f 87/95/115 88/96/117 168/184/118 167/183/116
f 88/96/117 89/97/119 169/185/120 168/184/118
f 89/97/119 90/99/101 170/187/104 169/185/120
f 52/58/121 51/57/122 131/145/123 132/146/124
f 53/59/125 52/58/121 132/146/124 133/147/126
f 54/60/127 53/59/125 133/147/126 134/148/128
f 55/61/129 54/60/127 134/148/128 135/149/130
f 56/62/131 55/61/129 135/149/130 136/150/132
f 57/63/133 56/62/131 136/150/132 137/151/134
f 58/64/135 57/63/133 137/151/134 138/152/136
f 59/65/137 58/64/135 138/152/136 139/153/138
f 60/66/139 59/65/137 139/153/138 140/154/140
f 51/56/122 60/66/139 140/154/140 131/144/123
f 70/76/141 61/67/142 141/155/143 150/164/144
f 61/67/142 62/68/145 142/156/146 141/155/143
f 62/68/145 63/69/147 143/157/148 142/156/146
f 63/69/147 64/70/149 144/158/150 143/157/148
f 64/70/149 65/71/151 145/159/152 144/158/150
f 65/71/151 66/72/153 146/160/154 145/159/152
f 66/72/153 67/73/155 147/161/156 146/160/154
f 67/73/155 68/74/157 148/162/158 147/161/156
f 68/74/157 69/75/159 149/163/160 148/162/158
f 69/75/159 70/77/141 150/165/144 149/163/160
f 149/163/160 150/165/144 31/35/61 32/36/79
f 148/162/158 149/163/160 32/36/79 33/37/77
f 147/161/156 148/162/158 33/37/77 34/38/75
f 146/160/154 147/161/156 34/38/75 35/39/73
f 145/159/152 146/160/154 35/39/73 36/40/71
f 144/158/150 145/159/152 36/40/71 37/41/69
f 143/157/148 144/158/150 37/41/69 38/42/67
f 142/156/146 143/157/148 38/42/67 39/43/65
f 141/155/143 142/156/146 39/43/65 40/44/62
f 150/164/144 141/155/143 40/44/62 31/34/61
f 131/144/123 140/154/140 41/45/59 50/54/42
f 140/154/140 139/153/138 42/46/57 41/45/59
f 139/153/138 138/152/136 43/47/55 42/46/57
f 138/152/136 137/151/134 44/48/53 43/47/55
f 137/151/134 136/150/132 45/49/51 44/48/53
f 136/150/132 135/149/130 46/50/49 45/49/51
f 135/149/130 134/148/128 47/51/47 46/50/49
f 134/148/128 133/147/126 48/52/45 47/51/47
f 133/147/126 132/146/124 49/53/41 48/52/45
f 132/146/124 131/145/123 50/55/42 49/53/41
f 169/185/120 170/187/104 1/1/161 2/2/162
f 168/184/118 169/185/120 2/2/162 3/3/163
f 167/183/116 168/184/118 3/3/163 4/4/164
f 166/182/114 167/183/116 4/4/164 5/5/165
f 165/181/112 166/182/114 5/5/165 6/6/166
f 164/180/110 165/181/112 6/6/166 7/7/167
f 163/179/108 164/180/110 7/7/167 8/8/168
f 162/178/106 163/179/108 8/8/168 9/9/169
f 161/177/103 162/178/106 9/9/169 10/10/170
f 170/186/104 161/177/103 10/10/170 1/11/161
f 151/166/83 160/176/100 21/23/22 30/32/21
f 160/176/100 159/175/98 22/24/25 21/23/22
f 159/175/98 158/174/96 23/25/27 22/24/25
f 158/174/96 157/173/94 24/26/29 23/25/27
f 157/173/94 156/172/92 25/27/31 24/26/29
f 156/172/92 155/171/90 26/28/33 25/27/31
f 155/171/90 154/170/88 27/29/35 26/28/33
f 154/170/88 153/169/86 28/30/37 27/29/35
f 153/169/86 152/168/84 29/31/39 28/30/37
f 152/168/84 151/167/83 30/33/21 29/31/39
f 109/119/80 110/121/64 71/79/82 72/80/81
f 108/118/78 109/119/80 72/80/81 73/81/85
f 107/117/76 108/118/78 73/81/85 74/82/87
f 106/116/74 107/117/76 74/82/87 75/83/89
f 105/115/72 106/116/74 75/83/89 76/84/91
f 104/114/70 105/115/72 76/84/91 77/85/93
f 103/113/68 104/114/70 77/85/93 78/86/95
f 102/112/66 103/113/68 78/86/95 79/87/97
f 101/111/63 102/112/66 79/87/97 80/88/99
f 110/120/64 101/111/63 80/88/99 71/78/82
f 91/100/43 100/110/60 81/89/102 90/98/101
f 100/110/60 99/109/58 82/90/105 81/89/102
f 99/109/58 98/108/56 83/91/107 82/90/105
f 98/108/56 97/107/54 84/92/109 83/91/107
f 97/107/54 96/106/52 85/93/111 84/92/109
f 96/106/52 95/105/50 86/94/113 85/93/111
f 95/105/50 94/104/48 87/95/115 86/94/113
f 94/104/48 93/103/46 88/96/117 87/95/115
f 93/103/46 92/102/44 89/97/119 88/96/117
f 92/102/44 91/101/43 90/99/101 89/97/119
f 129/141/40 130/143/24 51/57/122 52/58/121
f 128/140/38 129/141/40 52/58/121 53/59/125
f 127/139/36 128/140/38 53/59/125 54/60/127
f 126/138/34 127/139/36 54/60/127 55/61/129
f 125/137/32 126/138/34 55/61/129 56/62/131
f 124/136/30 125/137/32 56/62/131 57/63/133
f 123/135/28 124/136/30 57/63/133 58/64/135
f 122/134/26 123/135/28 58/64/135 59/65/137
f 121/133/23 122/134/26 59/65/137 60/66/139
f 130/142/24 121/133/23 60/66/139 51/56/122
f 111/122/3 120/132/20 61/67/142 70/76/141
f 120/132/20 119/131/18 62/68/145 61/67/142
f 119/131/18 118/130/16 63/69/147 62/68/145
f 118/130/16 117/129/14 64/70/149 63/69/147
f 117/129/14 116/128/12 65/71/151 64/70/149
f 116/128/12 115/127/10 66/72/153 65/71/151
f 115/127/10 114/126/8 67/73/155 66/72/153
f 114/126/8 113/125/6 68/74/157 67/73/155
f 113/125/6 112/124/4 69/75/159 68/74/157
f 112/124/4 111/123/3 70/77/141 69/75/159
