# author: headus 3D tools
#  using: ply2obj v1.11
#   from: uvlayout v2.10.03
# 160 vertices
v -1.1000000 0.0600000 0.1000000
v -1.1000000 0.0600000 -1.1000000
v -1.1000000 -0.0000000 0.1000000
v -1.1000000 -0.0000000 -1.1000000
v 0.1000000 0.0600000 -1.1000000
v 0.1000000 0.0600000 0.1000000
v 0.1000000 -0.0000000 -1.1000000
v 0.1000000 -0.0000000 0.1000000
v -0.1017160 0.0600000 -0.0100000
v -0.0100000 0.0600000 -0.1017160
v -0.1100000 0.0800000 -0.0300000
v -0.0299999 0.0800000 -0.1100000
v -0.0100000 0.0600000 -0.8982840
v -0.0299999 0.0800000 -0.8900000
v -0.1017160 0.0600000 -0.9900000
v -0.1100000 0.0800000 -0.9700001
v -0.8900000 0.0800000 -0.9700001
v -0.8982840 0.0600000 -0.9900000
v -0.9700000 0.0800000 -0.8900000
v -0.9900000 0.0600000 -0.8982840
v -0.9700000 0.0800000 -0.1100000
v -0.9900000 0.0600000 -0.1017160
v -0.8900000 0.0800000 -0.0300000
v -0.8982840 0.0600000 -0.0100000
v -0.9656250 0.1150000 -0.1056250
v -0.8943750 0.1150000 -0.0343750
v -0.1056250 0.1150000 -0.0343750
v -0.0343749 0.1150000 -0.1056250
v -0.0343749 0.1150000 -0.8943750
v -0.1056250 0.1150000 -0.9656249
v -0.8943750 0.1150000 -0.9656249
v -0.9656250 0.1150000 -0.8943750
v -0.1615690 0.1200000 -0.0350000
v -0.8384310 0.1200000 -0.0350000
v -0.9650000 0.1200000 -0.1615690
v -0.9650000 0.1200000 -0.8384310
v -0.8384310 0.1200000 -0.9650000
v -0.1615690 0.1200000 -0.9650000
v -0.0350000 0.1200000 -0.8384310
v -0.0350000 0.1200000 -0.1615690
v -0.0999998 0.0600000 0.1000000
v -0.0999998 0.0600000 -1.1000000
v -0.0999998 -0.0000000 0.1000000
v -0.0999998 -0.0000000 -1.1000000
v 1.1000002 0.0600000 -1.1000000
v 1.1000002 0.0600000 0.1000000
v 1.1000002 -0.0000000 -1.1000000
v 1.1000002 -0.0000000 0.1000000
v 0.8982842 0.0600000 -0.0100000
v 0.9900002 0.0600000 -0.1017160
v 0.8900000 0.0800000 -0.0300000
v 0.9700002 0.0800000 -0.1100000
v 0.9900002 0.0600000 -0.8982840
v 0.9700002 0.0800000 -0.8900000
v 0.8982842 0.0600000 -0.9900000
v 0.8900000 0.0800000 -0.9700001
v 0.1100001 0.0800000 -0.9700001
v 0.1017163 0.0600000 -0.9900000
v 0.0300001 0.0800000 -0.8900000
v 0.0100001 0.0600000 -0.8982840
v 0.0300001 0.0800000 -0.1100000
v 0.0100001 0.0600000 -0.1017160
v 0.1100001 0.0800000 -0.0300000
v 0.1017163 0.0600000 -0.0100000
v 0.0343749 0.1150000 -0.1056250
v 0.1056251 0.1150000 -0.0343750
v 0.8943752 0.1150000 -0.0343750
v 0.9656250 0.1150000 -0.1056250
v 0.9656250 0.1150000 -0.8943750
v 0.8943752 0.1150000 -0.9656249
v 0.1056251 0.1150000 -0.9656249
v 0.0343749 0.1150000 -0.8943750
v 0.8384312 0.1200000 -0.0350000
v 0.1615690 0.1200000 -0.0350000
v 0.0350000 0.1200000 -0.1615690
v 0.0350000 0.1200000 -0.8384310
v 0.1615690 0.1200000 -0.9650000
v 0.8384312 0.1200000 -0.9650000
v 0.9650002 0.1200000 -0.8384310
v 0.9650002 0.1200000 -0.1615690
v -0.0999998 0.0600000 -0.9000002
v -0.0999998 0.0600000 -2.1000000
v -0.0999998 -0.0000000 -0.9000002
v -0.0999998 -0.0000000 -2.1000000
v 1.1000002 0.0600000 -2.1000000
v 1.1000002 0.0600000 -0.9000002
v 1.1000002 -0.0000000 -2.1000000
v 1.1000002 -0.0000000 -0.9000002
v 0.8982842 0.0600000 -1.0100001
v 0.9900002 0.0600000 -1.1017200
v 0.8900000 0.0800000 -1.0300001
v 0.9700002 0.0800000 -1.1100001
v 0.9900002 0.0600000 -1.8982802
v 0.9700002 0.0800000 -1.8900000
v 0.8982842 0.0600000 -1.9900000
v 0.8900000 0.0800000 -1.9700000
v 0.1100001 0.0800000 -1.9700000
v 0.1017163 0.0600000 -1.9900000
v 0.0300001 0.0800000 -1.8900000
v 0.0100001 0.0600000 -1.8982802
v 0.0300001 0.0800000 -1.1100001
v 0.0100001 0.0600000 -1.1017200
v 0.1100001 0.0800000 -1.0300001
v 0.1017163 0.0600000 -1.0100001
v 0.0343749 0.1150000 -1.1056301
v 0.1056251 0.1150000 -1.0343699
v 0.8943752 0.1150000 -1.0343699
v 0.9656250 0.1150000 -1.1056301
v 0.9656250 0.1150000 -1.8943700
v 0.8943752 0.1150000 -1.9656302
v 0.1056251 0.1150000 -1.9656302
v 0.0343749 0.1150000 -1.8943700
v 0.8384312 0.1200000 -1.0350000
v 0.1615690 0.1200000 -1.0350000
v 0.0350000 0.1200000 -1.1615702
v 0.0350000 0.1200000 -1.8384302
v 0.1615690 0.1200000 -1.9650002
v 0.8384312 0.1200000 -1.9650002
v 0.9650002 0.1200000 -1.8384302
v 0.9650002 0.1200000 -1.1615702
v -1.1000000 0.0600000 -0.9000002
v -1.1000000 0.0600000 -2.1000000
v -1.1000000 -0.0000000 -0.9000002
v -1.1000000 -0.0000000 -2.1000000
v 0.1000000 0.0600000 -2.1000000
v 0.1000000 0.0600000 -0.9000002
v 0.1000000 -0.0000000 -2.1000000
v 0.1000000 -0.0000000 -0.9000002
v -0.1017160 0.0600000 -1.0100001
v -0.0100000 0.0600000 -1.1017200
v -0.1100000 0.0800000 -1.0300001
v -0.0299999 0.0800000 -1.1100001
v -0.0100000 0.0600000 -1.8982802
v -0.0299999 0.0800000 -1.8900000
v -0.1017160 0.0600000 -1.9900000
v -0.1100000 0.0800000 -1.9700000
v -0.8900000 0.0800000 -1.9700000
v -0.8982840 0.0600000 -1.9900000
v -0.9700000 0.0800000 -1.8900000
v -0.9900000 0.0600000 -1.8982802
v -0.9700000 0.0800000 -1.1100001
v -0.9900000 0.0600000 -1.1017200
v -0.8900000 0.0800000 -1.0300001
v -0.8982840 0.0600000 -1.0100001
v -0.9656250 0.1150000 -1.1056301
v -0.8943750 0.1150000 -1.0343699
v -0.1056250 0.1150000 -1.0343699
v -0.0343749 0.1150000 -1.1056301
v -0.0343749 0.1150000 -1.8943700
v -0.1056250 0.1150000 -1.9656302
v -0.8943750 0.1150000 -1.9656302
v -0.9656250 0.1150000 -1.8943700
v -0.1615690 0.1200000 -1.0350000
v -0.8384310 0.1200000 -1.0350000
v -0.9650000 0.1200000 -1.1615702
v -0.9650000 0.1200000 -1.8384302
v -0.8384310 0.1200000 -1.9650002
v -0.1615690 0.1200000 -1.9650002
v -0.0350000 0.1200000 -1.8384302
v -0.0350000 0.1200000 -1.1615702
# 48 normals
vn -1.000000 0.000000 0.000000
vn 1.000000 0.000000 0.000000
vn 0.000000 0.000000 -1.000000
vn 0.000000 0.000000 1.000000
vn 0.500000 0.707044 0.500000
vn 0.707044 0.707044 0.000000
vn 0.707044 0.707044 0.000000
vn 0.500000 0.707044 -0.500000
vn 0.000000 0.707044 -0.707044
vn -0.500000 0.707044 -0.500000
vn -0.707044 0.707044 0.000000
vn -0.500000 0.707044 0.500000
vn 0.000000 0.707044 0.707044
vn -0.707044 0.000000 0.707044
vn -0.707044 0.000000 0.707044
vn 0.707044 0.000000 0.707044
vn 0.707044 0.000000 0.707044
vn 0.000000 1.000000 0.000000
vn 0.707044 0.000000 -0.707044
vn 0.707044 0.000000 -0.707044
vn -0.707044 0.000000 -0.707044
vn -0.707044 0.000000 -0.707044
vn 0.000000 0.124000 0.992187
vn 0.000000 0.124000 0.992187
vn 0.000000 0.124000 0.992187
vn -0.087621 0.992187 0.087621
vn -0.992187 0.124000 0.000000
vn -0.087621 0.992187 -0.087621
vn 0.000000 0.124000 -0.992187
vn 0.087621 0.992187 -0.087621
vn 0.992187 0.124000 0.000000
vn 0.992187 0.124000 0.000000
vn 0.087621 0.992187 0.087621
vn 0.000000 -1.000000 0.000000
vn 0.707044 0.000000 0.707044
vn 0.707044 0.000000 0.707044
vn 0.707044 0.000000 -0.707044
vn -0.707044 0.000000 0.707044
vn -0.707044 0.000000 0.707044
vn 0.707044 0.000000 0.707044
vn 0.707044 0.000000 -0.707044
vn 0.707044 0.000000 -0.707044
vn -0.707044 0.000000 -0.707044
vn 0.000000 0.124000 0.992187
vn 0.707044 0.000000 0.707044
vn 0.707044 0.000000 0.707044
vn 0.707044 0.000000 -0.707044
vn 0.707044 0.000000 -0.707044
# 160 uv coords
vt -1.000000 -0.500000
vt -1.000000 -0.500000
vt -1.000000 -1.000000
vt -1.000000 -1.000000
vt -0.454545 -0.500000
vt -0.454545 -0.500000
vt -0.454545 -1.000000
vt -0.454545 -1.000000
vt -0.546235 -0.500000
vt -0.504546 -0.500000
vt -0.550000 -0.333333
vt -0.513636 -0.333333
vt -0.504546 -0.500000
vt -0.513636 -0.333333
vt -0.546235 -0.500000
vt -0.550000 -0.333333
vt -0.904545 -0.333333
vt -0.908311 -0.500000
vt -0.940909 -0.333333
vt -0.950000 -0.500000
vt -0.940909 -0.333333
vt -0.950000 -0.500000
vt -0.904545 -0.333333
vt -0.908311 -0.500000
vt -0.938920 -0.041667
vt -0.906534 -0.041667
vt -0.548011 -0.041667
vt -0.515625 -0.041667
vt -0.515625 -0.041667
vt -0.548011 -0.041667
vt -0.906534 -0.041667
vt -0.938920 -0.041667
vt -0.573440 0.000000
vt -0.881105 0.000000
vt -0.938636 0.000000
vt -0.938636 0.000000
vt -0.881105 0.000000
vt -0.573440 0.000000
vt -0.515909 0.000000
vt -0.515909 0.000000
vt -0.545455 -0.500000
vt -0.545455 -0.500000
vt -0.545455 -1.000000
vt -0.545455 -1.000000
vt 0.000000 -0.500000
vt 0.000000 -0.500000
vt 0.000000 -1.000000
vt 0.000000 -1.000000
vt -0.091689 -0.500000
vt -0.050000 -0.500000
vt -0.095455 -0.333333
vt -0.059091 -0.333333
vt -0.050000 -0.500000
vt -0.059091 -0.333333
vt -0.091689 -0.500000
vt -0.095455 -0.333333
vt -0.450000 -0.333333
vt -0.453765 -0.500000
vt -0.486364 -0.333333
vt -0.495455 -0.500000
vt -0.486364 -0.333333
vt -0.495455 -0.500000
vt -0.450000 -0.333333
vt -0.453765 -0.500000
vt -0.484375 -0.041667
vt -0.451989 -0.041667
vt -0.093466 -0.041667
vt -0.061080 -0.041667
vt -0.061080 -0.041667
vt -0.093466 -0.041667
vt -0.451989 -0.041667
vt -0.484375 -0.041667
vt -0.118895 0.000000
vt -0.426560 0.000000
vt -0.484091 0.000000
vt -0.484091 0.000000
vt -0.426560 0.000000
vt -0.118895 0.000000
vt -0.061364 0.000000
vt -0.061364 0.000000
vt -0.545455 -0.500000
vt -0.545455 -0.500000
vt -0.545455 -1.000000
vt -0.545455 -1.000000
vt 0.000000 -0.500000
vt 0.000000 -0.500000
vt 0.000000 -1.000000
vt 0.000000 -1.000000
vt -0.091689 -0.500000
vt -0.050000 -0.500000
vt -0.095455 -0.333333
vt -0.059091 -0.333333
vt -0.050000 -0.500000
vt -0.059091 -0.333333
vt -0.091689 -0.500000
vt -0.095455 -0.333333
vt -0.450000 -0.333333
vt -0.453765 -0.500000
vt -0.486364 -0.333333
vt -0.495455 -0.500000
vt -0.486364 -0.333333
vt -0.495455 -0.500000
vt -0.450000 -0.333333
vt -0.453765 -0.500000
vt -0.484375 -0.041667
vt -0.451989 -0.041667
vt -0.093466 -0.041667
vt -0.061080 -0.041667
vt -0.061080 -0.041667
vt -0.093466 -0.041667
vt -0.451989 -0.041667
vt -0.484375 -0.041667
vt -0.118895 0.000000
vt -0.426560 0.000000
vt -0.484091 0.000000
vt -0.484091 0.000000
vt -0.426560 0.000000
vt -0.118895 0.000000
vt -0.061364 0.000000
vt -0.061364 0.000000
vt -1.000000 -0.500000
vt -1.000000 -0.500000
vt -1.000000 -1.000000
vt -1.000000 -1.000000
vt -0.454545 -0.500000
vt -0.454545 -0.500000
vt -0.454545 -1.000000
vt -0.454545 -1.000000
vt -0.546235 -0.500000
vt -0.504546 -0.500000
vt -0.550000 -0.333333
vt -0.513636 -0.333333
vt -0.504546 -0.500000
vt -0.513636 -0.333333
vt -0.546235 -0.500000
vt -0.550000 -0.333333
vt -0.904545 -0.333333
vt -0.908311 -0.500000
vt -0.940909 -0.333333
vt -0.950000 -0.500000
vt -0.940909 -0.333333
vt -0.950000 -0.500000
vt -0.904545 -0.333333
vt -0.908311 -0.500000
vt -0.938920 -0.041667
vt -0.906534 -0.041667
vt -0.548011 -0.041667
vt -0.515625 -0.041667
vt -0.515625 -0.041667
vt -0.548011 -0.041667
vt -0.906534 -0.041667
vt -0.938920 -0.041667
vt -0.573440 0.000000
vt -0.881105 0.000000
vt -0.938636 0.000000
vt -0.938636 0.000000
vt -0.881105 0.000000
vt -0.573440 0.000000
vt -0.515909 0.000000
vt -0.515909 0.000000
# 304 polygons
usemtl DefaultMaterial
g <STL_BINARY>
f 1/1/1 2/2/1 3/3/1
f 3/3/1 2/2/1 4/4/1
f 5/5/2 6/6/2 7/7/2
f 7/7/2 6/6/2 8/8/2
f 2/2/3 5/5/3 4/4/3
f 4/4/3 5/5/3 7/7/3
f 6/6/4 1/1/4 8/8/4
f 8/8/4 1/1/4 3/3/4
f 9/9/5 10/10/5 11/11/5
f 11/11/5 10/10/5 12/12/5
f 10/10/6 13/13/6 12/12/6
f 12/12/6 13/13/6 14/14/7
f 13/13/8 15/15/8 14/14/8
f 14/14/8 15/15/8 16/16/8
f 17/17/9 16/16/9 18/18/9
f 18/18/9 16/16/9 15/15/9
f 19/19/10 17/17/10 20/20/10
f 20/20/10 17/17/10 18/18/10
f 21/21/11 19/19/11 22/22/11
f 22/22/11 19/19/11 20/20/11
f 23/23/12 21/21/12 24/24/12
f 24/24/12 21/21/12 22/22/12
f 11/11/13 23/23/13 9/9/13
f 9/9/13 23/23/13 24/24/13
f 21/21/14 23/23/14 25/25/14
f 25/25/14 23/23/14 26/26/15
f 11/11/16 12/12/16 27/27/16
f 27/27/16 12/12/16 28/28/17
f 6/6/18 9/9/18 1/1/18
f 9/9/18 6/6/18 10/10/18
f 10/10/18 6/6/18 5/5/18
f 1/1/18 9/9/18 24/24/18
f 1/1/18 24/24/18 22/22/18
f 20/20/18 2/2/18 1/1/18
f 20/20/18 1/1/18 22/22/18
f 18/18/18 2/2/18 20/20/18
f 15/15/18 5/5/18 2/2/18
f 15/15/18 2/2/18 18/18/18
f 10/10/18 5/5/18 13/13/18
f 13/13/18 5/5/18 15/15/18
f 14/14/19 16/16/19 29/29/19
f 29/29/19 16/16/19 30/30/20
f 17/17/21 19/19/21 31/31/21
f 31/31/21 19/19/21 32/32/22
f 33/33/23 34/34/23 27/27/23
f 27/27/23 34/34/23 26/26/24
f 27/27/23 26/26/24 11/11/24
f 11/11/24 26/26/24 23/23/25
f 35/35/26 25/25/26 34/34/26
f 34/34/26 25/25/26 26/26/26
f 35/35/27 36/36/27 25/25/27
f 25/25/27 36/36/27 32/32/27
f 25/25/27 32/32/27 21/21/27
f 21/21/27 32/32/27 19/19/27
f 36/36/28 37/37/28 32/32/28
f 32/32/28 37/37/28 31/31/28
f 37/37/29 38/38/29 31/31/29
f 31/31/29 38/38/29 30/30/29
f 31/31/29 30/30/29 17/17/29
f 17/17/29 30/30/29 16/16/29
f 30/30/30 38/38/30 29/29/30
f 29/29/30 38/38/30 39/39/30
f 12/12/31 14/14/31 28/28/31
f 28/28/31 14/14/31 29/29/31
f 28/28/31 29/29/31 40/40/31
f 40/40/31 29/29/31 39/39/32
f 27/27/33 28/28/33 33/33/33
f 33/33/33 28/28/33 40/40/33
f 33/33/18 39/39/18 34/34/18
f 33/33/18 40/40/18 39/39/18
f 34/34/18 39/39/18 38/38/18
f 34/34/18 38/38/18 35/35/18
f 35/35/18 38/38/18 37/37/18
f 35/35/18 37/37/18 36/36/18
f 8/8/34 3/3/34 7/7/34
f 7/7/34 3/3/34 4/4/34
f 41/41/1 42/42/1 43/43/1
f 43/43/1 42/42/1 44/44/1
f 45/45/2 46/46/2 47/47/2
f 47/47/2 46/46/2 48/48/2
f 42/42/3 45/45/3 44/44/3
f 44/44/3 45/45/3 47/47/3
f 46/46/4 41/41/4 48/48/4
f 48/48/4 41/41/4 43/43/4
f 49/49/5 50/50/5 51/51/5
f 51/51/5 50/50/5 52/52/5
f 50/50/7 53/53/7 52/52/7
f 52/52/7 53/53/7 54/54/7
f 53/53/8 55/55/8 54/54/8
f 54/54/8 55/55/8 56/56/8
f 57/57/9 56/56/9 58/58/9
f 58/58/9 56/56/9 55/55/9
f 59/59/10 57/57/10 60/60/10
f 60/60/10 57/57/10 58/58/10
f 61/61/11 59/59/11 62/62/11
f 62/62/11 59/59/11 60/60/11
f 63/63/12 61/61/12 64/64/12
f 64/64/12 61/61/12 62/62/12
f 51/51/13 63/63/13 49/49/13
f 49/49/13 63/63/13 64/64/13
f 61/61/14 63/63/14 65/65/14
f 65/65/14 63/63/14 66/66/15
f 51/51/35 52/52/35 67/67/35
f 67/67/35 52/52/35 68/68/36
f 46/46/18 49/49/18 41/41/18
f 49/49/18 46/46/18 50/50/18
f 50/50/18 46/46/18 45/45/18
f 41/41/18 49/49/18 64/64/18
f 41/41/18 64/64/18 62/62/18
f 60/60/18 42/42/18 41/41/18
f 60/60/18 41/41/18 62/62/18
f 58/58/18 42/42/18 60/60/18
f 55/55/18 45/45/18 42/42/18
f 55/55/18 42/42/18 58/58/18
f 50/50/18 45/45/18 53/53/18
f 53/53/18 45/45/18 55/55/18
f 54/54/37 56/56/37 69/69/37
f 69/69/37 56/56/37 70/70/37
f 57/57/21 59/59/21 71/71/21
f 71/71/21 59/59/21 72/72/22
f 73/73/23 74/74/23 67/67/23
f 67/67/23 74/74/23 66/66/24
f 67/67/23 66/66/24 51/51/24
f 51/51/24 66/66/24 63/63/25
f 75/75/26 65/65/26 74/74/26
f 74/74/26 65/65/26 66/66/26
f 75/75/27 76/76/27 65/65/27
f 65/65/27 76/76/27 72/72/27
f 65/65/27 72/72/27 61/61/27
f 61/61/27 72/72/27 59/59/27
f 76/76/28 77/77/28 72/72/28
f 72/72/28 77/77/28 71/71/28
f 77/77/29 78/78/29 71/71/29
f 71/71/29 78/78/29 70/70/29
f 71/71/29 70/70/29 57/57/29
f 57/57/29 70/70/29 56/56/29
f 70/70/30 78/78/30 69/69/30
f 69/69/30 78/78/30 79/79/30
f 52/52/31 54/54/31 68/68/31
f 68/68/31 54/54/31 69/69/31
f 68/68/31 69/69/31 80/80/31
f 80/80/31 69/69/31 79/79/31
f 67/67/33 68/68/33 73/73/33
f 73/73/33 68/68/33 80/80/33
f 73/73/18 79/79/18 74/74/18
f 73/73/18 80/80/18 79/79/18
f 74/74/18 79/79/18 78/78/18
f 74/74/18 78/78/18 75/75/18
f 75/75/18 78/78/18 77/77/18
f 75/75/18 77/77/18 76/76/18
f 48/48/34 43/43/34 47/47/34
f 47/47/34 43/43/34 44/44/34
f 81/81/1 82/82/1 83/83/1
f 83/83/1 82/82/1 84/84/1
f 85/85/2 86/86/2 87/87/2
f 87/87/2 86/86/2 88/88/2
f 82/82/3 85/85/3 84/84/3
f 84/84/3 85/85/3 87/87/3
f 86/86/4 81/81/4 88/88/4
f 88/88/4 81/81/4 83/83/4
f 89/89/5 90/90/5 91/91/5
f 91/91/5 90/90/5 92/92/5
f 90/90/7 93/93/7 92/92/7
f 92/92/7 93/93/7 94/94/7
f 93/93/8 95/95/8 94/94/8
f 94/94/8 95/95/8 96/96/8
f 97/97/9 96/96/9 98/98/9
f 98/98/9 96/96/9 95/95/9
f 99/99/10 97/97/10 100/100/10
f 100/100/10 97/97/10 98/98/10
f 101/101/11 99/99/11 102/102/11
f 102/102/11 99/99/11 100/100/11
f 103/103/12 101/101/12 104/104/12
f 104/104/12 101/101/12 102/102/12
f 91/91/13 103/103/13 89/89/13
f 89/89/13 103/103/13 104/104/13
f 101/101/38 103/103/38 105/105/38
f 105/105/38 103/103/38 106/106/39
f 91/91/40 92/92/40 107/107/40
f 107/107/40 92/92/40 108/108/36
f 86/86/18 89/89/18 81/81/18
f 89/89/18 86/86/18 90/90/18
f 90/90/18 86/86/18 85/85/18
f 81/81/18 89/89/18 104/104/18
f 81/81/18 104/104/18 102/102/18
f 100/100/18 82/82/18 81/81/18
f 100/100/18 81/81/18 102/102/18
f 98/98/18 82/82/18 100/100/18
f 95/95/18 85/85/18 82/82/18
f 95/95/18 82/82/18 98/98/18
f 90/90/18 85/85/18 93/93/18
f 93/93/18 85/85/18 95/95/18
f 94/94/41 96/96/41 109/109/41
f 109/109/41 96/96/41 110/110/42
f 97/97/43 99/99/43 111/111/43
f 111/111/43 99/99/43 112/112/22
f 113/113/44 114/114/44 107/107/44
f 107/107/44 114/114/44 106/106/25
f 107/107/44 106/106/25 91/91/25
f 91/91/25 106/106/25 103/103/25
f 115/115/26 105/105/26 114/114/26
f 114/114/26 105/105/26 106/106/26
f 115/115/27 116/116/27 105/105/27
f 105/105/27 116/116/27 112/112/27
f 105/105/27 112/112/27 101/101/27
f 101/101/27 112/112/27 99/99/27
f 116/116/28 117/117/28 112/112/28
f 112/112/28 117/117/28 111/111/28
f 117/117/29 118/118/29 111/111/29
f 111/111/29 118/118/29 110/110/29
f 111/111/29 110/110/29 97/97/29
f 97/97/29 110/110/29 96/96/29
f 110/110/30 118/118/30 109/109/30
f 109/109/30 118/118/30 119/119/30
f 92/92/31 94/94/31 108/108/31
f 108/108/31 94/94/31 109/109/31
f 108/108/31 109/109/31 120/120/31
f 120/120/31 109/109/31 119/119/31
f 107/107/33 108/108/33 113/113/33
f 113/113/33 108/108/33 120/120/33
f 113/113/18 119/119/18 114/114/18
f 113/113/18 120/120/18 119/119/18
f 114/114/18 119/119/18 118/118/18
f 114/114/18 118/118/18 115/115/18
f 115/115/18 118/118/18 117/117/18
f 115/115/18 117/117/18 116/116/18
f 88/88/34 83/83/34 87/87/34
f 87/87/34 83/83/34 84/84/34
f 121/121/1 122/122/1 123/123/1
f 123/123/1 122/122/1 124/124/1
f 125/125/2 126/126/2 127/127/2
f 127/127/2 126/126/2 128/128/2
f 122/122/3 125/125/3 124/124/3
f 124/124/3 125/125/3 127/127/3
f 126/126/4 121/121/4 128/128/4
f 128/128/4 121/121/4 123/123/4
f 129/129/5 130/130/5 131/131/5
f 131/131/5 130/130/5 132/132/5
f 130/130/6 133/133/6 132/132/6
f 132/132/6 133/133/6 134/134/7
f 133/133/8 135/135/8 134/134/8
f 134/134/8 135/135/8 136/136/8
f 137/137/9 136/136/9 138/138/9
f 138/138/9 136/136/9 135/135/9
f 139/139/10 137/137/10 140/140/10
f 140/140/10 137/137/10 138/138/10
f 141/141/11 139/139/11 142/142/11
f 142/142/11 139/139/11 140/140/11
f 143/143/12 141/141/12 144/144/12
f 144/144/12 141/141/12 142/142/12
f 131/131/13 143/143/13 129/129/13
f 129/129/13 143/143/13 144/144/13
f 141/141/38 143/143/38 145/145/38
f 145/145/38 143/143/38 146/146/39
f 131/131/45 132/132/45 147/147/45
f 147/147/45 132/132/45 148/148/46
f 126/126/18 129/129/18 121/121/18
f 129/129/18 126/126/18 130/130/18
f 130/130/18 126/126/18 125/125/18
f 121/121/18 129/129/18 144/144/18
f 121/121/18 144/144/18 142/142/18
f 140/140/18 122/122/18 121/121/18
f 140/140/18 121/121/18 142/142/18
f 138/138/18 122/122/18 140/140/18
f 135/135/18 125/125/18 122/122/18
f 135/135/18 122/122/18 138/138/18
f 130/130/18 125/125/18 133/133/18
f 133/133/18 125/125/18 135/135/18
f 134/134/47 136/136/47 149/149/47
f 149/149/47 136/136/47 150/150/48
f 137/137/43 139/139/43 151/151/43
f 151/151/43 139/139/43 152/152/22
f 153/153/44 154/154/44 147/147/44
f 147/147/44 154/154/44 146/146/25
f 147/147/44 146/146/25 131/131/25
f 131/131/25 146/146/25 143/143/25
f 155/155/26 145/145/26 154/154/26
f 154/154/26 145/145/26 146/146/26
f 155/155/27 156/156/27 145/145/27
f 145/145/27 156/156/27 152/152/27
f 145/145/27 152/152/27 141/141/27
f 141/141/27 152/152/27 139/139/27
f 156/156/28 157/157/28 152/152/28
f 152/152/28 157/157/28 151/151/28
f 157/157/29 158/158/29 151/151/29
f 151/151/29 158/158/29 150/150/29
f 151/151/29 150/150/29 137/137/29
f 137/137/29 150/150/29 136/136/29
f 150/150/30 158/158/30 149/149/30
f 149/149/30 158/158/30 159/159/30
f 132/132/31 134/134/31 148/148/31
f 148/148/31 134/134/31 149/149/31
f 148/148/31 149/149/31 160/160/31
f 160/160/31 149/149/31 159/159/32
f 147/147/33 148/148/33 153/153/33
f 153/153/33 148/148/33 160/160/33
f 153/153/18 159/159/18 154/154/18
f 153/153/18 160/160/18 159/159/18
f 154/154/18 159/159/18 158/158/18
f 154/154/18 158/158/18 155/155/18
f 155/155/18 158/158/18 157/157/18
f 155/155/18 157/157/18 156/156/18
f 128/128/34 123/123/34 127/127/34
f 127/127/34 123/123/34 124/124/34
# h3dt: 160 160 48 304
