# author: headus 3D tools
#  using: ply2obj v1.11
#   from: uvlayout v2.10.03
# 176 vertices
v -0.3100000 0.0500000 -0.2400000
v -0.1400000 0.0500000 -0.2400000
v -0.3000001 0.0400000 -0.2500000
v -0.1500000 0.0400000 -0.2500000
v -0.1400000 0.0500000 -0.5099999
v -0.1500000 0.0400000 -0.5000000
v -0.3000001 0.0400000 -0.4499999
v -0.2500000 0.0400000 -0.5000000
v -0.3100000 0.0500000 -0.4541420
v -0.2541420 0.0500000 -0.5099999
v -0.2041420 0.0500000 -0.9100000
v -0.3000001 0.0500000 -1.8505300
v -0.3100000 0.0500000 -0.8041420
v -0.1400000 0.0500000 -0.9100000
v -0.1511801 0.0500000 -1.8500000
v -0.2988200 0.0500000 -1.8500000
v -0.5000000 0.0500000 -1.8500000
v -0.3000001 0.0500000 -1.9494700
v -0.3799999 0.0500000 -1.9700002
v -0.7500000 0.0500000 -1.8500000
v -0.8500000 0.0500000 -1.7500000
v -0.9000000 0.0500000 -0.0217157
v -0.9000000 0.0500000 -1.7500000
v -0.3282839 0.0500000 -0.0217157
v -0.3100000 0.0500000 -0.5899999
v -0.2500000 0.0500000 -0.1000001
v -0.1500000 0.0500000 -0.1000001
v -0.0500000 0.0500000 -0.2000001
v -0.1400000 0.0500000 -0.5899999
v -0.0500000 0.0500000 -1.9500000
v -0.1500000 0.0500000 -1.8505300
v -0.0700000 0.0500000 -1.9700002
v -0.1500000 0.0500000 -1.9494700
v -0.1511801 0.0500000 -1.9500000
v -0.2988200 0.0500000 -1.9500000
v -0.2000000 0.0400000 -0.9000000
v -0.3000001 0.0400000 -0.8000000
v -0.3000001 0.0400000 -0.6000000
v -0.1500000 0.0400000 -0.6000000
v -0.1500000 0.0400000 -0.9000000
v -0.3199999 0.0700000 -0.0017158
v -0.9200000 0.0700000 -0.0017158
v -1.9700001 0.0700000 -1.7600000
v -1.9700001 0.0700000 -0.1917161
v -1.9600002 0.0599999 -1.7500000
v -1.9500001 0.0500000 -0.2000001
v -1.9500001 0.0500000 -1.7500000
v -1.3299999 0.0500000 -0.0300001
v -1.6800001 0.0500000 -0.0300001
v -1.3382803 0.0700000 -0.0100000
v -1.6882799 0.0700000 -0.0100000
v -1.3282800 0.0700000 0.0000000
v -1.3000000 0.0500000 0.0000000
v -2.0000002 0.0700000 0.0000000
v -2.0000002 0.0000000 0.0000000
v -1.1000000 0.0500000 0.0000000
v -0.0000000 0.0000000 0.0000000
v -0.9200000 0.0700000 0.0000000
v -1.0700000 0.0799999 0.0000000
v -0.0000000 0.0700000 0.0000000
v -0.9300000 0.0799999 0.0000000
v -2.0000002 0.0700000 -1.7600000
v -1.8582803 0.0700000 -0.0800000
v -1.7582800 0.0700000 -0.0800000
v -1.3000000 0.0500000 -2.0000002
v -1.3282800 0.0700000 -2.0000002
v -1.3299999 0.0500000 -1.9700002
v -1.3382803 0.0700000 -1.9900000
v -1.3741401 0.0700000 -1.9900000
v -1.3700000 0.0599999 -1.9800000
v -1.3799999 0.0500000 -1.9700002
v -0.0450000 0.0549999 -1.9450002
v -0.0300000 0.0700000 -0.1917161
v -0.0300000 0.0700000 -1.9512100
v -0.1417160 0.0700000 -0.0800000
v -0.2417160 0.0700000 -0.0800000
v -0.0000000 0.0700000 -2.0000002
v -0.0687868 0.0700000 -1.9900000
v -0.4165689 0.0700000 -1.9900000
v -0.9000000 0.0700000 -2.0000002
v -0.7665690 0.0700000 -1.8900001
v -0.5165690 0.0700000 -1.8900001
v -0.8665690 0.0700000 -1.7900000
v -0.9000000 0.0700000 -1.7900000
v -0.3700000 0.0599999 -1.9800000
v -0.0750000 0.0549999 -1.9750000
v -1.3641401 0.0700000 -2.0000002
v -2.0000002 0.0900000 -2.0000002
v -2.0000002 0.0000000 -2.0000002
v -1.1000000 0.0500000 -2.0000002
v -1.3782799 0.0799999 -2.0000002
v -1.4065702 0.0900000 -2.0000002
v -0.0000000 0.0000000 -2.0000002
v -1.0700000 0.0799999 -2.0000002
v -0.9300000 0.0799999 -2.0000002
v -1.5000000 0.0599999 -1.8500000
v -1.5000000 0.0500000 -1.8500000
v -1.5082803 0.0799999 -1.8700001
v -2.0000002 0.0799999 -1.7700000
v -2.0000002 0.0900000 -1.7900000
v -1.8582803 0.0799999 -1.7700000
v -1.8500000 0.0599999 -1.7500000
v -0.9300000 0.0799999 -1.7500000
v -0.2600000 0.0950000 -1.9300002
v -0.2600000 0.0950000 -1.9199998
v -0.2550000 0.1000000 -1.9279300
v -0.2550000 0.1000000 -1.9199998
v -0.2529290 0.1000000 -1.9300002
v -0.2550000 0.0950000 -1.9349998
v -0.2370710 0.1000000 -1.9300002
v -0.2350000 0.0950000 -1.9349998
v -0.2300000 0.0950000 -1.9300002
v -0.2350000 0.1000000 -1.9279300
v -0.2350000 0.1000000 -1.9199998
v -0.2300000 0.0950000 -1.9199998
v -0.2600000 0.0700000 -1.9199998
v -0.2600000 0.0700000 -1.9300002
v -0.2200000 0.0950000 -1.9300002
v -0.2200000 0.0950000 -1.9199998
v -0.2150000 0.1000000 -1.9279300
v -0.2150000 0.1000000 -1.9199998
v -0.2129290 0.1000000 -1.9300002
v -0.2150000 0.0950000 -1.9349998
v -0.1970710 0.1000000 -1.9300002
v -0.1950000 0.0950000 -1.9349998
v -0.1900000 0.0950000 -1.9300002
v -0.1950000 0.1000000 -1.9279300
v -0.1950000 0.1000000 -1.9199998
v -0.1900000 0.0950000 -1.9199998
v -0.1900000 0.0700000 -1.9199998
v -0.2200000 0.0700000 -1.9199998
v -0.2550000 0.0700000 -1.9349998
v -0.2350000 0.0700000 -1.9349998
v -0.2300000 0.0700000 -1.9300002
v -0.2200000 0.0700000 -1.9300002
v -0.2150000 0.0700000 -1.9349998
v -0.1950000 0.0700000 -1.9349998
v -0.1900000 0.0700000 -1.9300002
v -0.2300000 0.0700000 -1.9199998
v -0.2688200 0.0649999 -1.8500000
v -0.1811800 0.0649999 -1.8500000
v -0.2700001 0.0700000 -1.8550001
v -0.1800000 0.0700000 -1.8550001
v -0.1500000 0.0549999 -1.8550001
v -0.3000001 0.0549999 -1.8550001
v -0.1811800 0.0649999 -1.9500000
v -0.2688200 0.0649999 -1.9500000
v -0.1800000 0.0700000 -1.9450002
v -0.2700001 0.0700000 -1.9450002
v -0.3000001 0.0549999 -1.9450002
v -0.1500000 0.0549999 -1.9450002
v -0.5000000 0.0599999 -1.8500000
v -0.7500000 0.0599999 -1.8500000
v -0.8500000 0.0599999 -1.7500000
v -0.8700000 0.0599999 -1.7500000
v -1.8665702 0.0900000 -1.7900000
v -1.7500001 0.0599999 -1.8500000
v -1.7582800 0.0799999 -1.8700001
v -1.8500000 0.0500000 -1.7500000
v -1.7500001 0.0500000 -1.8500000
v -1.7500001 0.0500000 -0.1000001
v -1.8500000 0.0500000 -0.1000001
v -1.6165703 0.0900000 -1.8800000
v -1.6165703 0.0900000 -1.8900001
v -1.6515699 0.0900000 -1.8800000
v -1.6515699 0.0900000 -1.8900001
v -1.5165699 0.0900000 -1.8900001
v -1.6665702 0.0900000 -1.8900001
v -1.6915701 0.0900000 -1.8900001
v -1.6915701 0.0900000 -1.8800000
v -1.6665702 0.0900000 -1.8800000
v -1.7665698 0.0900000 -1.8900001
v -1.6165703 0.0799999 -1.8700001
v -1.6915701 0.0799999 -1.8700001
v -1.6665702 0.0799999 -1.8700001
v -1.6515699 0.0799999 -1.8700001
# 44 normals
vn 0.000000 0.707044 -0.707044
vn -0.707044 0.707044 0.000000
vn 0.500000 0.707044 0.500000
vn 0.000000 0.707044 0.707044
vn 0.707044 0.707044 0.000000
vn 0.000000 1.000000 0.000000
vn 0.000000 0.707044 -0.707044
vn 0.707044 0.707044 0.000000
vn 0.000000 0.707044 -0.707044
vn 0.500000 0.707044 -0.500000
vn 0.000000 0.000000 1.000000
vn 0.000000 0.707044 0.707044
vn 0.000000 0.707044 0.707044
vn 0.000000 0.707044 0.707044
vn -0.500000 0.707044 -0.500000
vn -0.707044 0.000000 0.707044
vn -0.707044 0.000000 0.707044
vn 0.000000 0.000000 -1.000000
vn 0.707044 0.000000 0.707044
vn -1.000000 0.000000 0.000000
vn 0.000000 0.707044 0.707044
vn 0.707044 0.707044 0.000000
vn 0.707044 0.707044 0.000000
vn -0.707044 0.000000 -0.707044
vn 0.707044 0.000000 -0.707044
vn 1.000000 0.000000 0.000000
vn 0.316212 0.632454 0.707044
vn -0.316212 0.632454 0.707044
vn -0.316212 0.632454 -0.707044
vn 0.316212 0.632454 -0.707044
vn -0.447201 0.894403 0.000000
vn 0.447201 0.894403 0.000000
vn -0.500000 0.707044 0.500000
vn 0.171428 0.970060 0.171428
vn 0.000000 0.970060 0.242446
vn 0.707044 0.000000 0.707044
vn 0.316212 0.948605 0.000000
vn 0.316212 0.948605 0.000000
vn 0.316212 0.948605 0.000000
vn 0.000000 0.707044 -0.707044
vn 0.000000 0.894403 0.447201
vn 0.316212 0.894403 0.316212
vn 0.000000 0.707044 -0.707044
vn 0.000000 -1.000000 0.000000
# 176 uv coords
vt -0.155000 -0.500000
vt -0.070000 -0.500000
vt -0.150000 -0.600000
vt -0.075000 -0.600000
vt -0.070000 -0.500000
vt -0.075000 -0.600000
vt -0.150000 -0.600000
vt -0.125000 -0.600000
vt -0.155000 -0.500000
vt -0.127071 -0.500000
vt -0.102071 -0.500000
vt -0.150000 -0.500000
vt -0.155000 -0.500000
vt -0.070000 -0.500000
vt -0.075590 -0.500000
vt -0.149410 -0.500000
vt -0.250000 -0.500000
vt -0.150000 -0.500000
vt -0.190000 -0.500000
vt -0.375000 -0.500000
vt -0.425000 -0.500000
vt -0.450000 -0.500000
vt -0.450000 -0.500000
vt -0.164142 -0.500000
vt -0.155000 -0.500000
vt -0.125000 -0.500000
vt -0.075000 -0.500000
vt -0.025000 -0.500000
vt -0.070000 -0.500000
vt -0.025000 -0.500000
vt -0.075000 -0.500000
vt -0.035000 -0.500000
vt -0.075000 -0.500000
vt -0.075590 -0.500000
vt -0.149410 -0.500000
vt -0.100000 -0.600000
vt -0.150000 -0.600000
vt -0.150000 -0.600000
vt -0.075000 -0.600000
vt -0.075000 -0.600000
vt -0.160000 -0.300000
vt -0.460000 -0.300000
vt -0.985000 -0.300000
vt -0.985000 -0.300000
vt -0.980000 -0.400001
vt -0.975000 -0.500000
vt -0.975000 -0.500000
vt -0.665000 -0.500000
vt -0.840000 -0.500000
vt -0.669140 -0.300000
vt -0.844140 -0.300000
vt -0.664140 -0.300000
vt -0.650000 -0.500000
vt -1.000000 -0.300000
vt -1.000000 -1.000000
vt -0.550000 -0.500000
vt 0.000000 -1.000000
vt -0.460000 -0.300000
vt -0.535000 -0.200001
vt 0.000000 -0.300000
vt -0.465000 -0.200001
vt -1.000000 -0.300000
vt -0.929140 -0.300000
vt -0.879140 -0.300000
vt -0.650000 -0.500000
vt -0.664140 -0.300000
vt -0.665000 -0.500000
vt -0.669140 -0.300000
vt -0.687070 -0.300000
vt -0.685000 -0.400001
vt -0.690000 -0.500000
vt -0.022500 -0.450001
vt -0.015000 -0.300000
vt -0.015000 -0.300000
vt -0.070858 -0.300000
vt -0.120858 -0.300000
vt 0.000000 -0.300000
vt -0.034393 -0.300000
vt -0.208284 -0.300000
vt -0.450000 -0.300000
vt -0.383284 -0.300000
vt -0.258284 -0.300000
vt -0.433284 -0.300000
vt -0.450000 -0.300000
vt -0.185000 -0.400001
vt -0.037500 -0.450001
vt -0.682070 -0.300000
vt -1.000000 -0.100000
vt -1.000000 -1.000000
vt -0.550000 -0.500000
vt -0.689140 -0.200001
vt -0.703285 -0.100000
vt 0.000000 -1.000000
vt -0.535000 -0.200001
vt -0.465000 -0.200001
vt -0.750000 -0.400001
vt -0.750000 -0.500000
vt -0.754140 -0.200001
vt -1.000000 -0.200001
vt -1.000000 -0.100000
vt -0.929140 -0.200001
vt -0.925000 -0.400001
vt -0.465000 -0.200001
vt -0.130000 -0.050000
vt -0.130000 -0.050000
vt -0.127500 0.000000
vt -0.127500 0.000000
vt -0.126464 0.000000
vt -0.127500 -0.050000
vt -0.118535 0.000000
vt -0.117500 -0.050000
vt -0.115000 -0.050000
vt -0.117500 0.000000
vt -0.117500 0.000000
vt -0.115000 -0.050000
vt -0.130000 -0.300000
vt -0.130000 -0.300000
vt -0.110000 -0.050000
vt -0.110000 -0.050000
vt -0.107500 0.000000
vt -0.107500 0.000000
vt -0.106464 0.000000
vt -0.107500 -0.050000
vt -0.098535 0.000000
vt -0.097500 -0.050000
vt -0.095000 -0.050000
vt -0.097500 0.000000
vt -0.097500 0.000000
vt -0.095000 -0.050000
vt -0.095000 -0.300000
vt -0.110000 -0.300000
vt -0.127500 -0.300000
vt -0.117500 -0.300000
vt -0.115000 -0.300000
vt -0.110000 -0.300000
vt -0.107500 -0.300000
vt -0.097500 -0.300000
vt -0.095000 -0.300000
vt -0.115000 -0.300000
vt -0.134410 -0.350001
vt -0.090590 -0.350001
vt -0.135000 -0.300000
vt -0.090000 -0.300000
vt -0.075000 -0.450001
vt -0.150000 -0.450001
vt -0.090590 -0.350001
vt -0.134410 -0.350001
vt -0.090000 -0.300000
vt -0.135000 -0.300000
vt -0.150000 -0.450001
vt -0.075000 -0.450001
vt -0.250000 -0.400001
vt -0.375000 -0.400001
vt -0.425000 -0.400001
vt -0.435000 -0.400001
vt -0.933285 -0.100000
vt -0.875000 -0.400001
vt -0.879140 -0.200001
vt -0.925000 -0.500000
vt -0.875000 -0.500000
vt -0.875000 -0.500000
vt -0.925000 -0.500000
vt -0.808285 -0.100000
vt -0.808285 -0.100000
vt -0.825785 -0.100000
vt -0.825785 -0.100000
vt -0.758285 -0.100000
vt -0.833285 -0.100000
vt -0.845785 -0.100000
vt -0.845785 -0.100000
vt -0.833285 -0.100000
vt -0.883285 -0.100000
vt -0.808285 -0.200001
vt -0.845785 -0.200001
vt -0.833285 -0.200001
vt -0.825785 -0.200001
# 348 polygons
usemtl DefaultMaterial
g <STL_BINARY>
f 1/1/1 2/2/1 3/3/1
f 3/3/1 2/2/1 4/4/1
f 2/2/2 5/5/2 4/4/2
f 4/4/2 5/5/2 6/6/2
f 7/7/3 8/8/3 9/9/3
f 9/9/3 8/8/3 10/10/3
f 5/5/4 10/10/4 6/6/4
f 6/6/4 10/10/4 8/8/4
f 7/7/5 9/9/5 3/3/5
f 3/3/5 9/9/5 1/1/5
f 11/11/6 12/12/6 13/13/6
f 14/14/6 15/15/6 11/11/6
f 11/11/6 15/15/6 16/16/6
f 11/11/6 16/16/6 12/12/6
f 13/13/6 12/12/6 17/17/6
f 18/18/6 19/19/6 12/12/6
f 12/12/6 19/19/6 17/17/6
f 13/13/6 17/17/6 20/20/6
f 20/20/6 21/21/6 13/13/6
f 22/22/6 13/13/6 21/21/6
f 22/22/6 21/21/6 23/23/6
f 24/24/6 1/1/6 22/22/6
f 22/22/6 1/1/6 9/9/6
f 22/22/6 9/9/6 25/25/6
f 25/25/6 13/13/6 22/22/6
f 26/26/6 1/1/6 24/24/6
f 26/26/6 2/2/6 1/1/6
f 27/27/6 2/2/6 26/26/6
f 28/28/6 5/5/6 2/2/6
f 28/28/6 2/2/6 27/27/6
f 29/29/6 28/28/6 14/14/6
f 14/14/6 28/28/6 30/30/6
f 29/29/6 5/5/6 28/28/6
f 29/29/6 10/10/6 5/5/6
f 25/25/6 10/10/6 29/29/6
f 25/25/6 9/9/6 10/10/6
f 14/14/6 30/30/6 31/31/6
f 31/31/6 30/30/6 32/32/6
f 31/31/6 15/15/6 14/14/6
f 31/31/6 32/32/6 33/33/6
f 33/33/6 32/32/6 34/34/6
f 34/34/6 32/32/6 19/19/6
f 34/34/6 19/19/6 35/35/6
f 35/35/6 19/19/6 18/18/6
f 11/11/3 13/13/3 36/36/3
f 36/36/3 13/13/3 37/37/3
f 25/25/5 38/38/5 13/13/5
f 13/13/5 38/38/5 37/37/5
f 25/25/1 29/29/1 38/38/1
f 38/38/1 29/29/1 39/39/1
f 40/40/2 39/39/2 14/14/2
f 14/14/2 39/39/2 29/29/2
f 36/36/4 40/40/4 11/11/4
f 11/11/4 40/40/4 14/14/4
f 6/6/6 8/8/6 4/4/6
f 4/4/6 8/8/6 7/7/6
f 4/4/6 7/7/6 3/3/6
f 40/40/6 36/36/6 39/39/6
f 39/39/6 36/36/6 37/37/6
f 39/39/6 37/37/6 38/38/6
f 24/24/7 22/22/7 41/41/7
f 41/41/7 22/22/7 42/42/1
f 43/43/5 44/44/5 45/45/5
f 45/45/5 44/44/5 46/46/8
f 45/45/5 46/46/8 47/47/5
f 48/48/1 49/49/1 50/50/1
f 50/50/1 49/49/1 51/51/9
f 50/50/10 52/52/10 48/48/10
f 48/48/10 52/52/10 53/53/10
f 52/52/11 54/54/11 53/53/11
f 53/53/11 54/54/11 55/55/11
f 53/53/11 55/55/11 56/56/11
f 56/56/11 55/55/11 57/57/11
f 56/56/11 57/57/11 58/58/11
f 58/58/11 59/59/11 56/56/11
f 58/58/11 57/57/11 60/60/11
f 61/61/11 59/59/11 58/58/11
f 43/43/6 62/62/6 44/44/6
f 44/44/6 62/62/6 54/54/6
f 44/44/6 54/54/6 63/63/6
f 63/63/6 54/54/6 51/51/6
f 54/54/6 52/52/6 51/51/6
f 63/63/6 51/51/6 64/64/6
f 51/51/6 52/52/6 50/50/6
f 65/65/3 66/66/3 67/67/3
f 67/67/3 66/66/3 68/68/3
f 69/69/4 70/70/4 68/68/4
f 68/68/4 70/70/4 67/67/12
f 67/67/12 70/70/4 71/71/4
f 30/30/2 28/28/2 72/72/2
f 72/72/2 28/28/2 73/73/2
f 72/72/2 73/73/2 74/74/2
f 42/42/6 58/58/6 41/41/6
f 41/41/6 58/58/6 60/60/6
f 41/41/6 60/60/6 75/75/6
f 75/75/6 76/76/6 41/41/6
f 75/75/6 60/60/6 73/73/6
f 73/73/6 60/60/6 77/77/6
f 73/73/6 77/77/6 74/74/6
f 74/74/6 77/77/6 78/78/6
f 78/78/6 77/77/6 79/79/6
f 79/79/6 77/77/6 80/80/6
f 79/79/6 80/80/6 81/81/6
f 81/81/6 82/82/6 79/79/6
f 81/81/6 80/80/6 83/83/6
f 83/83/6 80/80/6 84/84/6
f 78/78/13 85/85/13 86/86/13
f 78/78/13 79/79/4 85/85/13
f 86/86/13 85/85/13 19/19/14
f 86/86/13 19/19/14 32/32/4
f 66/66/6 87/87/6 68/68/6
f 68/68/6 87/87/6 69/69/6
f 28/28/15 27/27/15 73/73/15
f 73/73/15 27/27/15 75/75/15
f 32/32/16 30/30/16 86/86/16
f 86/86/16 30/30/16 72/72/17
f 66/66/18 65/65/18 87/87/18
f 87/87/18 65/65/18 88/88/18
f 88/88/18 65/65/18 89/89/18
f 89/89/18 65/65/18 90/90/18
f 87/87/18 88/88/18 91/91/18
f 91/91/18 88/88/18 92/92/18
f 89/89/18 90/90/18 93/93/18
f 93/93/18 90/90/18 77/77/18
f 77/77/18 90/90/18 80/80/18
f 80/80/18 90/90/18 94/94/18
f 80/80/18 94/94/18 95/95/18
f 70/70/19 96/96/19 71/71/19
f 71/71/19 96/96/19 97/97/19
f 70/70/3 69/69/3 96/96/3
f 96/96/3 69/69/3 98/98/3
f 98/98/3 69/69/3 91/91/3
f 91/91/3 69/69/3 87/87/3
f 54/54/20 62/62/20 55/55/20
f 55/55/20 62/62/20 89/89/20
f 89/89/20 62/62/20 88/88/20
f 88/88/20 62/62/20 99/99/20
f 88/88/20 99/99/20 100/100/20
f 62/62/4 43/43/4 99/99/4
f 99/99/4 43/43/4 101/101/4
f 101/101/4 43/43/4 102/102/21
f 102/102/21 43/43/4 45/45/4
f 58/58/5 42/42/5 61/61/5
f 61/61/5 42/42/5 103/103/5
f 103/103/5 42/42/5 23/23/22
f 23/23/22 42/42/5 22/22/23
f 104/104/2 105/105/2 106/106/2
f 106/106/2 105/105/2 107/107/2
f 106/106/15 108/108/15 104/104/15
f 104/104/15 108/108/15 109/109/15
f 108/108/1 110/110/1 109/109/1
f 109/109/1 110/110/1 111/111/1
f 112/112/10 111/111/10 113/113/10
f 113/113/10 111/111/10 110/110/10
f 114/114/5 115/115/5 113/113/5
f 113/113/5 115/115/5 112/112/5
f 114/114/6 113/113/6 107/107/6
f 107/107/6 113/113/6 106/106/6
f 106/106/6 113/113/6 108/108/6
f 108/108/6 113/113/6 110/110/6
f 105/105/20 104/104/20 116/116/20
f 116/116/20 104/104/20 117/117/20
f 118/118/2 119/119/2 120/120/2
f 120/120/2 119/119/2 121/121/2
f 120/120/15 122/122/15 118/118/15
f 118/118/15 122/122/15 123/123/15
f 122/122/1 124/124/1 123/123/1
f 123/123/1 124/124/1 125/125/1
f 126/126/10 125/125/10 127/127/10
f 127/127/10 125/125/10 124/124/10
f 128/128/5 129/129/5 127/127/5
f 127/127/5 129/129/5 126/126/5
f 128/128/6 127/127/6 121/121/6
f 121/121/6 127/127/6 120/120/6
f 120/120/6 127/127/6 122/122/6
f 122/122/6 127/127/6 124/124/6
f 128/128/11 121/121/11 129/129/11
f 129/129/11 121/121/11 119/119/11
f 129/129/11 119/119/11 130/130/11
f 130/130/11 119/119/11 131/131/11
f 104/104/24 109/109/24 117/117/24
f 117/117/24 109/109/24 132/132/24
f 109/109/18 111/111/18 132/132/18
f 132/132/18 111/111/18 133/133/18
f 111/111/25 112/112/25 133/133/25
f 133/133/25 112/112/25 134/134/25
f 118/118/24 123/123/24 135/135/24
f 135/135/24 123/123/24 136/136/24
f 123/123/18 125/125/18 136/136/18
f 136/136/18 125/125/18 137/137/18
f 125/125/25 126/126/25 137/137/25
f 137/137/25 126/126/25 138/138/25
f 119/119/20 118/118/20 131/131/20
f 131/131/20 118/118/20 135/135/20
f 126/126/26 129/129/26 138/138/26
f 138/138/26 129/129/26 130/130/26
f 112/112/26 115/115/26 134/134/26
f 134/134/26 115/115/26 139/139/26
f 114/114/11 107/107/11 115/115/11
f 115/115/11 107/107/11 105/105/11
f 115/115/11 105/105/11 139/139/11
f 139/139/11 105/105/11 116/116/11
f 140/140/4 141/141/4 142/142/4
f 142/142/4 141/141/4 143/143/4
f 143/143/27 141/141/27 144/144/27
f 144/144/27 141/141/27 15/15/27
f 144/144/27 15/15/27 31/31/27
f 142/142/28 145/145/28 140/140/28
f 140/140/28 145/145/28 16/16/28
f 16/16/28 145/145/28 12/12/28
f 141/141/11 140/140/11 15/15/11
f 15/15/11 140/140/11 16/16/11
f 146/146/1 147/147/1 148/148/1
f 148/148/1 147/147/1 149/149/1
f 149/149/29 147/147/29 150/150/29
f 150/150/29 147/147/29 35/35/29
f 150/150/29 35/35/29 18/18/29
f 148/148/30 151/151/30 146/146/30
f 146/146/30 151/151/30 34/34/30
f 34/34/30 151/151/30 33/33/30
f 145/145/20 150/150/20 12/12/20
f 12/12/20 150/150/20 18/18/20
f 147/147/18 146/146/18 35/35/18
f 35/35/18 146/146/18 34/34/18
f 142/142/31 149/149/31 145/145/31
f 145/145/31 149/149/31 150/150/31
f 131/131/6 143/143/6 130/130/6
f 139/139/6 142/142/6 131/131/6
f 139/139/6 131/131/6 135/135/6
f 142/142/6 143/143/6 131/131/6
f 130/130/6 143/143/6 148/148/6
f 130/130/6 148/148/6 138/138/6
f 138/138/6 148/148/6 137/137/6
f 137/137/6 148/148/6 136/136/6
f 136/136/6 148/148/6 149/149/6
f 136/136/6 149/149/6 133/133/6
f 136/136/6 133/133/6 135/135/6
f 135/135/6 133/133/6 134/134/6
f 135/135/6 134/134/6 139/139/6
f 116/116/6 142/142/6 139/139/6
f 116/116/6 149/149/6 142/142/6
f 133/133/6 149/149/6 132/132/6
f 132/132/6 149/149/6 117/117/6
f 117/117/6 149/149/6 116/116/6
f 144/144/32 151/151/32 143/143/32
f 143/143/32 151/151/32 148/148/32
f 31/31/26 33/33/26 144/144/26
f 144/144/26 33/33/26 151/151/26
f 86/86/33 72/72/33 78/78/33
f 78/78/33 72/72/33 74/74/33
f 82/82/34 152/152/34 79/79/34
f 79/79/34 152/152/34 85/85/34
f 81/81/35 153/153/35 82/82/35
f 82/82/35 153/153/35 152/152/35
f 81/81/34 83/83/34 153/153/34
f 153/153/34 83/83/34 154/154/34
f 84/84/35 155/155/35 83/83/35
f 83/83/35 155/155/35 154/154/35
f 85/85/36 152/152/36 19/19/36
f 19/19/36 152/152/36 17/17/19
f 152/152/11 153/153/11 17/17/11
f 17/17/11 153/153/11 20/20/11
f 153/153/19 154/154/19 20/20/19
f 20/20/19 154/154/19 21/21/19
f 154/154/11 155/155/11 21/21/11
f 21/21/11 155/155/11 23/23/11
f 23/23/11 155/155/11 103/103/11
f 80/80/37 95/95/37 84/84/37
f 84/84/37 95/95/37 103/103/38
f 84/84/37 103/103/38 155/155/39
f 26/26/1 76/76/1 27/27/1
f 27/27/1 76/76/1 75/75/40
f 41/41/15 76/76/15 24/24/15
f 24/24/15 76/76/15 26/26/15
f 57/57/26 93/93/26 60/60/26
f 60/60/26 93/93/26 77/77/26
f 100/100/41 99/99/41 156/156/41
f 156/156/41 99/99/41 101/101/41
f 102/102/3 157/157/3 101/101/3
f 101/101/3 157/157/3 158/158/3
f 159/159/11 102/102/11 47/47/11
f 47/47/11 102/102/11 45/45/11
f 53/53/6 56/56/6 48/48/6
f 48/48/6 56/56/6 90/90/6
f 48/48/6 90/90/6 67/67/6
f 67/67/6 97/97/6 48/48/6
f 97/97/6 49/49/6 48/48/6
f 67/67/6 90/90/6 65/65/6
f 71/71/6 97/97/6 67/67/6
f 160/160/6 161/161/6 97/97/6
f 97/97/6 161/161/6 49/49/6
f 160/160/6 159/159/6 161/161/6
f 161/161/6 159/159/6 162/162/6
f 162/162/6 159/159/6 46/46/6
f 46/46/6 159/159/6 47/47/6
f 159/159/19 160/160/19 102/102/19
f 102/102/19 160/160/19 157/157/19
f 96/96/11 157/157/11 97/97/11
f 97/97/11 157/157/11 160/160/11
f 163/163/6 164/164/6 165/165/6
f 165/165/6 164/164/6 166/166/6
f 166/166/6 164/164/6 92/92/6
f 164/164/6 167/167/6 92/92/6
f 166/166/6 92/92/6 168/168/6
f 168/168/6 92/92/6 169/169/6
f 92/92/6 88/88/6 169/169/6
f 168/168/6 169/169/6 170/170/6
f 170/170/6 171/171/6 168/168/6
f 169/169/6 88/88/6 172/172/6
f 172/172/6 88/88/6 100/100/6
f 172/172/6 100/100/6 156/156/6
f 164/164/41 173/173/41 167/167/41
f 167/167/41 173/173/41 98/98/41
f 91/91/42 92/92/42 98/98/42
f 98/98/42 92/92/42 167/167/42
f 158/158/4 157/157/4 174/174/4
f 174/174/4 157/157/4 175/175/4
f 96/96/4 173/173/4 157/157/4
f 157/157/4 173/173/4 176/176/4
f 157/157/4 176/176/4 175/175/4
f 174/174/4 175/175/4 170/170/4
f 170/170/4 175/175/4 171/171/4
f 173/173/4 165/165/4 176/176/4
f 96/96/4 98/98/4 173/173/4
f 163/163/4 165/165/4 173/173/4
f 176/176/20 165/165/20 166/166/20
f 174/174/41 169/169/41 158/158/41
f 158/158/41 169/169/41 172/172/41
f 168/168/41 175/175/41 166/166/41
f 166/166/41 175/175/41 176/176/41
f 171/171/26 175/175/26 168/168/26
f 163/163/26 173/173/26 164/164/26
f 174/174/20 170/170/20 169/169/20
f 172/172/42 156/156/42 158/158/42
f 158/158/42 156/156/42 101/101/42
f 59/59/2 94/94/2 56/56/2
f 56/56/2 94/94/2 90/90/2
f 95/95/6 94/94/6 103/103/6
f 103/103/6 94/94/6 59/59/6
f 103/103/6 59/59/6 61/61/6
f 44/44/10 63/63/10 46/46/10
f 46/46/10 63/63/10 162/162/10
f 161/161/1 162/162/1 64/64/1
f 64/64/1 162/162/1 63/63/43
f 161/161/10 64/64/10 49/49/10
f 49/49/10 64/64/10 51/51/10
f 57/57/44 55/55/44 93/93/44
f 93/93/44 55/55/44 89/89/44
# h3dt: 176 176 44 348
