# File produced by Open Asset Import Library (http://www.assimp.sf.net)
# (assimp v3.1.187496374)

mtllib Wall.obj.mtl

# 176 vertex positions
v  -0.31 0.05 -0.24
v  -0.14 0.05 -0.24
v  -0.3 0.04 -0.25
v  -0.15 0.04 -0.25
v  -0.14 0.05 -0.51
v  -0.15 0.04 -0.5
v  -0.3 0.04 -0.45
v  -0.25 0.04 -0.5
v  -0.31 0.05 -0.454142
v  -0.254142 0.05 -0.51
v  -0.204142 0.05 -0.91
v  -0.3 0.05 -1.85053
v  -0.31 0.05 -0.804142
v  -0.14 0.05 -0.91
v  -0.15118 0.05 -1.85
v  -0.29882 0.05 -1.85
v  -0.5 0.05 -1.85
v  -0.3 0.05 -1.94947
v  -0.38 0.05 -1.97
v  -0.75 0.05 -1.85
v  -0.85 0.05 -1.75
v  -0.9 0.05 -0.0217157
v  -0.9 0.05 -1.75
v  -0.328284 0.05 -0.0217157
v  -0.31 0.05 -0.59
v  -0.25 0.05 -0.1
v  -0.15 0.05 -0.1
v  -0.05 0.05 -0.2
v  -0.14 0.05 -0.59
v  -0.05 0.05 -1.95
v  -0.15 0.05 -1.85053
v  -0.07 0.05 -1.97
v  -0.15 0.05 -1.94947
v  -0.15118 0.05 -1.95
v  -0.29882 0.05 -1.95
v  -0.2 0.04 -0.9
v  -0.3 0.04 -0.8
v  -0.3 0.04 -0.6
v  -0.15 0.04 -0.6
v  -0.15 0.04 -0.9
v  -0.32 0.07 -0.00171573
v  -0.92 0.07 -0.00171573
v  -1.97 0.07 -1.76
v  -1.97 0.07 -0.191716
v  -1.96 0.06 -1.75
v  -1.95 0.05 -0.2
v  -1.95 0.05 -1.75
v  -1.33 0.05 -0.03
v  -1.68 0.05 -0.03
v  -1.33828 0.07 -0.01
v  -1.68828 0.07 -0.01
v  -1.32828 0.07 0
v  -1.3 0.05 0
v  -2 0.07 0
v  -2 0 0
v  -1.1 0.05 0
v  0 0 0
v  -0.92 0.07 0
v  -1.07 0.08 0
v  0 0.07 0
v  -0.93 0.08 0
v  -2 0.07 -1.76
v  -1.85828 0.07 -0.08
v  -1.75828 0.07 -0.08
v  -1.3 0.05 -2
v  -1.32828 0.07 -2
v  -1.33 0.05 -1.97
v  -1.33828 0.07 -1.99
v  -1.37414 0.07 -1.99
v  -1.37 0.06 -1.98
v  -1.38 0.05 -1.97
v  -0.045 0.055 -1.945
v  -0.03 0.07 -0.191716
v  -0.03 0.07 -1.95121
v  -0.141716 0.07 -0.08
v  -0.241716 0.07 -0.08
v  0 0.07 -2
v  -0.0687868 0.07 -1.99
v  -0.416569 0.07 -1.99
v  -0.9 0.07 -2
v  -0.766569 0.07 -1.89
v  -0.516569 0.07 -1.89
v  -0.866569 0.07 -1.79
v  -0.9 0.07 -1.79
v  -0.37 0.06 -1.98
v  -0.075 0.055 -1.975
v  -1.36414 0.07 -2
v  -2 0.09 -2
v  -2 0 -2
v  -1.1 0.05 -2
v  -1.37828 0.08 -2
v  -1.40657 0.09 -2
v  0 0 -2
v  -1.07 0.08 -2
v  -0.93 0.08 -2
v  -1.5 0.06 -1.85
v  -1.5 0.05 -1.85
v  -1.50828 0.08 -1.87
v  -2 0.08 -1.77
v  -2 0.09 -1.79
v  -1.85828 0.08 -1.77
v  -1.85 0.06 -1.75
v  -0.93 0.08 -1.75
v  -0.26 0.095 -1.93
v  -0.26 0.095 -1.92
v  -0.255 0.1 -1.92793
v  -0.255 0.1 -1.92
v  -0.252929 0.1 -1.93
v  -0.255 0.095 -1.935
v  -0.237071 0.1 -1.93
v  -0.235 0.095 -1.935
v  -0.23 0.095 -1.93
v  -0.235 0.1 -1.92793
v  -0.235 0.1 -1.92
v  -0.23 0.095 -1.92
v  -0.26 0.07 -1.92
v  -0.26 0.07 -1.93
v  -0.22 0.095 -1.93
v  -0.22 0.095 -1.92
v  -0.215 0.1 -1.92793
v  -0.215 0.1 -1.92
v  -0.212929 0.1 -1.93
v  -0.215 0.095 -1.935
v  -0.197071 0.1 -1.93
v  -0.195 0.095 -1.935
v  -0.19 0.095 -1.93
v  -0.195 0.1 -1.92793
v  -0.195 0.1 -1.92
v  -0.19 0.095 -1.92
v  -0.19 0.07 -1.92
v  -0.22 0.07 -1.92
v  -0.255 0.07 -1.935
v  -0.235 0.07 -1.935
v  -0.23 0.07 -1.93
v  -0.22 0.07 -1.93
v  -0.215 0.07 -1.935
v  -0.195 0.07 -1.935
v  -0.19 0.07 -1.93
v  -0.23 0.07 -1.92
v  -0.26882 0.065 -1.85
v  -0.18118 0.065 -1.85
v  -0.27 0.07 -1.855
v  -0.18 0.07 -1.855
v  -0.15 0.055 -1.855
v  -0.3 0.055 -1.855
v  -0.18118 0.065 -1.95
v  -0.26882 0.065 -1.95
v  -0.18 0.07 -1.945
v  -0.27 0.07 -1.945
v  -0.3 0.055 -1.945
v  -0.15 0.055 -1.945
v  -0.5 0.06 -1.85
v  -0.75 0.06 -1.85
v  -0.85 0.06 -1.75
v  -0.87 0.06 -1.75
v  -1.86657 0.09 -1.79
v  -1.75 0.06 -1.85
v  -1.75828 0.08 -1.87
v  -1.85 0.05 -1.75
v  -1.75 0.05 -1.85
v  -1.75 0.05 -0.1
v  -1.85 0.05 -0.1
v  -1.61657 0.09 -1.88
v  -1.61657 0.09 -1.89
v  -1.65157 0.09 -1.88
v  -1.65157 0.09 -1.89
v  -1.51657 0.09 -1.89
v  -1.66657 0.09 -1.89
v  -1.69157 0.09 -1.89
v  -1.69157 0.09 -1.88
v  -1.66657 0.09 -1.88
v  -1.76657 0.09 -1.89
v  -1.61657 0.08 -1.87
v  -1.69157 0.08 -1.87
v  -1.66657 0.08 -1.87
v  -1.65157 0.08 -1.87

# 0 UV coordinates

# 44 vertex normals
vn 0 0.707107 -0.707107
vn -0.707107 0.707107 0
vn 0.5 0.707107 0.5
vn 0 0.707107 0.707107
vn 0.707107 0.707107 0
vn 0 1 0
vn 8.58213e-18 0.707107 -0.707107
vn 0.707107 0.707107 -3.08308e-18
vn -3.50467e-17 0.707107 -0.707107
vn 0.5 0.707107 -0.5
vn 0 0 1
vn -1.33626e-16 0.707107 0.707107
vn 2.83875e-16 0.707107 0.707107
vn 3.10652e-16 0.707107 0.707107
vn -0.5 0.707107 -0.5
vn -0.707107 6.89982e-15 0.707107
vn -0.707107 9.19976e-15 0.707107
vn -0 -0 -1
vn 0.707107 0 0.707107
vn -1 -0 -0
vn 4.13571e-17 0.707107 0.707107
vn 0.707107 0.707107 1.31554e-17
vn 0.707107 0.707107 -4.54234e-17
vn -0.707107 -0 -0.707107
vn 0.707107 0 -0.707107
vn 1 0 0
vn 0.316228 0.632456 0.707107
vn -0.316228 0.632456 0.707107
vn -0.316228 0.632456 -0.707107
vn 0.316228 0.632456 -0.707107
vn -0.447214 0.894427 0
vn 0.447214 0.894427 0
vn -0.5 0.707107 0.5
vn 0.171499 0.970142 0.171499
vn 0 0.970142 0.242536
vn 0.707107 5.89728e-16 0.707107
vn 0.316228 0.948683 0
vn 0.316228 0.948683 -2.81141e-16
vn 0.316228 0.948683 -7.28566e-16
vn 9.58308e-17 0.707107 -0.707107
vn 0 0.894427 0.447214
vn 0.316228 0.894427 0.316228
vn -9.81308e-17 0.707107 -0.707107
vn -0 -1 -0

# Mesh '<STL_BINARY>' with 348 faces
g <STL_BINARY>
usemtl DefaultMaterial
f  1//1 2//1 3//1
f  3//1 2//1 4//1
f  2//2 5//2 4//2
f  4//2 5//2 6//2
f  7//3 8//3 9//3
f  9//3 8//3 10//3
f  5//4 10//4 6//4
f  6//4 10//4 8//4
f  7//5 9//5 3//5
f  3//5 9//5 1//5
f  11//6 12//6 13//6
f  14//6 15//6 11//6
f  11//6 15//6 16//6
f  11//6 16//6 12//6
f  13//6 12//6 17//6
f  18//6 19//6 12//6
f  12//6 19//6 17//6
f  13//6 17//6 20//6
f  20//6 21//6 13//6
f  22//6 13//6 21//6
f  22//6 21//6 23//6
f  24//6 1//6 22//6
f  22//6 1//6 9//6
f  22//6 9//6 25//6
f  25//6 13//6 22//6
f  26//6 1//6 24//6
f  26//6 2//6 1//6
f  27//6 2//6 26//6
f  28//6 5//6 2//6
f  28//6 2//6 27//6
f  29//6 28//6 14//6
f  14//6 28//6 30//6
f  29//6 5//6 28//6
f  29//6 10//6 5//6
f  25//6 10//6 29//6
f  25//6 9//6 10//6
f  14//6 30//6 31//6
f  31//6 30//6 32//6
f  31//6 15//6 14//6
f  31//6 32//6 33//6
f  33//6 32//6 34//6
f  34//6 32//6 19//6
f  34//6 19//6 35//6
f  35//6 19//6 18//6
f  11//3 13//3 36//3
f  36//3 13//3 37//3
f  25//5 38//5 13//5
f  13//5 38//5 37//5
f  25//1 29//1 38//1
f  38//1 29//1 39//1
f  40//2 39//2 14//2
f  14//2 39//2 29//2
f  36//4 40//4 11//4
f  11//4 40//4 14//4
f  6//6 8//6 4//6
f  4//6 8//6 7//6
f  4//6 7//6 3//6
f  40//6 36//6 39//6
f  39//6 36//6 37//6
f  39//6 37//6 38//6
f  24//7 22//7 41//7
f  41//7 22//7 42//1
f  43//5 44//5 45//5
f  45//5 44//5 46//8
f  45//5 46//8 47//5
f  48//1 49//1 50//1
f  50//1 49//1 51//9
f  50//10 52//10 48//10
f  48//10 52//10 53//10
f  52//11 54//11 53//11
f  53//11 54//11 55//11
f  53//11 55//11 56//11
f  56//11 55//11 57//11
f  56//11 57//11 58//11
f  58//11 59//11 56//11
f  58//11 57//11 60//11
f  61//11 59//11 58//11
f  43//6 62//6 44//6
f  44//6 62//6 54//6
f  44//6 54//6 63//6
f  63//6 54//6 51//6
f  54//6 52//6 51//6
f  63//6 51//6 64//6
f  51//6 52//6 50//6
f  65//3 66//3 67//3
f  67//3 66//3 68//3
f  69//4 70//4 68//4
f  68//4 70//4 67//12
f  67//12 70//4 71//4
f  30//2 28//2 72//2
f  72//2 28//2 73//2
f  72//2 73//2 74//2
f  42//6 58//6 41//6
f  41//6 58//6 60//6
f  41//6 60//6 75//6
f  75//6 76//6 41//6
f  75//6 60//6 73//6
f  73//6 60//6 77//6
f  73//6 77//6 74//6
f  74//6 77//6 78//6
f  78//6 77//6 79//6
f  79//6 77//6 80//6
f  79//6 80//6 81//6
f  81//6 82//6 79//6
f  81//6 80//6 83//6
f  83//6 80//6 84//6
f  78//13 85//13 86//13
f  78//13 79//4 85//13
f  86//13 85//13 19//14
f  86//13 19//14 32//4
f  66//6 87//6 68//6
f  68//6 87//6 69//6
f  28//15 27//15 73//15
f  73//15 27//15 75//15
f  32//16 30//16 86//16
f  86//16 30//16 72//17
f  66//18 65//18 87//18
f  87//18 65//18 88//18
f  88//18 65//18 89//18
f  89//18 65//18 90//18
f  87//18 88//18 91//18
f  91//18 88//18 92//18
f  89//18 90//18 93//18
f  93//18 90//18 77//18
f  77//18 90//18 80//18
f  80//18 90//18 94//18
f  80//18 94//18 95//18
f  70//19 96//19 71//19
f  71//19 96//19 97//19
f  70//3 69//3 96//3
f  96//3 69//3 98//3
f  98//3 69//3 91//3
f  91//3 69//3 87//3
f  54//20 62//20 55//20
f  55//20 62//20 89//20
f  89//20 62//20 88//20
f  88//20 62//20 99//20
f  88//20 99//20 100//20
f  62//4 43//4 99//4
f  99//4 43//4 101//4
f  101//4 43//4 102//21
f  102//21 43//4 45//4
f  58//5 42//5 61//5
f  61//5 42//5 103//5
f  103//5 42//5 23//22
f  23//22 42//5 22//23
f  104//2 105//2 106//2
f  106//2 105//2 107//2
f  106//15 108//15 104//15
f  104//15 108//15 109//15
f  108//1 110//1 109//1
f  109//1 110//1 111//1
f  112//10 111//10 113//10
f  113//10 111//10 110//10
f  114//5 115//5 113//5
f  113//5 115//5 112//5
f  114//6 113//6 107//6
f  107//6 113//6 106//6
f  106//6 113//6 108//6
f  108//6 113//6 110//6
f  105//20 104//20 116//20
f  116//20 104//20 117//20
f  118//2 119//2 120//2
f  120//2 119//2 121//2
f  120//15 122//15 118//15
f  118//15 122//15 123//15
f  122//1 124//1 123//1
f  123//1 124//1 125//1
f  126//10 125//10 127//10
f  127//10 125//10 124//10
f  128//5 129//5 127//5
f  127//5 129//5 126//5
f  128//6 127//6 121//6
f  121//6 127//6 120//6
f  120//6 127//6 122//6
f  122//6 127//6 124//6
f  128//11 121//11 129//11
f  129//11 121//11 119//11
f  129//11 119//11 130//11
f  130//11 119//11 131//11
f  104//24 109//24 117//24
f  117//24 109//24 132//24
f  109//18 111//18 132//18
f  132//18 111//18 133//18
f  111//25 112//25 133//25
f  133//25 112//25 134//25
f  118//24 123//24 135//24
f  135//24 123//24 136//24
f  123//18 125//18 136//18
f  136//18 125//18 137//18
f  125//25 126//25 137//25
f  137//25 126//25 138//25
f  119//20 118//20 131//20
f  131//20 118//20 135//20
f  126//26 129//26 138//26
f  138//26 129//26 130//26
f  112//26 115//26 134//26
f  134//26 115//26 139//26
f  114//11 107//11 115//11
f  115//11 107//11 105//11
f  115//11 105//11 139//11
f  139//11 105//11 116//11
f  140//4 141//4 142//4
f  142//4 141//4 143//4
f  143//27 141//27 144//27
f  144//27 141//27 15//27
f  144//27 15//27 31//27
f  142//28 145//28 140//28
f  140//28 145//28 16//28
f  16//28 145//28 12//28
f  141//11 140//11 15//11
f  15//11 140//11 16//11
f  146//1 147//1 148//1
f  148//1 147//1 149//1
f  149//29 147//29 150//29
f  150//29 147//29 35//29
f  150//29 35//29 18//29
f  148//30 151//30 146//30
f  146//30 151//30 34//30
f  34//30 151//30 33//30
f  145//20 150//20 12//20
f  12//20 150//20 18//20
f  147//18 146//18 35//18
f  35//18 146//18 34//18
f  142//31 149//31 145//31
f  145//31 149//31 150//31
f  131//6 143//6 130//6
f  139//6 142//6 131//6
f  139//6 131//6 135//6
f  142//6 143//6 131//6
f  130//6 143//6 148//6
f  130//6 148//6 138//6
f  138//6 148//6 137//6
f  137//6 148//6 136//6
f  136//6 148//6 149//6
f  136//6 149//6 133//6
f  136//6 133//6 135//6
f  135//6 133//6 134//6
f  135//6 134//6 139//6
f  116//6 142//6 139//6
f  116//6 149//6 142//6
f  133//6 149//6 132//6
f  132//6 149//6 117//6
f  117//6 149//6 116//6
f  144//32 151//32 143//32
f  143//32 151//32 148//32
f  31//26 33//26 144//26
f  144//26 33//26 151//26
f  86//33 72//33 78//33
f  78//33 72//33 74//33
f  82//34 152//34 79//34
f  79//34 152//34 85//34
f  81//35 153//35 82//35
f  82//35 153//35 152//35
f  81//34 83//34 153//34
f  153//34 83//34 154//34
f  84//35 155//35 83//35
f  83//35 155//35 154//35
f  85//36 152//36 19//36
f  19//36 152//36 17//19
f  152//11 153//11 17//11
f  17//11 153//11 20//11
f  153//19 154//19 20//19
f  20//19 154//19 21//19
f  154//11 155//11 21//11
f  21//11 155//11 23//11
f  23//11 155//11 103//11
f  80//37 95//37 84//37
f  84//37 95//37 103//38
f  84//37 103//38 155//39
f  26//1 76//1 27//1
f  27//1 76//1 75//40
f  41//15 76//15 24//15
f  24//15 76//15 26//15
f  57//26 93//26 60//26
f  60//26 93//26 77//26
f  100//41 99//41 156//41
f  156//41 99//41 101//41
f  102//3 157//3 101//3
f  101//3 157//3 158//3
f  159//11 102//11 47//11
f  47//11 102//11 45//11
f  53//6 56//6 48//6
f  48//6 56//6 90//6
f  48//6 90//6 67//6
f  67//6 97//6 48//6
f  97//6 49//6 48//6
f  67//6 90//6 65//6
f  71//6 97//6 67//6
f  160//6 161//6 97//6
f  97//6 161//6 49//6
f  160//6 159//6 161//6
f  161//6 159//6 162//6
f  162//6 159//6 46//6
f  46//6 159//6 47//6
f  159//19 160//19 102//19
f  102//19 160//19 157//19
f  96//11 157//11 97//11
f  97//11 157//11 160//11
f  163//6 164//6 165//6
f  165//6 164//6 166//6
f  166//6 164//6 92//6
f  164//6 167//6 92//6
f  166//6 92//6 168//6
f  168//6 92//6 169//6
f  92//6 88//6 169//6
f  168//6 169//6 170//6
f  170//6 171//6 168//6
f  169//6 88//6 172//6
f  172//6 88//6 100//6
f  172//6 100//6 156//6
f  164//41 173//41 167//41
f  167//41 173//41 98//41
f  91//42 92//42 98//42
f  98//42 92//42 167//42
f  158//4 157//4 174//4
f  174//4 157//4 175//4
f  96//4 173//4 157//4
f  157//4 173//4 176//4
f  157//4 176//4 175//4
f  174//4 175//4 170//4
f  170//4 175//4 171//4
f  173//4 165//4 176//4
f  96//4 98//4 173//4
f  163//4 165//4 173//4
f  176//20 165//20 166//20
f  174//41 169//41 158//41
f  158//41 169//41 172//41
f  168//41 175//41 166//41
f  166//41 175//41 176//41
f  171//26 175//26 168//26
f  163//26 173//26 164//26
f  174//20 170//20 169//20
f  172//42 156//42 158//42
f  158//42 156//42 101//42
f  59//2 94//2 56//2
f  56//2 94//2 90//2
f  95//6 94//6 103//6
f  103//6 94//6 59//6
f  103//6 59//6 61//6
f  44//10 63//10 46//10
f  46//10 63//10 162//10
f  161//1 162//1 64//1
f  64//1 162//1 63//43
f  161//10 64//10 49//10
f  49//10 64//10 51//10
f  57//44 55//44 93//44
f  93//44 55//44 89//44

