# author: headus 3D tools
#  using: ply2obj v1.11
#   from: uvlayout v2.10.03
# 93 vertices
v -0.0328824 0.0993714 -1.1456000
v -0.0328824 0.0293714 -1.1456000
v -0.0428824 0.0964304 -1.1356001
v -0.0428824 0.0216997 -1.1356001
v -0.0328824 0.1717779 -1.0989800
v -0.0428824 0.1643649 -1.0918601
v -0.0428824 0.1900000 -1.0482801
v -0.0328824 0.2042810 -1.0437201
v -0.0428824 0.1900000 -0.5000001
v -0.0428824 0.0600000 -0.8130441
v -0.0428824 0.0600000 -0.5900000
v -0.0428824 0.0600000 -0.4100000
v -0.0428824 0.0600000 -0.1869560
v -0.0428824 0.1900000 0.0482770
v -0.0428824 0.0150000 -0.8775610
v -0.0428824 0.0150000 -1.1268701
v -0.0428824 0.0150000 -0.1224391
v -0.0428824 0.0964304 0.1355998
v -0.0428824 0.1643649 0.0918568
v -0.0428824 0.0150000 0.1268669
v -0.0428824 0.0216997 0.1355998
v -0.0428824 0.0400000 -0.5398821
v -0.0428824 0.0400000 -0.4601181
v 0.2876180 0.0216997 -1.1356001
v 0.2876180 0.0150000 -1.1268701
v 0.2776179 0.0293714 -1.1456000
v 0.2776179 0.0993714 -1.1456000
v -0.0328824 0.1717779 0.0989769
v -0.0328824 0.0993714 0.1456001
v -0.0328824 0.0293714 0.1456001
v -0.0328824 0.2042810 0.0437218
v 0.2776179 0.1717779 0.0989769
v 0.1000000 0.2300000 -0.0000001
v 0.2776179 0.2300000 -0.0000001
v -0.0234061 0.2178149 0.0207143
v 0.2776179 0.0993714 0.1456001
v 0.2776179 0.0293714 0.1456001
v 0.2876180 0.0216997 0.1355998
v 0.2876180 0.0150000 0.1268669
v 0.2876180 0.0964304 -1.1356001
v 0.2776179 0.1717779 -1.0989800
v 0.2876180 0.1643649 -1.0918601
v 0.2776179 0.2300000 -1.0000001
v 0.2876180 0.2200000 -0.9972771
v 0.2876180 0.2200000 -0.0027229
v 0.2876180 0.1643649 0.0918568
v 0.2876180 0.0964304 0.1355998
v 0.1000000 0.2300000 -1.0000001
v -0.0234061 0.2178149 -1.0207101
v 0.1676180 0.1900000 -1.0170000
v 0.2876180 0.2099999 -0.9830001
v 0.1676180 0.1900000 -0.5000001
v 0.2876180 0.2099999 -0.0170000
v 0.1676180 0.1900000 0.0170000
v 0.2876180 0.0293714 0.1176001
v 0.2876180 0.0993714 0.1176001
v 0.2876180 0.0150000 -0.0000001
v 0.2876180 0.0300000 -0.0000001
v 0.2876180 0.1500000 0.0850002
v 0.2876180 0.1500000 -1.0850001
v 0.2876180 0.0993714 -1.1176001
v 0.2876180 0.0293714 -1.1176001
v 0.2876180 0.0300000 -1.0000001
v 0.2876180 0.0150000 -1.0000001
v -0.0148824 0.1500000 0.0850002
v -0.0148824 0.1900000 0.0170000
v -0.0148824 0.0993714 0.1176001
v -0.0148824 0.0293714 0.1176001
v -0.0148824 0.0300000 -0.0000001
v -0.0289412 0.0150000 -0.0000001
v -0.0150001 0.0300000 -0.0000001
v -0.0150001 0.1900000 -0.0000001
v -0.0148824 0.1900000 -0.0000001
v -0.0289412 0.0150000 -0.1224391
v -0.0148824 0.1900000 -1.0000001
v -0.0148824 0.0300000 -1.0000001
v -0.0148824 0.1900000 -1.0170000
v -0.0148824 0.1500000 -1.0850001
v -0.0148824 0.0993714 -1.1176001
v -0.0148824 0.0293714 -1.1176001
v -0.0150001 0.0600000 -0.8130441
v -0.0150001 0.0300000 -0.8560551
v -0.0289412 0.0150000 -0.8775610
v -0.0150001 0.0600000 -0.5900000
v -0.0150001 0.0400000 -0.5398821
v -0.0150001 0.0300000 -1.0000001
v -0.0289412 0.0150000 -1.0000001
v -0.0150001 0.1900000 -1.0000001
v -0.0150001 0.0600000 -0.1869560
v -0.0150001 0.0600000 -0.4100000
v -0.0150001 0.0400000 -0.4601181
v -0.0150001 0.0300000 -0.1439450
v -0.0234061 0.2178149 -0.5000001
# 61 normals
vn -0.707044 0.000000 -0.707044
vn -0.707044 0.382805 -0.594519
vn -0.707044 0.609412 -0.358451
vn -1.000000 0.000000 0.000000
vn 0.000000 -0.793353 -0.608619
vn 0.000000 -0.793353 -0.608619
vn 0.000000 -0.793353 -0.608619
vn 0.000000 0.000000 -1.000000
vn -0.707044 0.382805 0.594519
vn -0.707044 0.000000 0.707044
vn -0.707044 0.609412 0.358451
vn 0.000000 0.861930 0.506958
vn 0.000000 0.861930 0.506958
vn 0.000000 0.541293 0.840750
vn 0.000000 0.000000 1.000000
vn 0.000000 -0.793353 0.608619
vn 0.000000 -0.793353 0.608619
vn 0.000000 -0.793353 0.608619
vn 0.707044 0.000000 -0.707044
vn 0.707044 0.000000 -0.707044
vn 0.707044 0.382805 -0.594519
vn 0.707044 0.609412 -0.358451
vn 0.707044 0.707044 0.000000
vn 0.707044 0.707044 0.000000
vn 0.707044 0.609412 0.358451
vn 0.707044 0.382805 0.594519
vn 0.707044 0.000000 0.707044
vn 0.707044 0.000000 0.707044
vn 0.000000 1.000000 0.000000
vn 0.000000 0.861930 -0.506958
vn 0.000000 0.861930 -0.506958
vn 0.000000 0.861930 -0.506958
vn 0.000000 0.541293 -0.840750
vn 0.164317 -0.986327 0.000000
vn 1.000000 0.000000 0.000000
vn 0.000000 -0.861930 -0.506958
vn 0.000000 -0.861930 -0.506958
vn 0.000000 -0.541293 -0.840750
vn 0.000000 -0.541293 -0.840750
vn 0.000000 0.000000 -1.000000
vn 0.000000 0.999969 0.005280
vn 0.000000 0.999969 0.005280
vn 0.000000 -1.000000 0.000000
vn 0.000000 -1.000000 0.000000
vn 0.000000 -1.000000 0.000000
vn 0.000000 -0.820179 0.572056
vn 0.000000 -0.820179 0.572056
vn 0.000000 -0.820179 0.572056
vn 0.000000 -0.928707 -0.370598
vn 0.732406 -0.680706 0.000000
vn 0.000000 -1.000000 0.000000
vn 0.000000 -0.861930 0.506958
vn 0.000000 -0.861930 0.506958
vn 0.000000 -0.541293 0.840750
vn 0.000000 0.999969 -0.005280
vn 0.000000 -0.820179 -0.572056
vn 0.000000 -0.820179 -0.572056
vn 0.000000 -0.928707 0.370598
vn -0.098242 0.995117 0.000000
vn -0.819142 0.573491 0.000000
vn -0.819142 0.573491 0.000000
# 93 uv coords
vt -0.969743 -0.607575
vt -0.969743 -0.933156
vt -1.000000 -0.621254
vt -1.000000 -0.968839
vt -0.969743 -0.270800
vt -1.000000 -0.305280
vt -1.000000 -0.186047
vt -0.969743 -0.119623
vt -1.000000 -0.186047
vt -1.000000 -0.790698
vt -1.000000 -0.790698
vt -1.000000 -0.790698
vt -1.000000 -0.790698
vt -1.000000 -0.186047
vt -1.000000 -1.000000
vt -1.000000 -1.000000
vt -1.000000 -1.000000
vt -1.000000 -0.621254
vt -1.000000 -0.305280
vt -1.000000 -1.000000
vt -1.000000 -0.968839
vt -1.000000 -0.883721
vt -1.000000 -0.883721
vt 0.000000 -0.968839
vt 0.000000 -1.000000
vt -0.030257 -0.933156
vt -0.030257 -0.607575
vt -0.969743 -0.270800
vt -0.969743 -0.607575
vt -0.969743 -0.933156
vt -0.969743 -0.119623
vt -0.030257 -0.270800
vt -0.567679 0.000000
vt -0.030257 0.000000
vt -0.941070 -0.056675
vt -0.030257 -0.607575
vt -0.030257 -0.933156
vt 0.000000 -0.968839
vt 0.000000 -1.000000
vt 0.000000 -0.621254
vt -0.030257 -0.270800
vt 0.000000 -0.305280
vt -0.030257 0.000000
vt 0.000000 -0.046512
vt 0.000000 -0.046512
vt 0.000000 -0.305280
vt 0.000000 -0.621254
vt -0.567679 0.000000
vt -0.941070 -0.056675
vt -0.363086 -0.186047
vt 0.000000 -0.093024
vt -0.363086 -0.186047
vt 0.000000 -0.093024
vt -0.363086 -0.186047
vt 0.000000 -0.933156
vt 0.000000 -0.607575
vt 0.000000 -1.000000
vt 0.000000 -0.930233
vt 0.000000 -0.372093
vt 0.000000 -0.372093
vt 0.000000 -0.607575
vt 0.000000 -0.933156
vt 0.000000 -0.930233
vt 0.000000 -1.000000
vt -0.915280 -0.372093
vt -0.915280 -0.186047
vt -0.915280 -0.607575
vt -0.915280 -0.933156
vt -0.915280 -0.930233
vt -0.957818 -1.000000
vt -0.915636 -0.930233
vt -0.915636 -0.186047
vt -0.915280 -0.186047
vt -0.957818 -1.000000
vt -0.915280 -0.186047
vt -0.915280 -0.930233
vt -0.915280 -0.186047
vt -0.915280 -0.372093
vt -0.915280 -0.607575
vt -0.915280 -0.933156
vt -0.915636 -0.790698
vt -0.915636 -0.930233
vt -0.957818 -1.000000
vt -0.915636 -0.790698
vt -0.915636 -0.883721
vt -0.915636 -0.930233
vt -0.957818 -1.000000
vt -0.915636 -0.186047
vt -0.915636 -0.790698
vt -0.915636 -0.790698
vt -0.915636 -0.883721
vt -0.915636 -0.930233
vt -0.941070 -0.056675
# 182 polygons
usemtl DefaultMaterial
g <STL_BINARY>
f 1/1/1 2/2/1 3/3/1
f 3/3/1 2/2/1 4/4/1
f 1/1/2 3/3/2 5/5/2
f 5/5/2 3/3/2 6/6/2
f 6/6/3 7/7/3 5/5/3
f 5/5/3 7/7/3 8/8/3
f 9/9/4 7/7/4 10/10/4
f 10/10/4 11/11/4 9/9/4
f 9/9/4 11/11/4 12/12/4
f 9/9/4 12/12/4 13/13/4
f 14/14/4 9/9/4 13/13/4
f 10/10/4 7/7/4 6/6/4
f 10/10/4 6/6/4 3/3/4
f 10/10/4 3/3/4 15/15/4
f 15/15/4 3/3/4 4/4/4
f 15/15/4 4/4/4 16/16/4
f 17/17/4 18/18/4 13/13/4
f 13/13/4 18/18/4 19/19/4
f 13/13/4 19/19/4 14/14/4
f 20/20/4 21/21/4 17/17/4
f 17/17/4 21/21/4 18/18/4
f 11/11/4 22/22/4 12/12/4
f 12/12/4 22/22/4 23/23/4
f 16/16/5 4/4/5 24/24/5
f 24/24/5 25/25/6 16/16/5
f 24/24/5 4/4/5 2/2/7
f 24/24/5 2/2/7 26/26/6
f 2/2/8 1/1/8 26/26/8
f 26/26/8 1/1/8 27/27/8
f 19/19/9 18/18/9 28/28/9
f 28/28/9 18/18/9 29/29/9
f 21/21/10 30/30/10 18/18/10
f 18/18/10 30/30/10 29/29/10
f 31/31/11 14/14/11 28/28/11
f 28/28/11 14/14/11 19/19/11
f 28/28/12 32/32/12 31/31/12
f 31/31/12 32/32/12 33/33/12
f 32/32/12 34/34/12 33/33/12
f 31/31/12 33/33/12 35/35/13
f 28/28/14 29/29/14 32/32/14
f 32/32/14 29/29/14 36/36/14
f 29/29/15 30/30/15 36/36/15
f 36/36/15 30/30/15 37/37/15
f 37/37/16 30/30/16 38/38/16
f 38/38/16 30/30/16 21/21/17
f 38/38/16 21/21/17 20/20/17
f 20/20/17 39/39/18 38/38/16
f 24/24/19 26/26/19 40/40/19
f 40/40/19 26/26/19 27/27/20
f 27/27/21 41/41/21 40/40/21
f 40/40/21 41/41/21 42/42/21
f 43/43/22 44/44/22 41/41/22
f 41/41/22 44/44/22 42/42/22
f 43/43/23 34/34/23 44/44/23
f 44/44/23 34/34/23 45/45/24
f 46/46/25 45/45/25 32/32/25
f 32/32/25 45/45/25 34/34/25
f 46/46/26 32/32/26 47/47/26
f 47/47/26 32/32/26 36/36/26
f 36/36/27 37/37/27 47/47/27
f 47/47/27 37/37/27 38/38/28
f 43/43/29 48/48/29 34/34/29
f 34/34/29 48/48/29 33/33/29
f 5/5/30 8/8/30 41/41/30
f 41/41/30 8/8/30 48/48/31
f 8/8/30 49/49/32 48/48/31
f 41/41/30 48/48/31 43/43/30
f 1/1/33 5/5/33 27/27/33
f 27/27/33 5/5/33 41/41/33
f 50/50/34 51/51/34 52/52/34
f 52/52/34 51/51/34 53/53/34
f 52/52/34 53/53/34 54/54/34
f 38/38/35 55/55/35 47/47/35
f 38/38/35 39/39/35 55/55/35
f 47/47/35 55/55/35 56/56/35
f 55/55/35 39/39/35 57/57/35
f 55/55/35 57/57/35 58/58/35
f 47/47/35 56/56/35 59/59/35
f 47/47/35 59/59/35 46/46/35
f 46/46/35 59/59/35 53/53/35
f 46/46/35 53/53/35 45/45/35
f 45/45/35 53/53/35 51/51/35
f 45/45/35 51/51/35 44/44/35
f 44/44/35 51/51/35 42/42/35
f 42/42/35 51/51/35 60/60/35
f 42/42/35 60/60/35 40/40/35
f 40/40/35 60/60/35 61/61/35
f 40/40/35 61/61/35 62/62/35
f 24/24/35 40/40/35 62/62/35
f 63/63/35 64/64/35 62/62/35
f 62/62/35 64/64/35 25/25/35
f 62/62/35 25/25/35 24/24/35
f 53/53/36 59/59/36 54/54/36
f 54/54/36 59/59/36 65/65/37
f 54/54/36 65/65/37 66/66/37
f 59/59/38 56/56/38 65/65/38
f 65/65/38 56/56/38 67/67/39
f 56/56/40 55/55/40 67/67/40
f 67/67/40 55/55/40 68/68/40
f 55/55/41 58/58/41 68/68/41
f 68/68/41 58/58/41 69/69/42
f 58/58/8 57/57/8 69/69/8
f 69/69/8 57/57/8 70/70/8
f 69/69/8 70/70/8 71/71/8
f 71/71/8 72/72/8 69/69/8
f 69/69/8 72/72/8 73/73/8
f 57/57/43 39/39/43 70/70/43
f 70/70/43 39/39/43 20/20/43
f 70/70/43 20/20/43 17/17/44
f 17/17/44 74/74/45 70/70/43
f 75/75/35 76/76/35 77/77/35
f 77/77/35 76/76/35 78/78/35
f 78/78/35 76/76/35 79/79/35
f 79/79/35 76/76/35 80/80/35
f 81/81/46 10/10/46 82/82/46
f 82/82/46 10/10/46 83/83/47
f 83/83/47 10/10/46 15/15/48
f 81/81/43 84/84/43 10/10/43
f 10/10/43 84/84/43 11/11/43
f 84/84/49 85/85/49 11/11/49
f 11/11/49 85/85/49 22/22/49
f 82/82/50 83/83/50 86/86/50
f 86/86/50 83/83/50 87/87/50
f 64/64/43 87/87/43 25/25/43
f 25/25/43 87/87/43 16/16/43
f 16/16/43 87/87/43 15/15/51
f 15/15/51 87/87/43 83/83/45
f 63/63/15 76/76/15 64/64/15
f 64/64/15 76/76/15 87/87/15
f 87/87/15 76/76/15 86/86/15
f 86/86/15 76/76/15 75/75/15
f 86/86/15 75/75/15 88/88/15
f 51/51/52 50/50/52 60/60/52
f 60/60/52 50/50/52 78/78/53
f 78/78/53 50/50/52 77/77/53
f 61/61/54 60/60/54 79/79/54
f 79/79/54 60/60/54 78/78/54
f 62/62/15 61/61/15 80/80/15
f 80/80/15 61/61/15 79/79/15
f 63/63/55 62/62/55 76/76/55
f 76/76/55 62/62/55 80/80/55
f 72/72/35 84/84/35 88/88/35
f 71/71/35 89/89/35 72/72/35
f 72/72/35 89/89/35 90/90/35
f 72/72/35 90/90/35 84/84/35
f 88/88/35 84/84/35 81/81/35
f 84/84/35 90/90/35 85/85/35
f 88/88/35 81/81/35 86/86/35
f 86/86/35 81/81/35 82/82/35
f 85/85/35 90/90/35 91/91/35
f 71/71/35 92/92/35 89/89/35
f 77/77/43 50/50/43 75/75/43
f 75/75/43 50/50/43 52/52/43
f 75/75/43 52/52/43 73/73/43
f 73/73/43 72/72/43 75/75/43
f 75/75/43 72/72/43 88/88/43
f 73/73/43 52/52/43 54/54/43
f 73/73/43 54/54/43 66/66/43
f 73/73/35 66/66/35 69/69/35
f 69/69/35 66/66/35 65/65/35
f 69/69/35 65/65/35 67/67/35
f 67/67/35 68/68/35 69/69/35
f 89/89/56 92/92/56 13/13/56
f 13/13/56 92/92/56 74/74/56
f 13/13/56 74/74/56 17/17/57
f 90/90/43 89/89/43 12/12/43
f 12/12/43 89/89/43 13/13/43
f 91/91/58 90/90/58 23/23/58
f 23/23/58 90/90/58 12/12/58
f 85/85/43 91/91/43 22/22/43
f 22/22/43 91/91/43 23/23/43
f 92/92/50 71/71/50 74/74/50
f 74/74/50 71/71/50 70/70/50
f 49/49/59 93/93/59 48/48/59
f 48/48/59 93/93/59 33/33/59
f 33/33/59 93/93/59 35/35/59
f 7/7/60 9/9/60 8/8/60
f 8/8/60 9/9/60 93/93/61
f 14/14/60 31/31/60 9/9/60
f 9/9/60 31/31/60 93/93/61
f 8/8/60 93/93/61 49/49/60
f 31/31/60 35/35/60 93/93/61
# h3dt: 93 93 61 182
