# File produced by Open Asset Import Library (http://www.assimp.sf.net)
# (assimp v3.1.187496374)

mtllib CableSection.obj.mtl

# 134 vertex positions
v  -0.00226418 -0.00230259 -0.0110341
v  -0.00173492 -0.00189309 -0.0105407
v  -0.000858275 0.000770804 -0.0115028
v  0.000288399 0.00122136 -0.0111023
v  0.00265013 0.00222825 -0.0115028
v  0.000288399 0.00122136 -0.0103821
v  0.00384865 0.00227923 -0.0109437
v  0.00183114 0.00249241 -0.0100966
v  0.00521082 0.00248247 -0.0105653
v  -0.00125009 -0.00558431 -0.00997762
v  -0.00172566 -0.00563911 -0.0105653
v  0.000575774 -0.00811413 -0.0100966
v  0.00149907 -0.0080664 -0.00941747
v  0.0038644 -0.00889343 -0.00962781
v  0.00521004 -0.00817612 -0.00885585
v  0.00703174 -0.00771434 -0.00915906
v  0.00810534 -0.00585309 -0.00829424
v  0.00901022 -0.00497427 -0.00869031
v  0.00880237 -0.00220755 -0.00773263
v  0.00913297 -0.00159681 -0.00822156
v  0.00696878 0.00101908 -0.00717101
v  0.00735861 0.00127965 -0.00775281
v  0.00428521 0.00268555 -0.00728406
v  0.00348067 0.00228589 -0.0066094
v  0.000948698 0.00214703 -0.00681531
v  4.02947e-06 0.000987997 -0.00604778
v  -0.00152633 -0.000154402 -0.00634656
v  -0.00180065 -0.0022548 -0.00548617
v  -0.00230563 -0.00344302 -0.00587781
v  -0.00107115 -0.00589385 -0.00492455
v  -0.00112653 -0.00661037 -0.00540906
v  0.00184461 -0.0081909 -0.00436294
v  0.00161353 -0.00858885 -0.00494031
v  0.004991 -0.0087116 -0.00447156
v  0.00555428 -0.00804814 -0.00380132
v  0.00786745 -0.00693724 -0.00400281
v  0.00828562 -0.005533 -0.00323971
v  0.00927336 -0.00386384 -0.00353406
v  0.00873313 -0.00184657 -0.0026781
v  0.00873484 -0.000527326 -0.00306531
v  0.00668229 0.00124973 -0.00211648
v  0.0064334 0.0019477 -0.00259656
v  0.0031128 0.00227597 -0.00155487
v  0.00314478 0.002727 -0.00212781
v  -2.25619e-05 0.0015479 -0.00165906
v  -0.000269502 0.000741544 -0.000993252
v  -0.00200104 -0.00119216 -0.00119031
v  -0.00184826 -0.00262011 -0.000431637
v  -0.00212379 -0.00456963 -0.00072156
v  -0.000869387 -0.00620231 0.000129977
v  -0.000349433 -0.00744608 -0.00025281
v  0.00219874 -0.00829351 0.000691592
v  0.00272396 -0.00885199 0.00021594
v  0.00587166 -0.00790409 0.00125022
v  0.00606048 -0.00831346 0.00068469
v  0.0085355 -0.00601203 0.00115344
v  0.00844049 -0.00519852 0.00181482
v  0.00931481 -0.00272341 0.00162219
v  0.00863298 -0.00149203 0.00237643
v  0.00813571 0.000443934 0.00209094
v  0.00637584 0.00145383 0.00293805
v  0.00539564 0.00242241 0.00255969
v  0.00507122 0.00199312 0.00349719
v  0.00201818 0.00254516 0.00302844
v  0.00149318 0.00199364 0.00349719
v  -0.000858275 0.000770804 0.00349719
v  0.00793935 6.41343e-05 0.00349719
v  0.00863298 -0.00149203 0.00309669
v  0.00929956 -0.00252968 0.00349719
v  0.00844049 -0.00519852 0.00253508
v  0.00863046 -0.00584248 0.00302844
v  0.00588072 -0.00789967 0.00197197
v  0.00623363 -0.00822524 0.00255969
v  0.00291695 -0.00887483 0.00209094
v  0.00219874 -0.00829351 0.00141185
v  -0.00020166 -0.00757229 0.00162219
v  -0.000869387 -0.00620231 0.000850234
v  -0.00207104 -0.00475667 0.00115344
v  -0.00184826 -0.00262011 0.00028862
v  -0.0020611 -0.00137698 0.00068469
v  -0.000269502 0.000741544 -0.000272994
v  -0.000175176 0.00142759 0.00021594
v  0.0031128 0.00227597 -0.000834609
v  0.00295105 0.00271175 -0.00025281
v  0.00626385 0.00204265 -0.00072156
v  0.00668229 0.00124973 -0.00139622
v  0.00864661 -0.000354173 -0.00119031
v  0.00873313 -0.00184657 -0.00195784
v  0.0092962 -0.00367085 -0.00165906
v  0.00828562 -0.005533 -0.00251945
v  0.00799366 -0.00678947 -0.00212781
v  0.00555428 -0.00804814 -0.00308107
v  0.00517804 -0.00865885 -0.00259656
v  0.00184461 -0.0081909 -0.00364268
v  0.00179836 -0.0086489 -0.00306531
v  -0.00100622 -0.00676298 -0.00353406
v  -0.00107115 -0.00589385 -0.0042043
v  -0.00229038 -0.00363676 -0.00400281
v  -0.00180065 -0.0022548 -0.00476591
v  -0.00162128 -0.000323958 -0.00447156
v  4.02947e-06 0.000987997 -0.00532752
v  0.000775545 0.0020588 -0.00494031
v  0.00348067 0.00228589 -0.00588914
v  0.00409223 0.00270839 -0.00540906
v  0.00696878 0.00101908 -0.00645075
v  0.00721084 0.00140586 -0.00587781
v  0.00908022 -0.00140977 -0.00634656
v  0.00880237 -0.00220755 -0.00701237
v  0.00907027 -0.00478945 -0.00681531
v  0.00810534 -0.00585309 -0.00757398
v  0.00718435 -0.00759403 -0.00728406
v  0.00521004 -0.00817612 -0.0081356
v  0.00405813 -0.00887819 -0.00775281
v  0.00149907 -0.0080664 -0.00869721
v  0.00074533 -0.00820909 -0.00822156
v  -0.0012455 -0.00559307 -0.0092559
v  -0.00163743 -0.00581226 -0.00869031
v  -0.00228702 -0.00249558 -0.00915906
v  -0.00173492 -0.00189309 -0.00982044
v  -0.000984486 0.000623031 -0.00962781
v  0.00524705 0.00193552 -0.0115028
v  0.0080154 0.000596548 -0.0110341
v  0.00746935 0.000570332 -0.0115028
v  0.00929956 -0.00252968 -0.0115028
v  0.00842176 -0.00619922 0.00349719
v  -0.00230503 -0.00271388 0.00349719
v  -0.00131121 -0.00635372 0.00349719
v  0.0054783 -0.00855976 0.00349719
v  0.00170569 -0.00861965 0.00349719
v  0.00842176 -0.00619922 -0.0115028
v  0.0054783 -0.00855976 -0.0115028
v  0.00170569 -0.00861965 -0.0115028
v  -0.00131121 -0.00635372 -0.0115028
v  -0.00230503 -0.00271388 -0.0115028

# 0 UV coordinates

# 250 vertex normals
vn -0.770972 0.425016 0.474304
vn -0.443597 0.429982 0.786344
vn -0.382954 0.921859 0.0593542
vn -0.392179 0.919889 0
vn -0.210724 0.905166 0.369147
vn -0.282314 0.52326 -0.804051
vn -0.0447832 0.938342 -0.342794
vn -0.689874 0.0197783 0.723659
vn -0.775174 -0.0365085 0.630692
vn -0.6513 -0.497023 0.57339
vn -0.525325 -0.414094 0.743344
vn -0.265562 -0.866835 0.421989
vn -0.137467 -0.594629 0.792161
vn 0.283785 -0.897024 0.338842
vn 0.268082 -0.528807 0.805292
vn 0.726332 -0.585927 0.359348
vn 0.569231 -0.230423 0.789228
vn 0.876622 -0.0972624 0.471246
vn 0.64109 0.237273 0.729866
vn 0.706809 0.334415 0.623368
vn 0.409104 0.698612 0.587004
vn 0.33139 0.583919 0.741094
vn -0.0843479 0.898171 0.431479
vn -0.097457 0.603499 0.791386
vn -0.603997 0.719412 0.342978
vn -0.447257 0.388437 0.805654
vn -0.896274 0.263262 0.356911
vn -0.611949 -0.000614747 0.790897
vn -0.850483 -0.247952 0.463895
vn -0.501847 -0.457558 0.734023
vn -0.528058 -0.585621 0.614982
vn -0.111374 -0.796861 0.593809
vn -0.0856501 -0.671158 0.73635
vn 0.420318 -0.796307 0.435004
vn 0.32047 -0.524195 0.788998
vn 0.834224 -0.433575 0.34071
vn 0.562278 -0.190839 0.804627
vn 0.931551 0.101293 0.349216
vn 0.566132 0.231478 0.791146
vn 0.693898 0.559346 0.453473
vn 0.291391 0.610478 0.736484
vn 0.264195 0.750608 0.605631
vn -0.199939 0.775275 0.599143
vn -0.177183 0.658326 0.731582
vn -0.691124 0.574131 0.439
vn -0.497199 0.365004 0.787125
vn -0.936206 0.0814733 0.341879
vn -0.592824 -0.0358613 0.804533
vn -0.822352 -0.450673 0.34732
vn -0.435577 -0.426117 0.792904
vn -0.427404 -0.784558 0.449215
vn -0.0416352 -0.670243 0.740973
vn 0.0457312 -0.801883 0.595729
vn 0.471352 -0.632163 0.614977
vn 0.413472 -0.544813 0.729534
vn 0.852535 -0.266142 0.449837
vn 0.598794 -0.150295 0.786675
vn 0.893908 0.281098 0.349161
vn 0.534613 0.256086 0.805362
vn 0.587115 0.73045 0.348912
vn 0.504847 0.705305 0.497669
vn 0.09366 0.892548 0.441119
vn 9.42995e-05 0.647563 0.762012
vn -0.408147 0.784844 0.466301
vn 0.4988 0.741643 0.448513
vn 0.683041 0.602155 -0.413358
vn 0.913375 0.40712 0
vn 0.85484 0.448284 -0.261322
vn 0.609776 0.0876882 -0.787708
vn 0.871939 -0.108554 -0.47743
vn 0.568822 -0.387852 -0.725267
vn 0.605156 -0.484448 -0.631741
vn 0.234766 -0.783681 -0.575091
vn 0.181934 -0.643643 -0.743387
vn -0.294577 -0.857263 -0.422285
vn -0.238344 -0.562338 -0.791813
vn -0.757594 -0.559074 -0.336879
vn -0.528547 -0.27058 -0.804627
vn -0.933515 -0.0465599 -0.355502
vn -0.597275 0.148838 -0.788105
vn -0.767976 0.438376 -0.466948
vn -0.379866 0.570938 -0.727827
vn -0.375827 0.688538 -0.620217
vn 0.0807765 0.808408 -0.583054
vn 0.0760672 0.66913 -0.739242
vn 0.598571 0.67838 -0.426044
vn 0.435228 0.431589 -0.790131
vn 0.913544 0.226655 -0.337736
vn 0.591522 0.0507849 -0.804688
vn 0.880935 -0.314829 -0.353321
vn 0.495188 -0.361334 -0.79008
vn 0.542558 -0.701212 -0.462528
vn 0.13665 -0.665988 -0.733339
vn 0.0830236 -0.783962 -0.615232
vn -0.378345 -0.710204 -0.593687
vn -0.32492 -0.592638 -0.737026
vn -0.807239 -0.397068 -0.436694
vn -0.566357 -0.235427 -0.789819
vn -0.928461 0.138774 -0.344532
vn -0.565855 0.175383 -0.805636
vn -0.693219 0.627601 -0.354352
vn -0.321484 0.518215 -0.792529
vn -0.232774 0.857746 -0.458354
vn 0.121843 0.662965 -0.738669
vn 0.226079 0.760397 -0.608838
vn 0.614696 0.5085 -0.602973
vn 0.528425 0.427914 -0.733251
vn 0.894208 0.0589163 -0.443758
vn 0.615536 0.00371941 -0.7881
vn 0.804389 -0.483115 -0.345771
vn 0.458266 -0.376509 -0.805129
vn 0.40037 -0.847248 -0.349105
vn 0.102292 -0.600312 -0.793197
vn -0.115471 -0.886136 -0.448809
vn -0.360157 -0.566992 -0.740815
vn -0.509308 -0.622527 -0.594193
vn -0.754151 -0.234403 -0.613443
vn -0.656264 -0.197904 -0.728115
vn -0.847675 0.286978 -0.446196
vn -0.574136 0.231363 -0.785391
vn -0.558482 0.755028 -0.343556
vn 0.0109847 0.863882 -0.503574
vn 0.450545 0.778585 -0.436823
vn 0.437385 0.711989 -0.549333
vn 0.599373 0.353863 -0.718006
vn 0.106346 0.943452 -0.31399
vn -0.838577 0.544784 1.26231e-16
vn -0.838577 0.544784 0
vn -0.991484 -0.130228 -0
vn -0.991447 -0.130424 0.00471443
vn -0.668901 -0.743336 -0.0047737
vn -0.0295543 -0.999563 0
vn -0.670135 -0.74224 0
vn 0.625811 -0.779975 0
vn 0.982207 -0.1878 0
vn 0.869424 0.494066 0
vn 0.869424 0.494066 1.48743e-16
vn 0.341364 0.939931 0
vn 0.341364 0.939931 5.65951e-16
vn -0.349742 0.936846 6.33799e-16
vn -0.349742 0.936846 4.72996e-17
vn -0.873799 0.486287 0
vn -0.980493 -0.196554 0
vn -0.980493 -0.196554 2.95187e-16
vn -0.618835 -0.785521 3.16824e-16
vn -0.618835 -0.785521 0
vn 0.0384535 -0.99926 0
vn 0.677393 -0.735621 0
vn 0.992712 -0.120508 0
vn 0.992712 -0.120508 -3.62801e-17
vn 0.833707 0.552207 3.16653e-16
vn 0.833707 0.552207 0
vn 0.276311 0.961068 0
vn -0.413137 0.910669 0
vn -0.413137 0.910669 9.32842e-17
vn -0.90515 0.425092 3.1665e-16
vn -0.90515 0.425092 2.72504e-16
vn -0.964633 -0.263596 6.33367e-16
vn -0.964633 -0.263596 4.62639e-16
vn -0.563209 -0.826315 1.26691e-15
vn -0.563209 -0.826315 0
vn 0.105433 -0.994426 0
vn 0.105639 -0.994393 0.00476857
vn 0.726349 -0.687308 -0.00490312
vn 0.998654 -0.051862 0
vn 0.725196 -0.688542 0
vn 0 0 1
vn 1.02652e-15 -6.46691e-14 1
vn 2.84973e-12 -1.05697e-11 1
vn -1.19801e-12 -4.22658e-12 1
vn -1.32593e-11 5.50494e-12 1
vn 0.919761 0.38732 -0.0634198
vn 0.99697 -0.045035 0.0634198
vn 0.967525 -0.231443 -0.101633
vn 0.79993 -0.593157 0.090973
vn 0.620144 -0.773286 -0.132097
vn 0.331001 -0.936185 0.118307
vn 0.0156614 -0.98665 -0.162101
vn -0.247699 -0.957878 0.145309
vn -0.589437 -0.784788 -0.191499
vn -0.737446 -0.653172 0.17187
vn -0.943307 -0.190445 -0.271852
vn 0.853971 0.516442 0.0634198
vn 0.54957 0.833037 -0.0634198
vn 0.423131 0.903846 0.0634198
vn -0.00585944 0.99797 -0.0634198
vn -0.15033 0.9866 0.0634198
vn -0.559314 0.826526 -0.0634198
vn -0.67312 0.736809 0.0634198
vn -0.924246 0.376493 -0.0634198
vn -0.924368 -0.13037 0.358536
vn -0.701528 -0.709814 -0.0634198
vn -0.938315 -0.339917 0.0634198
vn -0.918537 0.16656 -0.358536
vn -0.591332 -0.80393 0.0634198
vn -0.188947 -0.979937 -0.0634198
vn -0.045035 -0.99697 0.0634198
vn 0.38732 -0.919761 -0.0634198
vn 0.516442 -0.853971 0.0634198
vn 0.833037 -0.54957 -0.0634198
vn 0.903846 -0.423131 0.0634198
vn 0.99797 0.00585944 -0.0634198
vn 0.9866 0.15033 0.0634198
vn 0.826526 0.559314 -0.0634198
vn 0.736809 0.67312 0.0634198
vn 0.376493 0.924246 -0.0634198
vn 0.238669 0.969028 0.0634198
vn -0.200441 0.977651 -0.0634198
vn -0.339917 0.938315 0.0634198
vn -0.709814 0.701528 -0.0634198
vn -0.80393 0.591332 0.0634198
vn -0.979937 0.188947 -0.0634198
vn -0.99697 0.045035 0.0634198
vn -0.919761 -0.38732 -0.0634198
vn -0.853971 -0.516442 0.0634198
vn -0.54957 -0.833037 -0.0634198
vn -0.423131 -0.903846 0.0634198
vn 0.00585944 -0.99797 -0.0634198
vn 0.15033 -0.9866 0.0634198
vn 0.559314 -0.826526 -0.0634198
vn 0.67312 -0.736809 0.0634198
vn 0.924246 -0.376493 -0.0634198
vn 0.969028 -0.238669 0.0634198
vn 0.977651 0.200441 -0.0634198
vn 0.938315 0.339917 0.0634198
vn 0.701528 0.709814 -0.0634198
vn 0.591332 0.80393 0.0634198
vn 0.188947 0.979937 -0.0634198
vn 0.045035 0.99697 0.0634198
vn -0.38732 0.919761 -0.0634198
vn -0.516442 0.853971 0.0634198
vn -0.833037 0.54957 -0.0634198
vn -0.918783 0.381456 0.101633
vn -0.995806 -0.00968735 -0.090973
vn -0.956233 -0.26109 0.132097
vn -0.818061 -0.562832 -0.118307
vn -0.592609 -0.789011 0.162101
vn -0.362634 -0.920534 -0.145309
vn 0.0155776 -0.981369 0.191499
vn 0.212681 -0.961887 -0.17187
vn 0.610277 -0.760982 0.220158
vn 0.710274 -0.675536 -0.197891
vn 0.942189 -0.225382 0.247959
vn -0.894723 0.371467 -0.247959
vn -0.920071 -0.251216 0.300599
vn -1.1598e-11 4.81522e-12 -1
vn 1.09303e-11 -1.77725e-11 -1
vn -5.93757e-12 9.62619e-12 -1
vn 1.34034e-13 -8.44394e-12 -1
vn 0 0 -1

# Mesh '<STL_BINARY>' with 264 faces
g <STL_BINARY>
usemtl DefaultMaterial
f  1//1 2//1 3//1
f  3//2 2//2 4//2
f  3//3 4//3 5//3
f  5//4 4//4 6//4
f  5//5 6//5 7//5
f  7//6 6//6 8//6
f  7//7 8//7 9//7
f  2//8 1//8 10//8
f  10//9 1//9 11//9
f  10//10 11//10 12//10
f  10//11 12//11 13//11
f  13//12 12//12 14//12
f  13//13 14//13 15//13
f  15//14 14//14 16//14
f  15//15 16//15 17//15
f  17//16 16//16 18//16
f  17//17 18//17 19//17
f  19//18 18//18 20//18
f  19//19 20//19 21//19
f  21//20 20//20 22//20
f  21//21 22//21 23//21
f  21//22 23//22 24//22
f  24//23 23//23 25//23
f  24//24 25//24 26//24
f  26//25 25//25 27//25
f  26//26 27//26 28//26
f  28//27 27//27 29//27
f  28//28 29//28 30//28
f  30//29 29//29 31//29
f  30//30 31//30 32//30
f  32//31 31//31 33//31
f  32//32 33//32 34//32
f  32//33 34//33 35//33
f  35//34 34//34 36//34
f  35//35 36//35 37//35
f  37//36 36//36 38//36
f  37//37 38//37 39//37
f  39//38 38//38 40//38
f  39//39 40//39 41//39
f  41//40 40//40 42//40
f  41//41 42//41 43//41
f  43//42 42//42 44//42
f  43//43 44//43 45//43
f  43//44 45//44 46//44
f  46//45 45//45 47//45
f  46//46 47//46 48//46
f  48//47 47//47 49//47
f  48//48 49//48 50//48
f  50//49 49//49 51//49
f  50//50 51//50 52//50
f  52//51 51//51 53//51
f  52//52 53//52 54//52
f  54//53 53//53 55//53
f  54//54 55//54 56//54
f  54//55 56//55 57//55
f  57//56 56//56 58//56
f  57//57 58//57 59//57
f  59//58 58//58 60//58
f  59//59 60//59 61//59
f  61//60 60//60 62//60
f  61//61 62//61 63//61
f  63//62 62//62 64//62
f  63//63 64//63 65//63
f  65//64 64//64 66//64
f  63//65 67//65 61//65
f  61//66 67//66 59//66
f  59//67 67//67 68//67
f  68//68 67//68 69//68
f  68//69 69//69 70//69
f  70//70 69//70 71//70
f  70//71 71//71 72//71
f  72//72 71//72 73//72
f  72//73 73//73 74//73
f  72//74 74//74 75//74
f  75//75 74//75 76//75
f  75//76 76//76 77//76
f  77//77 76//77 78//77
f  77//78 78//78 79//78
f  79//79 78//79 80//79
f  79//80 80//80 81//80
f  81//81 80//81 82//81
f  81//82 82//82 83//82
f  83//83 82//83 84//83
f  83//84 84//84 85//84
f  83//85 85//85 86//85
f  86//86 85//86 87//86
f  86//87 87//87 88//87
f  88//88 87//88 89//88
f  88//89 89//89 90//89
f  90//90 89//90 91//90
f  90//91 91//91 92//91
f  92//92 91//92 93//92
f  92//93 93//93 94//93
f  94//94 93//94 95//94
f  94//95 95//95 96//95
f  94//96 96//96 97//96
f  97//97 96//97 98//97
f  97//98 98//98 99//98
f  99//99 98//99 100//99
f  99//100 100//100 101//100
f  101//101 100//101 102//101
f  101//102 102//102 103//102
f  103//103 102//103 104//103
f  103//104 104//104 105//104
f  105//105 104//105 106//105
f  105//106 106//106 107//106
f  105//107 107//107 108//107
f  108//108 107//108 109//108
f  108//109 109//109 110//109
f  110//110 109//110 111//110
f  110//111 111//111 112//111
f  112//112 111//112 113//112
f  112//113 113//113 114//113
f  114//114 113//114 115//114
f  114//115 115//115 116//115
f  116//116 115//116 117//116
f  116//117 117//117 118//117
f  116//118 118//118 119//118
f  119//119 118//119 120//119
f  119//120 120//120 6//120
f  6//121 120//121 8//121
f  7//122 9//122 121//122
f  121//123 9//123 122//123
f  121//124 122//124 123//124
f  123//125 122//125 124//125
f  121//126 5//126 7//126
f  6//127 4//127 119//127
f  119//127 4//127 2//128
f  119//129 2//129 10//129
f  116//130 119//130 10//130
f  114//131 116//131 10//131
f  112//132 114//132 13//132
f  15//132 112//132 13//132
f  13//133 114//133 10//133
f  110//134 112//134 15//134
f  17//134 110//134 15//134
f  108//135 110//135 17//135
f  19//135 108//135 17//135
f  105//136 108//136 19//136
f  21//137 105//136 19//136
f  103//138 105//138 21//138
f  24//139 103//138 21//138
f  101//140 103//140 24//140
f  26//141 101//140 24//140
f  99//142 101//142 26//142
f  28//142 99//142 26//142
f  97//143 99//143 28//143
f  30//144 97//143 28//143
f  94//145 97//145 30//145
f  32//146 94//145 30//145
f  92//147 94//147 32//147
f  35//147 92//147 32//147
f  90//148 92//148 35//148
f  37//148 90//148 35//148
f  88//149 90//149 37//149
f  39//150 88//149 37//149
f  86//151 88//151 39//151
f  41//152 86//151 39//151
f  83//153 86//153 41//153
f  43//153 83//153 41//153
f  81//154 83//154 43//154
f  46//155 81//154 43//154
f  79//156 81//156 46//156
f  48//157 79//156 46//156
f  77//158 79//158 48//158
f  50//159 77//158 48//158
f  75//160 77//160 50//160
f  50//160 52//161 75//160
f  75//162 52//162 54//162
f  75//163 54//163 72//163
f  72//164 54//164 70//164
f  68//165 70//165 57//165
f  59//165 68//165 57//165
f  57//166 70//166 54//166
f  125//167 69//167 126//167
f  126//167 127//167 125//167
f  125//167 127//167 128//167
f  126//167 69//167 67//168
f  126//167 67//168 63//169
f  63//169 65//170 126//167
f  126//167 65//170 66//171
f  128//167 127//167 129//167
f  122//172 20//172 124//172
f  124//173 20//173 18//173
f  124//174 18//174 130//174
f  130//175 18//175 16//175
f  130//176 16//176 131//176
f  131//177 16//177 14//177
f  131//178 14//178 132//178
f  132//179 14//179 12//179
f  132//180 12//180 133//180
f  133//181 12//181 11//181
f  133//182 11//182 1//182
f  20//183 122//183 22//183
f  22//184 122//184 9//184
f  22//185 9//185 23//185
f  23//186 9//186 8//186
f  23//187 8//187 25//187
f  25//188 8//188 120//188
f  25//189 120//189 27//189
f  27//190 120//190 118//190
f  27//191 118//191 117//191
f  115//192 31//192 117//192
f  117//193 31//193 29//193
f  117//194 29//194 27//194
f  31//195 115//195 33//195
f  33//196 115//196 113//196
f  33//197 113//197 34//197
f  34//198 113//198 111//198
f  34//199 111//199 36//199
f  36//200 111//200 109//200
f  36//201 109//201 38//201
f  38//202 109//202 107//202
f  38//203 107//203 40//203
f  40//204 107//204 106//204
f  40//205 106//205 42//205
f  42//206 106//206 104//206
f  42//207 104//207 44//207
f  44//208 104//208 102//208
f  44//209 102//209 45//209
f  45//210 102//210 100//210
f  45//211 100//211 47//211
f  47//212 100//212 98//212
f  47//213 98//213 49//213
f  49//214 98//214 96//214
f  49//215 96//215 51//215
f  51//216 96//216 95//216
f  51//217 95//217 53//217
f  53//218 95//218 93//218
f  53//219 93//219 55//219
f  55//220 93//220 91//220
f  55//221 91//221 56//221
f  56//222 91//222 89//222
f  56//223 89//223 58//223
f  58//224 89//224 87//224
f  58//225 87//225 60//225
f  60//226 87//226 85//226
f  60//227 85//227 62//227
f  62//228 85//228 84//228
f  62//229 84//229 64//229
f  64//230 84//230 82//230
f  64//231 82//231 66//231
f  66//232 82//232 80//232
f  66//233 80//233 126//233
f  126//234 80//234 78//234
f  126//235 78//235 127//235
f  127//236 78//236 76//236
f  127//237 76//237 129//237
f  129//238 76//238 74//238
f  129//239 74//239 128//239
f  128//240 74//240 73//240
f  128//241 73//241 125//241
f  125//242 73//242 71//242
f  125//243 71//243 69//243
f  3//244 134//244 1//244
f  1//245 134//245 133//245
f  3//246 5//246 134//246
f  134//246 5//246 121//247
f  134//246 121//247 123//248
f  123//248 124//249 134//246
f  134//246 124//249 130//250
f  134//246 130//250 133//250
f  133//250 130//250 131//250
f  133//250 131//250 132//250

