# author: headus 3D tools
#  using: ply2obj v1.11
#   from: uvlayout v2.10.03
# 134 vertices
v -0.002264180 -0.002302590 -0.011034100
v -0.001734920 -0.001893090 -0.010540700
v -0.000858275 0.000770804 -0.011502799
v 0.000288398 0.001221360 -0.011102299
v 0.002650130 0.002228250 -0.011502799
v 0.000288398 0.001221360 -0.010382100
v 0.003848648 0.002279230 -0.010943700
v 0.001831140 0.002492408 -0.010096600
v 0.005210820 0.002482470 -0.010565300
v -0.001250090 -0.005584309 -0.009977621
v -0.001725662 -0.005639110 -0.010565300
v 0.000575774 -0.008114130 -0.010096600
v 0.001499069 -0.008066399 -0.009417470
v 0.003864400 -0.008893430 -0.009627810
v 0.005210040 -0.008176120 -0.008855850
v 0.007031739 -0.007714339 -0.009159061
v 0.008105341 -0.005853089 -0.008294240
v 0.009010221 -0.004974268 -0.008690311
v 0.008802368 -0.002207550 -0.007732630
v 0.009132970 -0.001596810 -0.008221560
v 0.006968780 0.001019080 -0.007171010
v 0.007358608 0.001279649 -0.007752810
v 0.004285210 0.002685550 -0.007284061
v 0.003480670 0.002285890 -0.006609400
v 0.000948698 0.002147030 -0.006815310
v 0.000004029 0.000987997 -0.006047780
v -0.001526331 -0.000154402 -0.006346561
v -0.001800651 -0.002254800 -0.005486170
v -0.002305629 -0.003443019 -0.005877810
v -0.001071150 -0.005893849 -0.004924551
v -0.001126530 -0.006610369 -0.005409060
v 0.001844610 -0.008190900 -0.004362940
v 0.001613529 -0.008588850 -0.004940310
v 0.004991000 -0.008711600 -0.004471560
v 0.005554280 -0.008048140 -0.003801320
v 0.007867450 -0.006937239 -0.004002810
v 0.008285621 -0.005532999 -0.003239711
v 0.009273359 -0.003863838 -0.003534060
v 0.008733130 -0.001846570 -0.002678100
v 0.008734840 -0.000527326 -0.003065311
v 0.006682290 0.001249730 -0.002116479
v 0.006433397 0.001947700 -0.002596560
v 0.003112799 0.002275970 -0.001554870
v 0.003144780 0.002726998 -0.002127810
v -0.000022562 0.001547900 -0.001659061
v -0.000269502 0.000741544 -0.000993252
v -0.002001040 -0.001192160 -0.001190310
v -0.001848261 -0.002620110 -0.000431637
v -0.002123791 -0.004569630 -0.000721559
v -0.000869387 -0.006202310 0.000129980
v -0.000349434 -0.007446079 -0.000252810
v 0.002198740 -0.008293509 0.000691593
v 0.002723960 -0.008851990 0.000215941
v 0.005871660 -0.007904090 0.001250220
v 0.006060478 -0.008313460 0.000684691
v 0.008535501 -0.006012030 0.001153440
v 0.008440490 -0.005198520 0.001814820
v 0.009314810 -0.002723409 0.001622190
v 0.008632980 -0.001492030 0.002376430
v 0.008135710 0.000443933 0.002090940
v 0.006375838 0.001453830 0.002938050
v 0.005395639 0.002422410 0.002559690
v 0.005071220 0.001993120 0.003497190
v 0.002018180 0.002545160 0.003028441
v 0.001493179 0.001993640 0.003497190
v -0.000858275 0.000770804 0.003497190
v 0.007939351 0.000064134 0.003497190
v 0.008632980 -0.001492030 0.003096690
v 0.009299563 -0.002529679 0.003497190
v 0.008440490 -0.005198520 0.002535080
v 0.008630460 -0.005842480 0.003028441
v 0.005880718 -0.007899670 0.001971971
v 0.006233630 -0.008225240 0.002559690
v 0.002916950 -0.008874830 0.002090940
v 0.002198740 -0.008293509 0.001411851
v -0.000201660 -0.007572290 0.001622190
v -0.000869387 -0.006202310 0.000850235
v -0.002071040 -0.004756670 0.001153440
v -0.001848261 -0.002620110 0.000288620
v -0.002061100 -0.001376980 0.000684691
v -0.000269502 0.000741544 -0.000272994
v -0.000175176 0.001427590 0.000215941
v 0.003112799 0.002275970 -0.000834608
v 0.002951049 0.002711750 -0.000252810
v 0.006263848 0.002042650 -0.000721559
v 0.006682290 0.001249730 -0.001396220
v 0.008646609 -0.000354173 -0.001190310
v 0.008733130 -0.001846570 -0.001957840
v 0.009296200 -0.003670850 -0.001659061
v 0.008285621 -0.005532999 -0.002519450
v 0.007993659 -0.006789470 -0.002127810
v 0.005554280 -0.008048140 -0.003081070
v 0.005178040 -0.008658850 -0.002596560
v 0.001844610 -0.008190900 -0.003642680
v 0.001798360 -0.008648899 -0.003065311
v -0.001006220 -0.006762979 -0.003534060
v -0.001071150 -0.005893849 -0.004204300
v -0.002290379 -0.003636759 -0.004002810
v -0.001800651 -0.002254800 -0.004765910
v -0.001621280 -0.000323958 -0.004471560
v 0.000004029 0.000987997 -0.005327520
v 0.000775545 0.002058800 -0.004940310
v 0.003480670 0.002285890 -0.005889140
v 0.004092230 0.002708390 -0.005409060
v 0.006968780 0.001019080 -0.006450751
v 0.007210840 0.001405860 -0.005877810
v 0.009080221 -0.001409771 -0.006346561
v 0.008802368 -0.002207550 -0.007012370
v 0.009070272 -0.004789450 -0.006815310
v 0.008105341 -0.005853089 -0.007573980
v 0.007184350 -0.007594028 -0.007284061
v 0.005210040 -0.008176120 -0.008135600
v 0.004058130 -0.008878188 -0.007752810
v 0.001499069 -0.008066399 -0.008697210
v 0.000745330 -0.008209090 -0.008221560
v -0.001245501 -0.005593069 -0.009255900
v -0.001637431 -0.005812260 -0.008690311
v -0.002287019 -0.002495579 -0.009159061
v -0.001734920 -0.001893090 -0.009820440
v -0.000984486 0.000623031 -0.009627810
v 0.005247050 0.001935519 -0.011502799
v 0.008015400 0.000596548 -0.011034100
v 0.007469350 0.000570332 -0.011502799
v 0.009299563 -0.002529679 -0.011502799
v 0.008421760 -0.006199220 0.003497190
v -0.002305029 -0.002713879 0.003497190
v -0.001311211 -0.006353718 0.003497190
v 0.005478301 -0.008559759 0.003497190
v 0.001705689 -0.008619650 0.003497190
v 0.008421760 -0.006199220 -0.011502799
v 0.005478301 -0.008559759 -0.011502799
v 0.001705689 -0.008619650 -0.011502799
v -0.001311211 -0.006353718 -0.011502799
v -0.002305029 -0.002713879 -0.011502799
# 250 normals
vn -0.770891 0.424953 0.474242
vn -0.443509 0.429958 0.786272
vn -0.382866 0.921840 0.059299
vn -0.392114 0.919886 0.000000
vn -0.210676 0.905146 0.369133
vn -0.282244 0.523256 -0.803974
vn -0.044772 0.938320 -0.342764
vn -0.689800 0.019716 0.723616
vn -0.775163 -0.036471 0.630684
vn -0.651285 -0.497009 0.573308
vn -0.525301 -0.414057 0.743270
vn -0.265550 -0.866813 0.421901
vn -0.137429 -0.594610 0.792071
vn 0.283709 -0.896997 0.338827
vn 0.268052 -0.528719 0.805286
vn 0.726302 -0.585912 0.359336
vn 0.569218 -0.230422 0.789141
vn 0.876610 -0.097235 0.471190
vn 0.641000 0.237258 0.729781
vn 0.706800 0.334402 0.623299
vn 0.409083 0.698529 0.586919
vn 0.331380 0.583898 0.741073
vn -0.084325 0.898157 0.431453
vn -0.097388 0.603491 0.791308
vn -0.603919 0.719404 0.342916
vn -0.447232 0.388360 0.805652
vn -0.896264 0.263200 0.356894
vn -0.611945 -0.000549 0.790881
vn -0.850455 -0.247940 0.463865
vn -0.501831 -0.457517 0.733993
vn -0.528047 -0.585607 0.614967
vn -0.111304 -0.796832 0.593725
vn -0.085638 -0.671092 0.736312
vn 0.420314 -0.796222 0.434994
vn 0.320393 -0.524171 0.788989
vn 0.834157 -0.433559 0.340689
vn 0.562260 -0.190838 0.804615
vn 0.931545 0.101264 0.349142
vn 0.566105 0.231429 0.791064
vn 0.693890 0.559330 0.453458
vn 0.291369 0.610389 0.736404
vn 0.264146 0.750595 0.605567
vn -0.199933 0.775255 0.599127
vn -0.177165 0.658243 0.731520
vn -0.691113 0.574101 0.438961
vn -0.497131 0.364921 0.787096
vn -0.936184 0.081395 0.341818
vn -0.592749 -0.035860 0.804523
vn -0.822285 -0.450650 0.347250
vn -0.435543 -0.426112 0.792895
vn -0.427333 -0.784472 0.449185
vn -0.041598 -0.670176 0.740951
vn 0.045688 -0.801807 0.595678
vn 0.471281 -0.632088 0.614967
vn 0.413447 -0.544803 0.729476
vn 0.852530 -0.266099 0.449765
vn 0.598730 -0.150278 0.786669
vn 0.893823 0.281084 0.349112
vn 0.534548 0.255997 0.805347
vn 0.587041 0.730422 0.348898
vn 0.504822 0.705243 0.497589
vn 0.093603 0.892541 0.441036
vn 0.000031 0.647500 0.761948
vn -0.408136 0.784838 0.466276
vn 0.498718 0.741561 0.448422
vn 0.682964 0.602149 -0.413355
vn 0.913294 0.407099 0.000000
vn 0.854758 0.448239 -0.261246
vn 0.609687 0.087621 -0.787707
vn 0.871910 -0.108497 -0.477416
vn 0.568760 -0.387780 -0.725264
vn 0.605139 -0.484374 -0.631722
vn 0.234756 -0.783617 -0.575078
vn 0.181865 -0.643563 -0.743301
vn -0.294513 -0.857261 -0.422267
vn -0.238265 -0.562321 -0.791796
vn -0.757584 -0.558994 -0.336874
vn -0.528475 -0.270494 -0.804615
vn -0.933498 -0.046542 -0.355460
vn -0.597265 0.148813 -0.788073
vn -0.767900 0.438351 -0.466886
vn -0.379845 0.570927 -0.727736
vn -0.375816 0.688458 -0.620155
vn 0.080754 0.808399 -0.582982
vn 0.076024 0.669047 -0.739242
vn 0.598547 0.678356 -0.425960
vn 0.435146 0.431575 -0.790057
vn 0.913477 0.226576 -0.337728
vn 0.591497 0.050754 -0.804676
vn 0.880852 -0.314808 -0.353293
vn 0.495117 -0.361320 -0.790026
vn 0.542544 -0.701154 -0.462461
vn 0.136636 -0.665965 -0.733321
vn 0.082982 -0.783953 -0.615211
vn -0.378319 -0.710126 -0.593664
vn -0.324849 -0.592627 -0.737014
vn -0.807209 -0.396997 -0.436611
vn -0.566349 -0.235366 -0.789813
vn -0.928432 0.138711 -0.344503
vn -0.565769 0.175304 -0.805622
vn -0.693219 0.627571 -0.354331
vn -0.321400 0.518190 -0.792529
vn -0.232711 0.857657 -0.458341
vn 0.121803 0.662943 -0.738601
vn 0.226057 0.760392 -0.608771
vn 0.614631 0.508484 -0.602912
vn 0.528353 0.427852 -0.733230
vn 0.894189 0.058872 -0.443753
vn 0.615455 0.003632 -0.788073
vn 0.804370 -0.483031 -0.345694
vn 0.458188 -0.376457 -0.805042
vn 0.400354 -0.847220 -0.349081
vn 0.102271 -0.600287 -0.793109
vn -0.115455 -0.886071 -0.448727
vn -0.360129 -0.566990 -0.740798
vn -0.509278 -0.622444 -0.594122
vn -0.754074 -0.234359 -0.613380
vn -0.656229 -0.197888 -0.728102
vn -0.847647 0.286974 -0.446194
vn -0.574132 0.231337 -0.785326
vn -0.558475 0.754959 -0.343527
vn 0.010895 0.863853 -0.503571
vn 0.450528 0.778520 -0.436794
vn 0.437374 0.711927 -0.549319
vn 0.599371 0.353842 -0.717939
vn 0.106299 0.943386 -0.313953
vn -0.838552 0.544772 0.000000
vn -0.838552 0.544772 0.000000
vn -0.991394 -0.130165 0.000000
vn -0.991363 -0.130349 0.004639
vn -0.668895 -0.743270 -0.004700
vn -0.029482 -0.999542 0.000000
vn -0.670054 -0.742172 0.000000
vn 0.625801 -0.779955 0.000000
vn 0.982177 -0.187725 0.000000
vn 0.869346 0.494049 0.000000
vn 0.869346 0.494049 0.000000
vn 0.341299 0.939846 0.000000
vn 0.341299 0.939846 0.000000
vn -0.349661 0.936764 0.000000
vn -0.349661 0.936764 0.000000
vn -0.873772 0.486266 0.000000
vn -0.980468 -0.196515 0.000000
vn -0.980468 -0.196515 0.000000
vn -0.618812 -0.785448 0.000000
vn -0.618812 -0.785448 0.000000
vn 0.038424 -0.999176 0.000000
vn 0.677379 -0.735549 0.000000
vn 0.992706 -0.120460 0.000000
vn 0.992706 -0.120460 0.000000
vn 0.833700 0.552127 0.000000
vn 0.833700 0.552127 0.000000
vn 0.276292 0.960996 0.000000
vn -0.413081 0.910578 0.000000
vn -0.413081 0.910578 0.000000
vn -0.905146 0.425075 0.000000
vn -0.905146 0.425075 0.000000
vn -0.964628 -0.263566 0.000000
vn -0.964628 -0.263566 0.000000
vn -0.563206 -0.826253 0.000000
vn -0.563206 -0.826253 0.000000
vn 0.105414 -0.994354 0.000000
vn 0.105567 -0.994323 0.004700
vn 0.726332 -0.687298 -0.004822
vn 0.998627 -0.051853 0.000000
vn 0.725172 -0.688458 0.000000
vn 0.000000 0.000000 1.000000
vn 0.000000 0.000000 1.000000
vn 0.000000 0.000000 1.000000
vn 0.000000 0.000000 1.000000
vn 0.000000 0.000000 1.000000
vn 0.919734 0.387231 -0.063419
vn 0.996948 -0.045016 0.063419
vn 0.967497 -0.231429 -0.101630
vn 0.799854 -0.593084 0.090917
vn 0.620094 -0.773271 -0.132058
vn 0.330983 -0.936184 0.118263
vn 0.015595 -0.986571 -0.162089
vn -0.247696 -0.957853 0.145242
vn -0.589422 -0.784777 -0.191418
vn -0.737380 -0.653147 0.171855
vn -0.943295 -0.190411 -0.271837
vn 0.853903 0.516419 0.063419
vn 0.549564 0.832998 -0.063419
vn 0.423122 0.903833 0.063419
vn -0.005768 0.997955 -0.063419
vn -0.150308 0.986510 0.063419
vn -0.559299 0.826436 -0.063419
vn -0.673045 0.736739 0.063419
vn -0.924159 0.376457 -0.063419
vn -0.924342 -0.130349 0.358451
vn -0.701459 -0.709791 -0.063419
vn -0.938290 -0.339834 0.063419
vn -0.918513 0.166484 -0.358451
vn -0.591314 -0.803852 0.063419
vn -0.188946 -0.979857 -0.063419
vn -0.045016 -0.996948 0.063419
vn 0.387231 -0.919734 -0.063419
vn 0.516419 -0.853903 0.063419
vn 0.832998 -0.549564 -0.063419
vn 0.903833 -0.423122 0.063419
vn 0.997955 0.005768 -0.063419
vn 0.986510 0.150308 0.063419
vn 0.826436 0.559299 -0.063419
vn 0.736739 0.673045 0.063419
vn 0.376457 0.924159 -0.063419
vn 0.238662 0.968962 0.063419
vn -0.200421 0.977568 -0.063419
vn -0.339834 0.938290 0.063419
vn -0.709791 0.701459 -0.063419
vn -0.803852 0.591314 0.063419
vn -0.979857 0.188946 -0.063419
vn -0.996948 0.045016 0.063419
vn -0.919734 -0.387231 -0.063419
vn -0.853903 -0.516419 0.063419
vn -0.549564 -0.832998 -0.063419
vn -0.423122 -0.903833 0.063419
vn 0.005768 -0.997955 -0.063419
vn 0.150308 -0.986510 0.063419
vn 0.559299 -0.826436 -0.063419
vn 0.673045 -0.736739 0.063419
vn 0.924159 -0.376457 -0.063419
vn 0.968962 -0.238662 0.063419
vn 0.977568 0.200421 -0.063419
vn 0.938290 0.339834 0.063419
vn 0.701459 0.709791 -0.063419
vn 0.591314 0.803852 0.063419
vn 0.188946 0.979857 -0.063419
vn 0.045016 0.996948 0.063419
vn -0.387231 0.919734 -0.063419
vn -0.516419 0.853903 0.063419
vn -0.832998 0.549564 -0.063419
vn -0.918757 0.381371 0.101630
vn -0.995788 -0.009614 -0.090917
vn -0.956144 -0.261063 0.132058
vn -0.818043 -0.562748 -0.118263
vn -0.592596 -0.788989 0.162089
vn -0.362632 -0.920527 -0.145242
vn 0.015504 -0.981353 0.191418
vn 0.212629 -0.961881 -0.171855
vn 0.610267 -0.760911 0.220137
vn 0.710187 -0.675517 -0.197888
vn 0.942166 -0.225325 0.247940
vn -0.894647 0.371452 -0.247940
vn -0.920009 -0.251144 0.300586
vn 0.000000 0.000000 -1.000000
vn 0.000000 0.000000 -1.000000
vn 0.000000 0.000000 -1.000000
vn 0.000000 0.000000 -1.000000
vn 0.000000 0.000000 -1.000000
# 134 uv coords
vt -0.996433 -0.432823
vt -0.950888 -0.397583
vt -0.875448 -0.168341
vt -0.776770 -0.129568
vt -0.573531 -0.042920
vt -0.776770 -0.129568
vt -0.470392 -0.038533
vt -0.644009 -0.020188
vt -0.353170 -0.021043
vt -0.909165 -0.715232
vt -0.950091 -0.719948
vt -0.752040 -0.932937
vt -0.672586 -0.928830
vt -0.469036 -1.000000
vt -0.353237 -0.938272
vt -0.196470 -0.898533
vt -0.104081 -0.738362
vt -0.026211 -0.662735
vt -0.044098 -0.424644
vt -0.015648 -0.372087
vt -0.201888 -0.146976
vt -0.168341 -0.124552
vt -0.432824 -0.003567
vt -0.502059 -0.037960
vt -0.719948 -0.049909
vt -0.801242 -0.149650
vt -0.932937 -0.247960
vt -0.956544 -0.428710
vt -1.000000 -0.530963
vt -0.893767 -0.741870
vt -0.898532 -0.803530
vt -0.642850 -0.939544
vt -0.662736 -0.973789
vt -0.372087 -0.984353
vt -0.323613 -0.927258
vt -0.124553 -0.831659
vt -0.088567 -0.710817
vt -0.003567 -0.567177
vt -0.050057 -0.393580
vt -0.049909 -0.280052
vt -0.226542 -0.127127
vt -0.247961 -0.067063
vt -0.533716 -0.038813
vt -0.530964 0.000000
vt -0.803530 -0.101468
vt -0.824781 -0.170859
vt -0.973788 -0.337265
vt -0.960641 -0.460147
vt -0.984352 -0.627914
vt -0.876404 -0.768415
vt -0.831659 -0.875448
vt -0.612375 -0.948374
vt -0.567177 -0.996434
vt -0.296301 -0.914862
vt -0.280052 -0.950090
vt -0.067064 -0.752040
vt -0.075240 -0.682033
vt 0.000000 -0.469037
vt -0.058675 -0.363070
vt -0.101468 -0.196470
vt -0.252914 -0.109563
vt -0.337265 -0.026212
vt -0.365183 -0.063154
vt -0.627913 -0.015648
vt -0.673093 -0.063109
vt -0.875448 -0.168341
vt -0.118365 -0.229154
vt -0.058675 -0.363070
vt -0.001312 -0.452365
vt -0.075240 -0.682033
vt -0.058892 -0.737449
vt -0.295522 -0.914482
vt -0.265152 -0.942499
vt -0.550570 -0.998399
vt -0.612375 -0.948374
vt -0.818942 -0.886309
vt -0.876404 -0.768415
vt -0.979812 -0.644010
vt -0.960641 -0.460147
vt -0.978957 -0.353169
vt -0.824781 -0.170859
vt -0.816663 -0.111821
vt -0.533716 -0.038813
vt -0.547635 -0.001312
vt -0.262551 -0.058892
vt -0.226542 -0.127127
vt -0.057502 -0.265151
vt -0.050057 -0.393580
vt -0.001601 -0.550569
vt -0.088567 -0.710817
vt -0.113692 -0.818943
vt -0.323613 -0.927258
vt -0.355991 -0.979813
vt -0.642850 -0.939544
vt -0.646830 -0.978957
vt -0.888179 -0.816663
vt -0.893767 -0.741870
vt -0.998688 -0.547635
vt -0.956544 -0.428710
vt -0.941108 -0.262551
vt -0.801242 -0.149650
vt -0.734849 -0.057502
vt -0.502059 -0.037960
vt -0.449431 -0.001601
vt -0.201888 -0.146976
vt -0.181058 -0.113691
vt -0.020188 -0.355991
vt -0.044098 -0.424644
vt -0.021044 -0.646831
vt -0.104081 -0.738362
vt -0.183337 -0.888180
vt -0.353237 -0.938272
vt -0.452365 -0.998688
vt -0.672586 -0.928830
vt -0.737449 -0.941109
vt -0.908770 -0.715986
vt -0.942498 -0.734849
vt -0.998398 -0.449431
vt -0.950888 -0.397583
vt -0.886309 -0.181058
vt -0.350052 -0.068111
vt -0.111821 -0.183337
vt -0.158812 -0.185593
vt -0.001312 -0.452365
vt -0.076852 -0.768149
vt -0.999948 -0.468217
vt -0.914425 -0.781444
vt -0.330152 -0.971286
vt -0.654805 -0.976440
vt -0.076852 -0.768149
vt -0.330152 -0.971286
vt -0.654805 -0.976440
vt -0.914425 -0.781444
vt -0.999948 -0.468217
# 264 polygons
usemtl DefaultMaterial
g <STL_BINARY>
f 1/1/1 2/2/1 3/3/1
f 3/3/2 2/2/2 4/4/2
f 3/3/3 4/4/3 5/5/3
f 5/5/4 4/4/4 6/6/4
f 5/5/5 6/6/5 7/7/5
f 7/7/6 6/6/6 8/8/6
f 7/7/7 8/8/7 9/9/7
f 2/2/8 1/1/8 10/10/8
f 10/10/9 1/1/9 11/11/9
f 10/10/10 11/11/10 12/12/10
f 10/10/11 12/12/11 13/13/11
f 13/13/12 12/12/12 14/14/12
f 13/13/13 14/14/13 15/15/13
f 15/15/14 14/14/14 16/16/14
f 15/15/15 16/16/15 17/17/15
f 17/17/16 16/16/16 18/18/16
f 17/17/17 18/18/17 19/19/17
f 19/19/18 18/18/18 20/20/18
f 19/19/19 20/20/19 21/21/19
f 21/21/20 20/20/20 22/22/20
f 21/21/21 22/22/21 23/23/21
f 21/21/22 23/23/22 24/24/22
f 24/24/23 23/23/23 25/25/23
f 24/24/24 25/25/24 26/26/24
f 26/26/25 25/25/25 27/27/25
f 26/26/26 27/27/26 28/28/26
f 28/28/27 27/27/27 29/29/27
f 28/28/28 29/29/28 30/30/28
f 30/30/29 29/29/29 31/31/29
f 30/30/30 31/31/30 32/32/30
f 32/32/31 31/31/31 33/33/31
f 32/32/32 33/33/32 34/34/32
f 32/32/33 34/34/33 35/35/33
f 35/35/34 34/34/34 36/36/34
f 35/35/35 36/36/35 37/37/35
f 37/37/36 36/36/36 38/38/36
f 37/37/37 38/38/37 39/39/37
f 39/39/38 38/38/38 40/40/38
f 39/39/39 40/40/39 41/41/39
f 41/41/40 40/40/40 42/42/40
f 41/41/41 42/42/41 43/43/41
f 43/43/42 42/42/42 44/44/42
f 43/43/43 44/44/43 45/45/43
f 43/43/44 45/45/44 46/46/44
f 46/46/45 45/45/45 47/47/45
f 46/46/46 47/47/46 48/48/46
f 48/48/47 47/47/47 49/49/47
f 48/48/48 49/49/48 50/50/48
f 50/50/49 49/49/49 51/51/49
f 50/50/50 51/51/50 52/52/50
f 52/52/51 51/51/51 53/53/51
f 52/52/52 53/53/52 54/54/52
f 54/54/53 53/53/53 55/55/53
f 54/54/54 55/55/54 56/56/54
f 54/54/55 56/56/55 57/57/55
f 57/57/56 56/56/56 58/58/56
f 57/57/57 58/58/57 59/59/57
f 59/59/58 58/58/58 60/60/58
f 59/59/59 60/60/59 61/61/59
f 61/61/60 60/60/60 62/62/60
f 61/61/61 62/62/61 63/63/61
f 63/63/62 62/62/62 64/64/62
f 63/63/63 64/64/63 65/65/63
f 65/65/64 64/64/64 66/66/64
f 63/63/65 67/67/65 61/61/65
f 61/61/66 67/67/66 59/59/66
f 59/59/67 67/67/67 68/68/67
f 68/68/68 67/67/68 69/69/68
f 68/68/69 69/69/69 70/70/69
f 70/70/70 69/69/70 71/71/70
f 70/70/71 71/71/71 72/72/71
f 72/72/72 71/71/72 73/73/72
f 72/72/73 73/73/73 74/74/73
f 72/72/74 74/74/74 75/75/74
f 75/75/75 74/74/75 76/76/75
f 75/75/76 76/76/76 77/77/76
f 77/77/77 76/76/77 78/78/77
f 77/77/78 78/78/78 79/79/78
f 79/79/79 78/78/79 80/80/79
f 79/79/80 80/80/80 81/81/80
f 81/81/81 80/80/81 82/82/81
f 81/81/82 82/82/82 83/83/82
f 83/83/83 82/82/83 84/84/83
f 83/83/84 84/84/84 85/85/84
f 83/83/85 85/85/85 86/86/85
f 86/86/86 85/85/86 87/87/86
f 86/86/87 87/87/87 88/88/87
f 88/88/88 87/87/88 89/89/88
f 88/88/89 89/89/89 90/90/89
f 90/90/90 89/89/90 91/91/90
f 90/90/91 91/91/91 92/92/91
f 92/92/92 91/91/92 93/93/92
f 92/92/93 93/93/93 94/94/93
f 94/94/94 93/93/94 95/95/94
f 94/94/95 95/95/95 96/96/95
f 94/94/96 96/96/96 97/97/96
f 97/97/97 96/96/97 98/98/97
f 97/97/98 98/98/98 99/99/98
f 99/99/99 98/98/99 100/100/99
f 99/99/100 100/100/100 101/101/100
f 101/101/101 100/100/101 102/102/101
f 101/101/102 102/102/102 103/103/102
f 103/103/103 102/102/103 104/104/103
f 103/103/104 104/104/104 105/105/104
f 105/105/105 104/104/105 106/106/105
f 105/105/106 106/106/106 107/107/106
f 105/105/107 107/107/107 108/108/107
f 108/108/108 107/107/108 109/109/108
f 108/108/109 109/109/109 110/110/109
f 110/110/110 109/109/110 111/111/110
f 110/110/111 111/111/111 112/112/111
f 112/112/112 111/111/112 113/113/112
f 112/112/113 113/113/113 114/114/113
f 114/114/114 113/113/114 115/115/114
f 114/114/115 115/115/115 116/116/115
f 116/116/116 115/115/116 117/117/116
f 116/116/117 117/117/117 118/118/117
f 116/116/118 118/118/118 119/119/118
f 119/119/119 118/118/119 120/120/119
f 119/119/120 120/120/120 6/6/120
f 6/6/121 120/120/121 8/8/121
f 7/7/122 9/9/122 121/121/122
f 121/121/123 9/9/123 122/122/123
f 121/121/124 122/122/124 123/123/124
f 123/123/125 122/122/125 124/124/125
f 121/121/126 5/5/126 7/7/126
f 6/6/127 4/4/127 119/119/127
f 119/119/127 4/4/127 2/2/128
f 119/119/129 2/2/129 10/10/129
f 116/116/130 119/119/130 10/10/130
f 114/114/131 116/116/131 10/10/131
f 112/112/132 114/114/132 13/13/132
f 15/15/132 112/112/132 13/13/132
f 13/13/133 114/114/133 10/10/133
f 110/110/134 112/112/134 15/15/134
f 17/17/134 110/110/134 15/15/134
f 108/108/135 110/110/135 17/17/135
f 19/19/135 108/108/135 17/17/135
f 105/105/136 108/108/136 19/19/136
f 21/21/137 105/105/136 19/19/136
f 103/103/138 105/105/138 21/21/138
f 24/24/139 103/103/138 21/21/138
f 101/101/140 103/103/140 24/24/140
f 26/26/141 101/101/140 24/24/140
f 99/99/142 101/101/142 26/26/142
f 28/28/142 99/99/142 26/26/142
f 97/97/143 99/99/143 28/28/143
f 30/30/144 97/97/143 28/28/143
f 94/94/145 97/97/145 30/30/145
f 32/32/146 94/94/145 30/30/145
f 92/92/147 94/94/147 32/32/147
f 35/35/147 92/92/147 32/32/147
f 90/90/148 92/92/148 35/35/148
f 37/37/148 90/90/148 35/35/148
f 88/88/149 90/90/149 37/37/149
f 39/39/150 88/88/149 37/37/149
f 86/86/151 88/88/151 39/39/151
f 41/41/152 86/86/151 39/39/151
f 83/83/153 86/86/153 41/41/153
f 43/43/153 83/83/153 41/41/153
f 81/81/154 83/83/154 43/43/154
f 46/46/155 81/81/154 43/43/154
f 79/79/156 81/81/156 46/46/156
f 48/48/157 79/79/156 46/46/156
f 77/77/158 79/79/158 48/48/158
f 50/50/159 77/77/158 48/48/158
f 75/75/160 77/77/160 50/50/160
f 50/50/160 52/52/161 75/75/160
f 75/75/162 52/52/162 54/54/162
f 75/75/163 54/54/163 72/72/163
f 72/72/164 54/54/164 70/70/164
f 68/68/165 70/70/165 57/57/165
f 59/59/165 68/68/165 57/57/165
f 57/57/166 70/70/166 54/54/166
f 125/125/167 69/69/167 126/126/167
f 126/126/167 127/127/167 125/125/167
f 125/125/167 127/127/167 128/128/167
f 126/126/167 69/69/167 67/67/168
f 126/126/167 67/67/168 63/63/169
f 63/63/169 65/65/170 126/126/167
f 126/126/167 65/65/170 66/66/171
f 128/128/167 127/127/167 129/129/167
f 122/122/172 20/20/172 124/124/172
f 124/124/173 20/20/173 18/18/173
f 124/124/174 18/18/174 130/130/174
f 130/130/175 18/18/175 16/16/175
f 130/130/176 16/16/176 131/131/176
f 131/131/177 16/16/177 14/14/177
f 131/131/178 14/14/178 132/132/178
f 132/132/179 14/14/179 12/12/179
f 132/132/180 12/12/180 133/133/180
f 133/133/181 12/12/181 11/11/181
f 133/133/182 11/11/182 1/1/182
f 20/20/183 122/122/183 22/22/183
f 22/22/184 122/122/184 9/9/184
f 22/22/185 9/9/185 23/23/185
f 23/23/186 9/9/186 8/8/186
f 23/23/187 8/8/187 25/25/187
f 25/25/188 8/8/188 120/120/188
f 25/25/189 120/120/189 27/27/189
f 27/27/190 120/120/190 118/118/190
f 27/27/191 118/118/191 117/117/191
f 115/115/192 31/31/192 117/117/192
f 117/117/193 31/31/193 29/29/193
f 117/117/194 29/29/194 27/27/194
f 31/31/195 115/115/195 33/33/195
f 33/33/196 115/115/196 113/113/196
f 33/33/197 113/113/197 34/34/197
f 34/34/198 113/113/198 111/111/198
f 34/34/199 111/111/199 36/36/199
f 36/36/200 111/111/200 109/109/200
f 36/36/201 109/109/201 38/38/201
f 38/38/202 109/109/202 107/107/202
f 38/38/203 107/107/203 40/40/203
f 40/40/204 107/107/204 106/106/204
f 40/40/205 106/106/205 42/42/205
f 42/42/206 106/106/206 104/104/206
f 42/42/207 104/104/207 44/44/207
f 44/44/208 104/104/208 102/102/208
f 44/44/209 102/102/209 45/45/209
f 45/45/210 102/102/210 100/100/210
f 45/45/211 100/100/211 47/47/211
f 47/47/212 100/100/212 98/98/212
f 47/47/213 98/98/213 49/49/213
f 49/49/214 98/98/214 96/96/214
f 49/49/215 96/96/215 51/51/215
f 51/51/216 96/96/216 95/95/216
f 51/51/217 95/95/217 53/53/217
f 53/53/218 95/95/218 93/93/218
f 53/53/219 93/93/219 55/55/219
f 55/55/220 93/93/220 91/91/220
f 55/55/221 91/91/221 56/56/221
f 56/56/222 91/91/222 89/89/222
f 56/56/223 89/89/223 58/58/223
f 58/58/224 89/89/224 87/87/224
f 58/58/225 87/87/225 60/60/225
f 60/60/226 87/87/226 85/85/226
f 60/60/227 85/85/227 62/62/227
f 62/62/228 85/85/228 84/84/228
f 62/62/229 84/84/229 64/64/229
f 64/64/230 84/84/230 82/82/230
f 64/64/231 82/82/231 66/66/231
f 66/66/232 82/82/232 80/80/232
f 66/66/233 80/80/233 126/126/233
f 126/126/234 80/80/234 78/78/234
f 126/126/235 78/78/235 127/127/235
f 127/127/236 78/78/236 76/76/236
f 127/127/237 76/76/237 129/129/237
f 129/129/238 76/76/238 74/74/238
f 129/129/239 74/74/239 128/128/239
f 128/128/240 74/74/240 73/73/240
f 128/128/241 73/73/241 125/125/241
f 125/125/242 73/73/242 71/71/242
f 125/125/243 71/71/243 69/69/243
f 3/3/244 134/134/244 1/1/244
f 1/1/245 134/134/245 133/133/245
f 3/3/246 5/5/246 134/134/246
f 134/134/246 5/5/246 121/121/247
f 134/134/246 121/121/247 123/123/248
f 123/123/248 124/124/249 134/134/246
f 134/134/246 124/124/249 130/130/250
f 134/134/246 130/130/250 133/133/250
f 133/133/250 130/130/250 131/131/250
f 133/133/250 131/131/250 132/132/250
# h3dt: 134 134 250 264
