# author: headus 3D tools
#  using: ply2obj v1.11
#   from: uvlayout v2.10.03
# 30 vertices
v 0.14415599 0.21929400 -0.07750000
v 0.14415599 0.21929400 0.07750000
v 0.14415599 0.21028001 -0.08500000
v 0.14415599 0.21028001 0.08500000
v 0.13583601 0.23177400 0.07750000
v 0.12751501 0.23524100 0.08500000
v 0.13583601 0.23177400 -0.07750000
v 0.12751501 0.23524100 -0.08500000
v 0.12335501 0.23246799 -0.08500000
v 0.13999601 0.20750601 -0.08500000
v 0.13999601 0.20750601 0.08500000
v 0.12335501 0.23246799 0.08500000
v 0.12196801 0.25257599 -0.07750000
v 0.12196801 0.24356200 -0.08500000
v 0.10146100 0.28333600 -0.07750000
v 0.09582690 0.28277299 -0.08500000
v 0.12196801 0.25257599 0.07750000
v 0.12196801 0.24356200 0.08500000
v 0.10146100 0.28333600 0.07750000
v 0.09582690 0.28277299 0.08500000
v 0.06649800 0.33578101 0.02642419
v 0.05817750 0.33924801 0.03000000
v 0.05817750 0.33924801 -0.03000000
v 0.06649800 0.33578101 -0.02642420
v 0.05401730 0.33647401 0.03000000
v 0.05401730 0.33647401 -0.03000000
v 0.09166670 0.27999999 -0.08500000
v 0.11780800 0.24078800 -0.08500000
v 0.09166670 0.27999999 0.08500000
v 0.11780800 0.24078800 0.08500000
# 25 normals
vn 1.000000 0.000000 0.000000
vn 1.000000 0.000000 0.000000
vn 0.692303 0.461454 0.554660
vn 0.384606 0.922999 0.000000
vn 0.692303 0.461454 -0.554660
vn 0.000000 0.000000 -1.000000
vn 0.554660 -0.832021 0.000000
vn 0.554660 -0.832021 0.000000
vn 0.832021 0.554660 0.000000
vn 0.000000 0.000000 1.000000
vn -0.554660 0.832021 0.000000
vn -0.832021 -0.554660 0.000000
vn 1.000000 0.000000 0.000000
vn 1.000000 0.000000 0.000000
vn 0.498535 0.752030 0.430965
vn 0.384606 0.922999 0.000000
vn 0.384606 0.922999 0.000000
vn 0.498535 0.752030 -0.430965
vn -0.554660 0.832021 0.000000
vn -0.349142 0.523775 -0.776933
vn 0.832021 0.554660 0.000000
vn 0.832021 0.554660 0.000000
vn -0.349142 0.523775 0.776933
vn 0.554660 -0.832021 0.000000
vn -0.832021 -0.554660 0.000000
# 30 uv coords
vt 0.000000 -0.910522
vt 0.000000 -0.910522
vt 0.000000 -0.978944
vt 0.000000 -0.978944
vt -0.092302 -0.815792
vt -0.184615 -0.789475
vt -0.092302 -0.815792
vt -0.184615 -0.789475
vt -0.230766 -0.810524
vt -0.046151 -1.000000
vt -0.046151 -1.000000
vt -0.230766 -0.810524
vt -0.246154 -0.657892
vt -0.246154 -0.726314
vt -0.473659 -0.424405
vt -0.536164 -0.428679
vt -0.246154 -0.657892
vt -0.246154 -0.726314
vt -0.473659 -0.424405
vt -0.536164 -0.428679
vt -0.861539 -0.026317
vt -0.953847 0.000000
vt -0.953847 0.000000
vt -0.861539 -0.026317
vt -1.000000 -0.021056
vt -1.000000 -0.021056
vt -0.582317 -0.449728
vt -0.292305 -0.747370
vt -0.582317 -0.449728
vt -0.292305 -0.747370
# 52 polygons
usemtl DefaultMaterial
g <STL_BINARY>
f 1/1/1 2/2/1 3/3/1
f 3/3/1 2/2/1 4/4/2
f 2/2/3 5/5/3 4/4/3
f 4/4/3 5/5/3 6/6/3
f 5/5/4 7/7/4 6/6/4
f 6/6/4 7/7/4 8/8/4
f 8/8/5 7/7/5 3/3/5
f 3/3/5 7/7/5 1/1/5
f 8/8/6 3/3/6 9/9/6
f 9/9/6 3/3/6 10/10/6
f 3/3/7 4/4/7 10/10/7
f 10/10/7 4/4/7 11/11/8
f 2/2/9 1/1/9 5/5/9
f 5/5/9 1/1/9 7/7/9
f 4/4/10 6/6/10 11/11/10
f 11/11/10 6/6/10 12/12/10
f 6/6/11 8/8/11 12/12/11
f 12/12/11 8/8/11 9/9/11
f 10/10/12 11/11/12 9/9/12
f 9/9/12 11/11/12 12/12/12
f 13/13/5 14/14/5 15/15/5
f 15/15/5 14/14/5 16/16/5
f 13/13/13 17/17/13 14/14/13
f 14/14/13 17/17/13 18/18/14
f 17/17/3 19/19/3 18/18/3
f 18/18/3 19/19/3 20/20/3
f 21/21/15 22/22/15 19/19/15
f 19/19/15 22/22/15 20/20/15
f 23/23/16 22/22/16 24/24/16
f 24/24/16 22/22/16 21/21/17
f 16/16/18 23/23/18 15/15/18
f 15/15/18 23/23/18 24/24/18
f 22/22/19 23/23/19 25/25/19
f 25/25/19 23/23/19 26/26/11
f 23/23/20 16/16/20 26/26/20
f 26/26/20 16/16/20 27/27/20
f 16/16/6 14/14/6 27/27/6
f 27/27/6 14/14/6 28/28/6
f 17/17/9 13/13/9 19/19/9
f 19/19/9 13/13/9 15/15/21
f 19/19/9 15/15/21 21/21/21
f 21/21/21 15/15/21 24/24/22
f 20/20/23 22/22/23 29/29/23
f 29/29/23 22/22/23 25/25/23
f 14/14/24 18/18/24 28/28/24
f 28/28/24 18/18/24 30/30/8
f 18/18/10 20/20/10 30/30/10
f 30/30/10 20/20/10 29/29/10
f 28/28/12 30/30/12 27/27/12
f 27/27/12 30/30/12 29/29/25
f 27/27/12 29/29/25 25/25/25
f 25/25/25 26/26/12 27/27/12
# h3dt: 30 30 25 52
