# File produced by Open Asset Import Library (http://www.assimp.sf.net)
# (assimp v3.1.187496374)

mtllib ControlPanel.obj.mtl

# 30 vertex positions
v  0.144156 0.219294 -0.0775
v  0.144156 0.219294 0.0775
v  0.144156 0.21028 -0.085
v  0.144156 0.21028 0.085
v  0.135836 0.231774 0.0775
v  0.127515 0.235241 0.085
v  0.135836 0.231774 -0.0775
v  0.127515 0.235241 -0.085
v  0.123355 0.232468 -0.085
v  0.139996 0.207506 -0.085
v  0.139996 0.207506 0.085
v  0.123355 0.232468 0.085
v  0.121968 0.252576 -0.0775
v  0.121968 0.243562 -0.085
v  0.101461 0.283336 -0.0775
v  0.0958269 0.282773 -0.085
v  0.121968 0.252576 0.0775
v  0.121968 0.243562 0.085
v  0.101461 0.283336 0.0775
v  0.0958269 0.282773 0.085
v  0.066498 0.335781 0.0264242
v  0.0581775 0.339248 0.03
v  0.0581775 0.339248 -0.03
v  0.066498 0.335781 -0.0264242
v  0.0540173 0.336474 0.03
v  0.0540173 0.336474 -0.03
v  0.0916667 0.28 -0.085
v  0.117808 0.240788 -0.085
v  0.0916667 0.28 0.085
v  0.117808 0.240788 0.085

# 0 UV coordinates

# 25 vertex normals
vn 1 -3.0792e-15 0
vn 1 -6.02256e-15 1.63268e-16
vn 0.692308 0.461538 0.5547
vn 0.384615 0.923077 0
vn 0.692308 0.461538 -0.5547
vn 0 0 -1
vn 0.5547 -0.83205 9.05648e-17
vn 0.5547 -0.83205 0
vn 0.83205 0.5547 0
vn 0 0 1
vn -0.5547 0.83205 0
vn -0.83205 -0.5547 0
vn 1 0 0
vn 1 -1.47168e-15 8.1634e-17
vn 0.498592 0.752113 0.430968
vn 0.384615 0.923077 2.2418e-15
vn 0.384615 0.923077 2.01997e-16
vn 0.498592 0.752113 -0.430968
vn -0.5547 0.83205 7.69801e-16
vn -0.349227 0.52384 -0.776938
vn 0.83205 0.5547 -9.93292e-17
vn 0.83205 0.5547 4.36986e-16
vn -0.349227 0.52384 0.776938
vn 0.5547 -0.83205 4.52824e-17
vn -0.83205 -0.5547 -1.13206e-16

# Mesh '<STL_BINARY>' with 52 faces
g <STL_BINARY>
usemtl DefaultMaterial
f  1//1 2//1 3//1
f  3//1 2//1 4//2
f  2//3 5//3 4//3
f  4//3 5//3 6//3
f  5//4 7//4 6//4
f  6//4 7//4 8//4
f  8//5 7//5 3//5
f  3//5 7//5 1//5
f  8//6 3//6 9//6
f  9//6 3//6 10//6
f  3//7 4//7 10//7
f  10//7 4//7 11//8
f  2//9 1//9 5//9
f  5//9 1//9 7//9
f  4//10 6//10 11//10
f  11//10 6//10 12//10
f  6//11 8//11 12//11
f  12//11 8//11 9//11
f  10//12 11//12 9//12
f  9//12 11//12 12//12
f  13//5 14//5 15//5
f  15//5 14//5 16//5
f  13//13 17//13 14//13
f  14//13 17//13 18//14
f  17//3 19//3 18//3
f  18//3 19//3 20//3
f  21//15 22//15 19//15
f  19//15 22//15 20//15
f  23//16 22//16 24//16
f  24//16 22//16 21//17
f  16//18 23//18 15//18
f  15//18 23//18 24//18
f  22//19 23//19 25//19
f  25//19 23//19 26//11
f  23//20 16//20 26//20
f  26//20 16//20 27//20
f  16//6 14//6 27//6
f  27//6 14//6 28//6
f  17//9 13//9 19//9
f  19//9 13//9 15//21
f  19//9 15//21 21//21
f  21//21 15//21 24//22
f  20//23 22//23 29//23
f  29//23 22//23 25//23
f  14//24 18//24 28//24
f  28//24 18//24 30//8
f  18//10 20//10 30//10
f  30//10 20//10 29//10
f  28//12 30//12 27//12
f  27//12 30//12 29//25
f  27//12 29//25 25//25
f  25//25 26//12 27//12

