# File produced by Open Asset Import Library (http://www.assimp.sf.net)
# (assimp v3.1.187496374)

mtllib TrunkPipe.obj.mtl

# 171 vertex positions
v  -0.835617 0 0.128572
v  -0.818559 0 0.13158
v  -0.837957 0 0.135
v  -0.829693 0 0.125152
v  -0.822956 0 0.12634
v  -0.818559 0 0.13842
v  -0.835617 0 0.141428
v  -0.822956 0 0.14366
v  -0.829693 0 0.144848
v  -0.835617 0.328572 -0.01
v  -0.835617 0.328572 0.095
v  -0.837957 0.335 -0.01
v  -0.837957 0.335 0.095
v  -0.835617 0.341428 -0.01
v  -0.835617 0.341428 0.095
v  -0.829693 0.344848 -0.01
v  -0.829693 0.344848 0.095
v  -0.822956 0.34366 -0.01
v  -0.822956 0.34366 0.095
v  -0.818559 0.33842 -0.01
v  -0.818559 0.33842 0.095
v  -0.818559 0.33158 -0.01
v  -0.818559 0.33158 0.095
v  -0.822956 0.32634 -0.01
v  -0.822956 0.32634 0.095
v  -0.829693 0.325152 -0.01
v  -0.829693 0.325152 0.095
v  -0.836617 0.336575 0.112221
v  -0.831377 0.340637 0.113903
v  -0.824536 0.340637 0.113903
v  -0.819296 0.336575 0.112221
v  -0.818108 0.330351 0.109643
v  -0.821528 0.324878 0.107376
v  -0.827956 0.322716 0.10648
v  -0.834384 0.324878 0.107376
v  -0.837805 0.330351 0.109643
v  -0.835617 0.295 0.141428
v  -0.837805 0.309643 0.130351
v  -0.837957 0.295 0.135
v  -0.834384 0.307376 0.124878
v  -0.835617 0.295 0.128572
v  -0.827956 0.30648 0.122716
v  -0.829693 0.295 0.125152
v  -0.821528 0.317867 0.117867
v  -0.821528 0.307376 0.124878
v  -0.818108 0.322056 0.122056
v  -0.818108 0.309643 0.130351
v  -0.819296 0.32682 0.12682
v  -0.819296 0.312221 0.136575
v  -0.824536 0.329929 0.129929
v  -0.824536 0.313903 0.140637
v  -0.831377 0.329929 0.129929
v  -0.831377 0.313903 0.140637
v  -0.836617 0.32682 0.12682
v  -0.836617 0.312221 0.136575
v  -0.837805 0.322056 0.122056
v  -0.834384 0.317867 0.117867
v  -0.827956 0.316213 0.116213
v  -0.829693 0.295 0.144848
v  -0.822956 0.295 0.14366
v  -0.818559 0.295 0.13842
v  -0.818559 0.295 0.13158
v  -0.822956 0.295 0.12634
v  -0.835617 0.1475 0.141428
v  -0.837957 0.1475 0.135
v  -0.835617 0.1475 0.128572
v  -0.829693 0.1475 0.125152
v  -0.822956 0.1475 0.12634
v  -0.818559 0.1475 0.13158
v  -0.818559 0.1475 0.13842
v  -0.822956 0.1475 0.14366
v  -0.829693 0.1475 0.144848
v  -0.85083 0 0.131786
v  -0.842302 0 0.13329
v  -0.852 0 0.135
v  -0.847868 0 0.130076
v  -0.8445 0 0.13067
v  -0.842302 0 0.13671
v  -0.85083 0 0.138214
v  -0.8445 0 0.13933
v  -0.847868 0 0.139924
v  -0.85083 0.331786 -0.01
v  -0.85083 0.331786 0.0425
v  -0.852 0.335 -0.01
v  -0.852 0.335 0.0425
v  -0.85083 0.331786 0.095
v  -0.852 0.335 0.095
v  -0.85083 0.338214 -0.01
v  -0.85083 0.338214 0.0425
v  -0.85083 0.338214 0.095
v  -0.847868 0.339924 -0.01
v  -0.847868 0.339924 0.0425
v  -0.847868 0.339924 0.095
v  -0.8445 0.33933 -0.01
v  -0.8445 0.33933 0.0425
v  -0.8445 0.33933 0.095
v  -0.842302 0.33671 -0.01
v  -0.842302 0.33671 0.0425
v  -0.842302 0.33671 0.095
v  -0.842302 0.33329 -0.01
v  -0.842302 0.33329 0.0425
v  -0.842302 0.33329 0.095
v  -0.8445 0.33067 -0.01
v  -0.8445 0.33067 0.0425
v  -0.8445 0.33067 0.095
v  -0.847868 0.330076 -0.01
v  -0.847868 0.330076 0.0425
v  -0.847868 0.330076 0.095
v  -0.85133 0.334265 0.111264
v  -0.84871 0.336296 0.112105
v  -0.84529 0.336296 0.112105
v  -0.84267 0.334265 0.111264
v  -0.842076 0.331153 0.109975
v  -0.843786 0.328417 0.108842
v  -0.847 0.327336 0.108394
v  -0.850214 0.328417 0.108842
v  -0.851924 0.331153 0.109975
v  -0.85083 0.295 0.138214
v  -0.851924 0.309975 0.131153
v  -0.852 0.295 0.135
v  -0.850214 0.308842 0.128417
v  -0.85083 0.295 0.131786
v  -0.847 0.308394 0.127336
v  -0.847868 0.295 0.130076
v  -0.843786 0.320576 0.120576
v  -0.843786 0.308842 0.128417
v  -0.842076 0.32267 0.12267
v  -0.842076 0.309975 0.131153
v  -0.84267 0.325052 0.125052
v  -0.84267 0.311264 0.134265
v  -0.84529 0.326607 0.126607
v  -0.84529 0.312105 0.136296
v  -0.84871 0.326607 0.126607
v  -0.84871 0.312105 0.136296
v  -0.85133 0.325052 0.125052
v  -0.85133 0.311264 0.134265
v  -0.851924 0.32267 0.12267
v  -0.850214 0.320576 0.120576
v  -0.847 0.319749 0.119749
v  -0.847868 0.295 0.139924
v  -0.8445 0.295 0.13933
v  -0.842302 0.295 0.13671
v  -0.842302 0.295 0.13329
v  -0.8445 0.295 0.13067
v  -0.85083 0.07375 0.138214
v  -0.852 0.07375 0.135
v  -0.85083 0.1475 0.138214
v  -0.852 0.1475 0.135
v  -0.85083 0.22125 0.138214
v  -0.852 0.22125 0.135
v  -0.85083 0.07375 0.131786
v  -0.85083 0.1475 0.131786
v  -0.85083 0.22125 0.131786
v  -0.847868 0.07375 0.130076
v  -0.847868 0.1475 0.130076
v  -0.847868 0.22125 0.130076
v  -0.8445 0.07375 0.13067
v  -0.8445 0.1475 0.13067
v  -0.8445 0.22125 0.13067
v  -0.842302 0.07375 0.13329
v  -0.842302 0.1475 0.13329
v  -0.842302 0.22125 0.13329
v  -0.842302 0.07375 0.13671
v  -0.842302 0.1475 0.13671
v  -0.842302 0.22125 0.13671
v  -0.8445 0.07375 0.13933
v  -0.8445 0.1475 0.13933
v  -0.8445 0.22125 0.13933
v  -0.847868 0.07375 0.139924
v  -0.847868 0.1475 0.139924
v  -0.847868 0.22125 0.139924

# 0 UV coordinates

# 136 vertex normals
vn 0 -1 0
vn -0.939693 -0.34202 0
vn -0.939693 0.34202 0
vn -0.5 0.866025 0
vn 0.173648 0.984808 0
vn 0.766044 0.642788 0
vn 1 0 0
vn 0.766044 -0.642788 0
vn 0.173648 -0.984808 0
vn -0.5 -0.866025 0
vn -0.934615 -0.340172 0.103817
vn -0.60739 0.793999 -0.0253468
vn -0.916754 0.333671 0.219603
vn 0 0.999126 0.0418101
vn -0.474909 0.822567 0.312802
vn 0.614306 0.789025 0.00819916
vn 0.162948 0.924123 0.345608
vn 0.966786 0.23037 -0.110702
vn 0.727322 0.610296 0.313913
vn 0.86332 -0.430272 -0.263714
vn 0.972407 0 0.23329
vn 0.341912 -0.858253 -0.38275
vn 0.759578 -0.637362 0.129658
vn -0.341393 -0.843404 -0.414874
vn 0.17348 -0.983855 0.0439772
vn -0.855432 -0.396618 -0.333062
vn -0.499768 -0.865623 0.0304896
vn -0.951798 0.253302 -0.172971
vn -0.933181 0.117522 0.33965
vn -0.864887 -0.143729 -0.48095
vn -0.939659 -0.00850588 -0.342008
vn -0.339185 -0.237903 -0.910141
vn -0.497104 -0.107469 -0.86101
vn -0.456089 -0.118138 -0.882058
vn 0.631402 -0.43082 -0.644768
vn 0.861774 -0.281837 -0.421799
vn 0.984221 0.0983052 0.147124
vn 0.635453 0.428978 0.642011
vn 0 0.55557 0.83147
vn -0.635453 0.428978 0.642011
vn -0.984221 0.0983052 0.147124
vn -0.861774 -0.281837 -0.421799
vn -0.336198 -0.523231 -0.783071
vn 0.336198 -0.523231 -0.783071
vn -0.981976 -0.00375509 0.18897
vn -0.488825 0.210236 0.84667
vn -0.631375 0.114625 0.766959
vn 0.169048 0.22864 0.958721
vn 0 0.157934 0.98745
vn 0.755602 0.164555 0.634025
vn 0.630701 0.109321 0.768287
vn 0.999086 0.0427394 0
vn 0.981088 -0.0140258 0.193055
vn 0.763751 -0.0773163 -0.640863
vn 0.8654 -0.156093 -0.476149
vn 0.172056 -0.135114 -0.975777
vn -0.336198 -0.783071 -0.523231
vn 0.336198 -0.783071 -0.523231
vn -0.861774 -0.421799 -0.281837
vn -0.984221 0.147124 0.0983052
vn -0.635453 0.642011 0.428978
vn 0 0.83147 0.55557
vn 0.635453 0.642011 0.428978
vn 0.861774 -0.421799 -0.281837
vn 0.984221 0.147124 0.0983052
vn -0.939693 0 0.34202
vn -0.939693 6.43591e-17 0.34202
vn -0.939693 -6.43591e-17 -0.34202
vn -0.939693 -1.28718e-16 -0.34202
vn -0.939693 -0 -0.34202
vn -0.5 -3.25926e-16 -0.866025
vn -0.5 0 -0.866025
vn -0.5 -1.62963e-16 -0.866025
vn 0.173648 0 -0.984808
vn 0.173648 -1.85315e-16 -0.984808
vn 0.766044 -1.20956e-16 -0.642788
vn 0.766044 0 -0.642788
vn 0.766044 0 0.642788
vn 0.766044 1.20956e-16 0.642788
vn 0.173648 1.85315e-16 0.984808
vn 0.173648 0 0.984808
vn -0.5 1.62963e-16 0.866025
vn -0.5 0 0.866025
vn 4.4716e-16 2.53597e-15 -1
vn -1.28755e-16 7.30204e-16 -1
vn 8.94321e-16 0 -1
vn 4.4716e-16 -2.53597e-15 -1
vn 0 0 -1
vn -0.939439 -0.341928 0.0232382
vn -0.62369 0.779295 0.0609116
vn -0.928629 0.337993 0.152996
vn 0 0.993773 0.111427
vn -0.484023 0.838352 0.250773
vn 0.625219 0.777249 0.0706132
vn 0.166903 0.946552 0.276012
vn 0.977554 0.20561 -0.0459652
vn 0.747041 0.626841 0.22136
vn 0.866007 -0.464399 -0.185378
vn 0.994298 0 0.10664
vn 0.340774 -0.897639 -0.279495
vn 0.765933 -0.642694 -0.0170202
vn -0.34098 -0.895343 -0.286518
vn 0.17297 -0.980962 -0.0882931
vn -0.865972 -0.457648 -0.201621
vn -0.498668 -0.863719 -0.0729353
vn -0.975297 0.211937 -0.062279
vn -0.935687 0.0922338 0.340562
vn -0.863575 -0.121343 -0.489403
vn -0.938888 -0.0413857 -0.341727
vn -0.337685 -0.208414 -0.917896
vn -0.494842 -0.14327 -0.857091
vn -0.868637 -0.0446403 -0.493433
vn 0.839624 -0.301768 -0.451628
vn -0.983222 0.0139406 0.181878
vn -0.490765 0.19131 0.85003
vn -0.633294 0.130623 0.762808
vn 0.169684 0.21246 0.962324
vn 0 0.174653 0.98463
vn 0.757637 0.147752 0.635733
vn 0.633117 0.129084 0.763217
vn 0.999744 0.0226415 0
vn 0.983059 0.0112967 0.182942
vn 0.761993 -0.102716 -0.639388
vn 0.86376 -0.124061 -0.488393
vn 0.171212 -0.166905 -0.970994
vn -0.939693 -1.28718e-16 0.34202
vn -0.939693 1.28718e-16 0.34202
vn 0.173648 -3.70629e-16 -0.984808
vn 0.766044 -2.41911e-16 -0.642788
vn 0.766044 2.41911e-16 0.642788
vn 0.173648 3.70629e-16 0.984808
vn -0.5 -3.25926e-16 0.866025
vn -0.5 3.25926e-16 0.866025
vn 8.94329e-16 5.07199e-15 -1
vn 1.78866e-15 0 -1
vn 8.94329e-16 -5.07199e-15 -1

# Mesh '<STL_BINARY>' with 334 faces
g <STL_BINARY>
usemtl DefaultMaterial
f  1//1 2//1 3//1
f  4//1 5//1 1//1
f  1//1 5//1 2//1
f  3//1 2//1 6//1
f  3//1 6//1 7//1
f  7//1 6//1 8//1
f  7//1 8//1 9//1
f  10//2 11//2 12//2
f  12//2 11//2 13//2
f  12//3 13//3 14//3
f  14//3 13//3 15//3
f  14//4 15//4 16//4
f  16//4 15//4 17//4
f  16//5 17//5 18//5
f  18//5 17//5 19//5
f  18//6 19//6 20//6
f  20//6 19//6 21//6
f  20//7 21//7 22//7
f  22//7 21//7 23//7
f  22//8 23//8 24//8
f  24//8 23//8 25//8
f  24//9 25//9 26//9
f  26//9 25//9 27//9
f  26//10 27//10 10//10
f  10//10 27//10 11//10
f  11//11 28//11 13//11
f  13//12 28//12 29//12
f  13//13 29//13 15//13
f  15//14 29//14 30//14
f  15//15 30//15 17//15
f  17//16 30//16 31//16
f  17//17 31//17 19//17
f  19//18 31//18 32//18
f  19//19 32//19 21//19
f  21//20 32//20 33//20
f  21//21 33//21 23//21
f  23//22 33//22 34//22
f  23//23 34//23 25//23
f  25//24 34//24 35//24
f  25//25 35//25 27//25
f  27//26 35//26 36//26
f  27//27 36//27 11//27
f  11//28 36//28 28//28
f  37//29 38//29 39//29
f  39//30 38//30 40//30
f  39//31 40//31 41//31
f  41//32 40//32 42//32
f  41//33 42//33 43//33
f  43//34 42//34 44//34
f  43//35 44//35 45//35
f  45//36 44//36 46//36
f  45//36 46//36 47//36
f  47//37 46//37 48//37
f  47//37 48//37 49//37
f  49//38 48//38 50//38
f  49//38 50//38 51//38
f  51//39 50//39 52//39
f  51//39 52//39 53//39
f  53//40 52//40 54//40
f  53//40 54//40 55//40
f  55//41 54//41 56//41
f  55//41 56//41 38//41
f  38//42 56//42 57//42
f  38//42 57//42 40//42
f  40//43 57//43 58//43
f  40//43 58//43 42//43
f  42//44 58//44 44//44
f  38//45 37//45 55//45
f  55//46 37//46 59//46
f  55//47 59//47 53//47
f  53//48 59//48 60//48
f  53//49 60//49 51//49
f  51//50 60//50 61//50
f  51//51 61//51 49//51
f  49//52 61//52 62//52
f  49//53 62//53 47//53
f  47//54 62//54 63//54
f  47//55 63//55 45//55
f  45//56 63//56 43//56
f  35//57 34//57 57//57
f  57//57 34//57 58//57
f  44//58 58//58 33//58
f  33//58 58//58 34//58
f  57//59 56//59 35//59
f  35//59 56//59 36//59
f  56//60 54//60 36//60
f  36//60 54//60 28//60
f  54//61 52//61 28//61
f  28//61 52//61 29//61
f  52//62 50//62 29//62
f  29//62 50//62 30//62
f  50//63 48//63 30//63
f  30//63 48//63 31//63
f  44//64 33//64 32//64
f  46//64 44//64 32//64
f  48//65 46//65 31//65
f  31//65 46//65 32//65
f  7//66 64//66 3//66
f  3//66 64//66 65//67
f  37//66 65//67 64//66
f  39//66 65//67 37//66
f  3//68 65//68 1//68
f  1//68 65//68 66//69
f  39//70 66//69 65//68
f  41//70 66//69 39//70
f  1//71 66//71 4//71
f  4//71 66//71 67//72
f  41//73 67//72 66//71
f  43//73 67//72 41//73
f  4//74 67//74 5//74
f  5//74 67//74 68//75
f  43//74 68//75 67//74
f  63//74 68//75 43//74
f  5//76 68//76 2//76
f  2//76 68//76 69//76
f  63//77 69//76 68//76
f  62//77 69//76 63//77
f  2//7 69//7 6//7
f  6//7 69//7 70//7
f  62//7 70//7 69//7
f  61//7 70//7 62//7
f  6//78 70//78 8//78
f  8//78 70//78 71//79
f  61//79 71//79 70//78
f  60//79 71//79 61//79
f  8//80 71//80 9//80
f  9//80 71//80 72//80
f  60//81 72//80 71//80
f  59//81 72//80 60//81
f  9//82 72//82 7//82
f  7//82 72//82 64//83
f  59//82 64//83 72//82
f  37//82 64//83 59//82
f  14//84 20//84 12//84
f  16//85 18//85 14//84
f  14//84 18//85 20//84
f  12//84 20//84 22//86
f  12//84 22//86 10//87
f  10//87 22//86 24//88
f  10//87 24//88 26//88
f  73//1 74//1 75//1
f  76//1 77//1 73//1
f  73//1 77//1 74//1
f  75//1 74//1 78//1
f  75//1 78//1 79//1
f  79//1 78//1 80//1
f  79//1 80//1 81//1
f  82//2 83//2 84//2
f  84//2 83//2 85//2
f  86//2 85//2 83//2
f  87//2 85//2 86//2
f  84//3 85//3 88//3
f  88//3 85//3 89//3
f  87//3 89//3 85//3
f  90//3 89//3 87//3
f  88//4 89//4 91//4
f  91//4 89//4 92//4
f  90//4 92//4 89//4
f  93//4 92//4 90//4
f  91//5 92//5 94//5
f  94//5 92//5 95//5
f  93//5 95//5 92//5
f  96//5 95//5 93//5
f  94//6 95//6 97//6
f  97//6 95//6 98//6
f  96//6 98//6 95//6
f  99//6 98//6 96//6
f  97//7 98//7 100//7
f  100//7 98//7 101//7
f  99//7 101//7 98//7
f  102//7 101//7 99//7
f  100//8 101//8 103//8
f  103//8 101//8 104//8
f  102//8 104//8 101//8
f  105//8 104//8 102//8
f  103//9 104//9 106//9
f  106//9 104//9 107//9
f  105//9 107//9 104//9
f  108//9 107//9 105//9
f  106//10 107//10 82//10
f  82//10 107//10 83//10
f  108//10 83//10 107//10
f  86//10 83//10 108//10
f  86//89 109//89 87//89
f  87//90 109//90 110//90
f  87//91 110//91 90//91
f  90//92 110//92 111//92
f  90//93 111//93 93//93
f  93//94 111//94 112//94
f  93//95 112//95 96//95
f  96//96 112//96 113//96
f  96//97 113//97 99//97
f  99//98 113//98 114//98
f  99//99 114//99 102//99
f  102//100 114//100 115//100
f  102//101 115//101 105//101
f  105//102 115//102 116//102
f  105//103 116//103 108//103
f  108//104 116//104 117//104
f  108//105 117//105 86//105
f  86//106 117//106 109//106
f  118//107 119//107 120//107
f  120//108 119//108 121//108
f  120//109 121//109 122//109
f  122//110 121//110 123//110
f  122//111 123//111 124//111
f  124//112 123//112 125//112
f  124//113 125//113 126//113
f  126//36 125//36 127//36
f  126//36 127//36 128//36
f  128//37 127//37 129//37
f  128//37 129//37 130//37
f  130//38 129//38 131//38
f  130//38 131//38 132//38
f  132//39 131//39 133//39
f  132//39 133//39 134//39
f  134//40 133//40 135//40
f  134//40 135//40 136//40
f  136//41 135//41 137//41
f  136//41 137//41 119//41
f  119//42 137//42 138//42
f  119//42 138//42 121//42
f  121//43 138//43 139//43
f  121//43 139//43 123//43
f  123//44 139//44 125//44
f  119//114 118//114 136//114
f  136//115 118//115 140//115
f  136//116 140//116 134//116
f  134//117 140//117 141//117
f  134//118 141//118 132//118
f  132//119 141//119 142//119
f  132//120 142//120 130//120
f  130//121 142//121 143//121
f  130//122 143//122 128//122
f  128//123 143//123 144//123
f  128//124 144//124 126//124
f  126//125 144//125 124//125
f  116//57 115//57 138//57
f  138//57 115//57 139//57
f  125//58 139//58 114//58
f  114//58 139//58 115//58
f  138//59 137//59 116//59
f  116//59 137//59 117//59
f  137//60 135//60 117//60
f  117//60 135//60 109//60
f  135//61 133//61 109//61
f  109//61 133//61 110//61
f  133//62 131//62 110//62
f  110//62 131//62 111//62
f  131//63 129//63 111//63
f  111//63 129//63 112//63
f  125//64 114//64 113//64
f  127//64 125//64 113//64
f  129//65 127//65 112//65
f  112//65 127//65 113//65
f  79//126 145//126 75//126
f  75//126 145//126 146//66
f  145//126 147//127 146//66
f  146//66 147//127 148//127
f  147//127 149//127 148//127
f  148//127 149//127 150//66
f  118//66 150//66 149//127
f  120//66 150//66 118//66
f  75//70 146//70 73//70
f  73//70 146//70 151//69
f  146//70 148//69 151//69
f  151//69 148//69 152//70
f  148//69 150//70 152//70
f  152//70 150//70 153//70
f  120//70 153//70 150//70
f  122//70 153//70 120//70
f  73//71 151//71 76//71
f  76//71 151//71 154//72
f  151//71 152//72 154//72
f  154//72 152//72 155//71
f  152//72 153//72 155//71
f  155//71 153//72 156//71
f  122//71 156//71 153//72
f  124//71 156//71 122//71
f  76//74 154//74 77//74
f  77//74 154//74 157//74
f  154//74 155//128 157//74
f  157//74 155//128 158//128
f  155//128 156//128 158//128
f  158//128 156//128 159//74
f  124//74 159//74 156//128
f  144//74 159//74 124//74
f  77//77 157//77 74//77
f  74//77 157//77 160//77
f  157//77 158//129 160//77
f  160//77 158//129 161//77
f  158//129 159//77 161//77
f  161//77 159//77 162//129
f  144//129 162//129 159//77
f  143//129 162//129 144//129
f  74//7 160//7 78//7
f  78//7 160//7 163//7
f  160//7 161//7 163//7
f  163//7 161//7 164//7
f  161//7 162//7 164//7
f  164//7 162//7 165//7
f  143//7 165//7 162//7
f  142//7 165//7 143//7
f  78//78 163//78 80//78
f  80//78 163//78 166//78
f  163//78 164//130 166//78
f  166//78 164//130 167//130
f  164//130 165//130 167//130
f  167//130 165//130 168//78
f  142//78 168//78 165//130
f  141//78 168//78 142//78
f  80//81 166//81 81//81
f  81//81 166//81 169//81
f  166//81 167//131 169//81
f  169//81 167//131 170//81
f  167//131 168//81 170//81
f  170//81 168//81 171//131
f  141//131 171//131 168//81
f  140//131 171//131 141//131
f  81//83 169//83 79//83
f  79//83 169//83 145//132
f  169//83 170//83 145//132
f  145//132 170//83 147//133
f  170//83 171//133 147//133
f  147//133 171//133 149//133
f  140//133 149//133 171//133
f  118//133 149//133 140//133
f  88//134 97//134 84//134
f  91//88 94//88 88//134
f  88//134 94//88 97//134
f  84//134 97//134 100//135
f  84//134 100//135 82//136
f  82//136 100//135 103//88
f  82//136 103//88 106//88

