# author: headus 3D tools
#  using: ply2obj v1.11
#   from: uvlayout v2.10.03
# 171 vertices
v -0.83561701 0.00000000 0.12857200
v -0.81855900 0.00000000 0.13157999
v -0.83795702 0.00000000 0.13500000
v -0.82969303 0.00000000 0.12515201
v -0.82295603 0.00000000 0.12634000
v -0.81855900 0.00000000 0.13841997
v -0.83561701 0.00000000 0.14142799
v -0.82295603 0.00000000 0.14365999
v -0.82969303 0.00000000 0.14484800
v -0.83561701 0.32857202 -0.00999999
v -0.83561701 0.32857202 0.09500002
v -0.83795702 0.33500006 -0.00999999
v -0.83795702 0.33500006 0.09500002
v -0.83561701 0.34142804 -0.00999999
v -0.83561701 0.34142804 0.09500002
v -0.82969303 0.34484804 -0.00999999
v -0.82969303 0.34484804 0.09500002
v -0.82295603 0.34366000 -0.00999999
v -0.82295603 0.34366000 0.09500002
v -0.81855900 0.33842000 -0.00999999
v -0.81855900 0.33842000 0.09500002
v -0.81855900 0.33158002 -0.00999999
v -0.81855900 0.33158002 0.09500002
v -0.82295603 0.32634000 -0.00999999
v -0.82295603 0.32634000 0.09500002
v -0.82969303 0.32515204 -0.00999999
v -0.82969303 0.32515204 0.09500002
v -0.83661699 0.33657504 0.11222101
v -0.83137704 0.34063704 0.11390300
v -0.82453604 0.34063704 0.11390300
v -0.81929601 0.33657504 0.11222101
v -0.81810803 0.33035104 0.10964300
v -0.82152803 0.32487802 0.10737600
v -0.82795603 0.32271604 0.10648000
v -0.83438403 0.32487802 0.10737600
v -0.83780497 0.33035104 0.10964300
v -0.83561701 0.29500000 0.14142799
v -0.83780497 0.30964298 0.13035100
v -0.83795702 0.29500000 0.13500000
v -0.83438403 0.30737600 0.12487800
v -0.83561701 0.29500000 0.12857200
v -0.82795603 0.30648002 0.12271600
v -0.82969303 0.29500000 0.12515201
v -0.82152803 0.31786704 0.11786700
v -0.82152803 0.30737600 0.12487800
v -0.81810803 0.32205600 0.12205600
v -0.81810803 0.30964298 0.13035100
v -0.81929601 0.32682000 0.12682000
v -0.81929601 0.31222100 0.13657499
v -0.82453604 0.32992896 0.12992900
v -0.82453604 0.31390304 0.14063699
v -0.83137704 0.32992896 0.12992900
v -0.83137704 0.31390304 0.14063699
v -0.83661699 0.32682000 0.12682000
v -0.83661699 0.31222100 0.13657499
v -0.83780497 0.32205600 0.12205600
v -0.83438403 0.31786704 0.11786700
v -0.82795603 0.31621304 0.11621300
v -0.82969303 0.29500000 0.14484800
v -0.82295603 0.29500000 0.14365999
v -0.81855900 0.29500000 0.13841997
v -0.81855900 0.29500000 0.13157999
v -0.82295603 0.29500000 0.12634000
v -0.83561701 0.14750000 0.14142799
v -0.83795702 0.14750000 0.13500000
v -0.83561701 0.14750000 0.12857200
v -0.82969303 0.14750000 0.12515201
v -0.82295603 0.14750000 0.12634000
v -0.81855900 0.14750000 0.13157999
v -0.81855900 0.14750000 0.13841997
v -0.82295603 0.14750000 0.14365999
v -0.82969303 0.14750000 0.14484800
v -0.85083002 0.00000000 0.13178600
v -0.84230202 0.00000000 0.13328999
v -0.85200000 0.00000000 0.13500000
v -0.84786803 0.00000000 0.13007600
v -0.84450001 0.00000000 0.13066999
v -0.84230202 0.00000000 0.13671000
v -0.85083002 0.00000000 0.13821400
v -0.84450001 0.00000000 0.13932999
v -0.84786803 0.00000000 0.13992400
v -0.85083002 0.33178602 -0.00999999
v -0.85083002 0.33178602 0.04249999
v -0.85200000 0.33500006 -0.00999999
v -0.85200000 0.33500006 0.04249999
v -0.85083002 0.33178602 0.09500002
v -0.85200000 0.33500006 0.09500002
v -0.85083002 0.33821400 -0.00999999
v -0.85083002 0.33821400 0.04249999
v -0.85083002 0.33821400 0.09500002
v -0.84786803 0.33992404 -0.00999999
v -0.84786803 0.33992404 0.04249999
v -0.84786803 0.33992404 0.09500002
v -0.84450001 0.33933000 -0.00999999
v -0.84450001 0.33933000 0.04249999
v -0.84450001 0.33933000 0.09500002
v -0.84230202 0.33671004 -0.00999999
v -0.84230202 0.33671004 0.04249999
v -0.84230202 0.33671004 0.09500002
v -0.84230202 0.33329000 -0.00999999
v -0.84230202 0.33329000 0.04249999
v -0.84230202 0.33329000 0.09500002
v -0.84450001 0.33067002 -0.00999999
v -0.84450001 0.33067002 0.04249999
v -0.84450001 0.33067002 0.09500002
v -0.84786803 0.33007602 -0.00999999
v -0.84786803 0.33007602 0.04249999
v -0.84786803 0.33007602 0.09500002
v -0.85132998 0.33426504 0.11126400
v -0.84871000 0.33629604 0.11210500
v -0.84529001 0.33629604 0.11210500
v -0.84267002 0.33426504 0.11126400
v -0.84207600 0.33115302 0.10997500
v -0.84378598 0.32841702 0.10884200
v -0.84700000 0.32733602 0.10839400
v -0.85021400 0.32841702 0.10884200
v -0.85192400 0.33115302 0.10997500
v -0.85083002 0.29500000 0.13821400
v -0.85192400 0.30997500 0.13115300
v -0.85200000 0.29500000 0.13500000
v -0.85021400 0.30884202 0.12841700
v -0.85083002 0.29500000 0.13178600
v -0.84700000 0.30839402 0.12733600
v -0.84786803 0.29500000 0.13007600
v -0.84378598 0.32057602 0.12057600
v -0.84378598 0.30884202 0.12841700
v -0.84207600 0.32267004 0.12267001
v -0.84207600 0.30997500 0.13115300
v -0.84267002 0.32505200 0.12505201
v -0.84267002 0.31126400 0.13426500
v -0.84529001 0.32660700 0.12660702
v -0.84529001 0.31210502 0.13629600
v -0.84871000 0.32660700 0.12660702
v -0.84871000 0.31210502 0.13629600
v -0.85132998 0.32505200 0.12505201
v -0.85132998 0.31126400 0.13426500
v -0.85192400 0.32267004 0.12267001
v -0.85021400 0.32057602 0.12057600
v -0.84700000 0.31974900 0.11974902
v -0.84786803 0.29500000 0.13992400
v -0.84450001 0.29500000 0.13932999
v -0.84230202 0.29500000 0.13671000
v -0.84230202 0.29500000 0.13328999
v -0.84450001 0.29500000 0.13066999
v -0.85083002 0.07375000 0.13821400
v -0.85200000 0.07375000 0.13500000
v -0.85083002 0.14750000 0.13821400
v -0.85200000 0.14750000 0.13500000
v -0.85083002 0.22125004 0.13821400
v -0.85200000 0.22125004 0.13500000
v -0.85083002 0.07375000 0.13178600
v -0.85083002 0.14750000 0.13178600
v -0.85083002 0.22125004 0.13178600
v -0.84786803 0.07375000 0.13007600
v -0.84786803 0.14750000 0.13007600
v -0.84786803 0.22125004 0.13007600
v -0.84450001 0.07375000 0.13066999
v -0.84450001 0.14750000 0.13066999
v -0.84450001 0.22125004 0.13066999
v -0.84230202 0.07375000 0.13328999
v -0.84230202 0.14750000 0.13328999
v -0.84230202 0.22125004 0.13328999
v -0.84230202 0.07375000 0.13671000
v -0.84230202 0.14750000 0.13671000
v -0.84230202 0.22125004 0.13671000
v -0.84450001 0.07375000 0.13932999
v -0.84450001 0.14750000 0.13932999
v -0.84450001 0.22125004 0.13932999
v -0.84786803 0.07375000 0.13992400
v -0.84786803 0.14750000 0.13992400
v -0.84786803 0.22125004 0.13992400
# 136 normals
vn 0.000000 -1.000000 0.000000
vn -0.939602 -0.341940 0.000000
vn -0.939602 0.341940 0.000000
vn -0.500000 0.866020 0.000000
vn 0.173564 0.984740 0.000000
vn 0.765977 0.642709 0.000000
vn 1.000000 0.000000 0.000000
vn 0.765977 -0.642709 0.000000
vn 0.173564 -0.984740 0.000000
vn -0.500000 -0.866020 0.000000
vn -0.934566 -0.340170 0.103736
vn -0.607367 0.793933 -0.025270
vn -0.916743 0.333608 0.219526
vn 0.000000 0.999054 0.041781
vn -0.474883 0.822499 0.312794
vn 0.614234 0.789019 0.008118
vn 0.162882 0.924037 0.345602
vn 0.966764 0.230361 -0.110694
vn 0.727309 0.610267 0.313892
vn 0.863273 -0.430202 -0.263657
vn 0.972380 0.000000 0.233199
vn 0.341848 -0.858237 -0.382744
vn 0.759568 -0.637337 0.129616
vn -0.341329 -0.843374 -0.414851
vn 0.173473 -0.983764 0.043917
vn -0.855429 -0.396539 -0.332998
vn -0.499695 -0.865562 0.030428
vn -0.951779 0.253281 -0.172893
vn -0.933162 0.117500 0.339620
vn -0.864860 -0.143716 -0.480925
vn -0.939572 -0.008423 -0.341940
vn -0.339163 -0.237838 -0.910120
vn -0.497070 -0.107398 -0.860984
vn -0.456052 -0.118110 -0.881981
vn 0.631386 -0.430751 -0.644693
vn 0.861686 -0.281755 -0.421779
vn 0.984191 0.098242 0.147104
vn 0.635445 0.428890 0.641946
vn 0.000000 0.555545 0.831380
vn -0.635445 0.428890 0.641946
vn -0.984191 0.098242 0.147104
vn -0.861686 -0.281755 -0.421779
vn -0.336111 -0.523225 -0.783068
vn 0.336111 -0.523225 -0.783068
vn -0.981963 -0.003693 0.188946
vn -0.488769 0.210187 0.846640
vn -0.631356 0.114601 0.766893
vn 0.168986 0.228560 0.958707
vn 0.000000 0.157908 0.987365
vn 0.755600 0.164530 0.633950
vn 0.630684 0.109321 0.768266
vn 0.999023 0.042697 0.000000
vn 0.981078 -0.013947 0.193035
vn 0.763688 -0.077245 -0.640786
vn 0.865318 -0.156015 -0.476073
vn 0.172038 -0.135049 -0.975707
vn -0.336111 -0.783068 -0.523225
vn 0.336111 -0.783068 -0.523225
vn -0.861686 -0.421779 -0.281755
vn -0.984191 0.147104 0.098242
vn -0.635445 0.641946 0.428890
vn 0.000000 0.831380 0.555545
vn 0.635445 0.641946 0.428890
vn 0.861686 -0.421779 -0.281755
vn 0.984191 0.147104 0.098242
vn -0.939602 0.000000 0.341940
vn -0.939602 0.000000 0.341940
vn -0.939602 0.000000 -0.341940
vn -0.939602 0.000000 -0.341940
vn -0.939602 0.000000 -0.341940
vn -0.500000 0.000000 -0.866020
vn -0.500000 0.000000 -0.866020
vn -0.500000 0.000000 -0.866020
vn 0.173564 0.000000 -0.984740
vn 0.173564 0.000000 -0.984740
vn 0.765977 0.000000 -0.642709
vn 0.765977 0.000000 -0.642709
vn 0.765977 0.000000 0.642709
vn 0.765977 0.000000 0.642709
vn 0.173564 0.000000 0.984740
vn 0.173564 0.000000 0.984740
vn -0.500000 0.000000 0.866020
vn -0.500000 0.000000 0.866020
vn 0.000000 0.000000 -1.000000
vn 0.000000 0.000000 -1.000000
vn 0.000000 0.000000 -1.000000
vn 0.000000 0.000000 -1.000000
vn 0.000000 0.000000 -1.000000
vn -0.939419 -0.341848 0.023164
vn -0.623665 0.779283 0.060886
vn -0.928615 0.337911 0.152994
vn 0.000000 0.993744 0.111426
vn -0.483947 0.838277 0.250748
vn 0.625130 0.777239 0.070530
vn 0.166880 0.946469 0.275926
vn 0.977538 0.205548 -0.045932
vn 0.747024 0.626839 0.221358
vn 0.865989 -0.464353 -0.185314
vn 0.994232 0.000000 0.106635
vn 0.340750 -0.897577 -0.279405
vn 0.765855 -0.642617 -0.016938
vn -0.340902 -0.895318 -0.286517
vn 0.172893 -0.980895 -0.088232
vn -0.865959 -0.457578 -0.201611
vn -0.498596 -0.863639 -0.072850
vn -0.975279 0.211896 -0.062229
vn -0.935604 0.092230 0.340475
vn -0.863487 -0.121315 -0.489318
vn -0.938809 -0.041354 -0.341726
vn -0.337667 -0.208387 -0.917872
vn -0.494751 -0.143258 -0.857077
vn -0.868553 -0.044589 -0.493347
vn 0.839620 -0.301746 -0.451627
vn -0.983214 0.013856 0.181865
vn -0.490722 0.191296 0.849966
vn -0.633217 0.130593 0.762742
vn 0.169658 0.212385 0.962247
vn 0.000000 0.174571 0.984557
vn 0.757615 0.147684 0.635720
vn 0.633034 0.129067 0.763200
vn 0.999725 0.022554 0.000000
vn 0.983031 0.011231 0.182872
vn 0.761918 -0.102637 -0.639382
vn 0.863670 -0.124000 -0.488311
vn 0.171123 -0.166880 -0.970915
vn -0.939602 0.000000 0.341940
vn -0.939602 0.000000 0.341940
vn 0.173564 0.000000 -0.984740
vn 0.765977 0.000000 -0.642709
vn 0.765977 0.000000 0.642709
vn 0.173564 0.000000 0.984740
vn -0.500000 0.000000 0.866020
vn -0.500000 0.000000 0.866020
vn 0.000000 0.000000 -1.000000
vn 0.000000 0.000000 -1.000000
vn 0.000000 0.000000 -1.000000
# 171 uv coords
vt -0.516611 -1.000000
vt -0.013306 -1.000000
vt -0.585655 -1.000000
vt -0.341821 -1.000000
vt -0.143043 -1.000000
vt -0.013306 -1.000000
vt -0.516611 -1.000000
vt -0.143043 -1.000000
vt -0.341821 -1.000000
vt -0.516611 -0.047198
vt -0.516611 -0.047198
vt -0.585655 -0.028558
vt -0.585655 -0.028558
vt -0.516611 -0.009917
vt -0.516611 -0.009917
vt -0.341821 0.000000
vt -0.341821 0.000000
vt -0.143043 -0.003445
vt -0.143043 -0.003445
vt -0.013306 -0.018640
vt -0.013306 -0.018640
vt -0.013306 -0.038475
vt -0.013306 -0.038475
vt -0.143043 -0.053670
vt -0.143043 -0.053670
vt -0.341821 -0.057115
vt -0.341821 -0.057115
vt -0.546116 -0.023990
vt -0.391509 -0.012211
vt -0.189662 -0.012211
vt -0.035052 -0.023990
vt 0.000000 -0.042039
vt -0.100909 -0.057910
vt -0.290570 -0.064179
vt -0.480232 -0.057910
vt -0.581168 -0.042039
vt -0.516611 -0.144551
vt -0.581168 -0.102089
vt -0.585655 -0.144551
vt -0.480232 -0.108662
vt -0.516611 -0.144551
vt -0.290570 -0.111261
vt -0.341821 -0.144551
vt -0.100909 -0.078240
vt -0.100909 -0.108662
vt 0.000000 -0.066093
vt 0.000000 -0.102089
vt -0.035052 -0.052278
vt -0.035052 -0.094613
vt -0.189662 -0.043263
vt -0.189662 -0.089735
vt -0.391509 -0.043263
vt -0.391509 -0.089735
vt -0.546116 -0.052278
vt -0.546116 -0.094613
vt -0.581168 -0.066093
vt -0.480232 -0.078240
vt -0.290570 -0.083037
vt -0.341821 -0.144551
vt -0.143043 -0.144551
vt -0.013306 -0.144551
vt -0.013306 -0.144551
vt -0.143043 -0.144551
vt -0.516611 -0.572275
vt -0.585655 -0.572275
vt -0.516611 -0.572275
vt -0.341821 -0.572275
vt -0.143043 -0.572275
vt -0.013306 -0.572275
vt -0.013306 -0.572275
vt -0.143043 -0.572275
vt -0.341821 -0.572275
vt -0.965479 -1.000000
vt -0.713856 -1.000000
vt -1.000000 -1.000000
vt -0.878084 -1.000000
vt -0.778709 -1.000000
vt -0.713856 -1.000000
vt -0.965479 -1.000000
vt -0.778709 -1.000000
vt -0.878084 -1.000000
vt -0.965479 -0.037878
vt -0.965479 -0.037878
vt -1.000000 -0.028558
vt -1.000000 -0.028558
vt -0.965479 -0.037878
vt -1.000000 -0.028558
vt -0.965479 -0.019238
vt -0.965479 -0.019238
vt -0.965479 -0.019238
vt -0.878084 -0.014279
vt -0.878084 -0.014279
vt -0.878084 -0.014279
vt -0.778709 -0.016001
vt -0.778709 -0.016001
vt -0.778709 -0.016001
vt -0.713856 -0.023599
vt -0.713856 -0.023599
vt -0.713856 -0.023599
vt -0.713856 -0.033516
vt -0.713856 -0.033516
vt -0.713856 -0.033516
vt -0.778709 -0.041114
vt -0.778709 -0.041114
vt -0.778709 -0.041114
vt -0.878084 -0.042836
vt -0.878084 -0.042836
vt -0.878084 -0.042836
vt -0.980231 -0.030689
vt -0.902927 -0.024799
vt -0.802018 -0.024799
vt -0.724714 -0.030689
vt -0.707187 -0.039713
vt -0.757641 -0.047647
vt -0.852472 -0.050782
vt -0.947303 -0.047647
vt -0.997758 -0.039713
vt -0.965479 -0.144551
vt -0.997758 -0.101126
vt -1.000000 -0.144551
vt -0.947303 -0.104411
vt -0.965479 -0.144551
vt -0.852472 -0.105710
vt -0.878084 -0.144551
vt -0.757641 -0.070385
vt -0.757641 -0.104411
vt -0.707187 -0.064312
vt -0.707187 -0.101126
vt -0.724714 -0.057405
vt -0.724714 -0.097388
vt -0.802018 -0.052896
vt -0.802018 -0.094949
vt -0.902927 -0.052896
vt -0.902927 -0.094949
vt -0.980231 -0.057405
vt -0.980231 -0.097388
vt -0.997758 -0.064312
vt -0.947303 -0.070385
vt -0.852472 -0.072783
vt -0.878084 -0.144551
vt -0.778709 -0.144551
vt -0.713856 -0.144551
vt -0.713856 -0.144551
vt -0.778709 -0.144551
vt -0.965479 -0.786138
vt -1.000000 -0.786138
vt -0.965479 -0.572275
vt -1.000000 -0.572275
vt -0.965479 -0.358413
vt -1.000000 -0.358413
vt -0.965479 -0.786138
vt -0.965479 -0.572275
vt -0.965479 -0.358413
vt -0.878084 -0.786138
vt -0.878084 -0.572275
vt -0.878084 -0.358413
vt -0.778709 -0.786138
vt -0.778709 -0.572275
vt -0.778709 -0.358413
vt -0.713856 -0.786138
vt -0.713856 -0.572275
vt -0.713856 -0.358413
vt -0.713856 -0.786138
vt -0.713856 -0.572275
vt -0.713856 -0.358413
vt -0.778709 -0.786138
vt -0.778709 -0.572275
vt -0.778709 -0.358413
vt -0.878084 -0.786138
vt -0.878084 -0.572275
vt -0.878084 -0.358413
# 334 polygons
usemtl DefaultMaterial
g <STL_BINARY>
f 1/1/1 2/2/1 3/3/1
f 4/4/1 5/5/1 1/1/1
f 1/1/1 5/5/1 2/2/1
f 3/3/1 2/2/1 6/6/1
f 3/3/1 6/6/1 7/7/1
f 7/7/1 6/6/1 8/8/1
f 7/7/1 8/8/1 9/9/1
f 10/10/2 11/11/2 12/12/2
f 12/12/2 11/11/2 13/13/2
f 12/12/3 13/13/3 14/14/3
f 14/14/3 13/13/3 15/15/3
f 14/14/4 15/15/4 16/16/4
f 16/16/4 15/15/4 17/17/4
f 16/16/5 17/17/5 18/18/5
f 18/18/5 17/17/5 19/19/5
f 18/18/6 19/19/6 20/20/6
f 20/20/6 19/19/6 21/21/6
f 20/20/7 21/21/7 22/22/7
f 22/22/7 21/21/7 23/23/7
f 22/22/8 23/23/8 24/24/8
f 24/24/8 23/23/8 25/25/8
f 24/24/9 25/25/9 26/26/9
f 26/26/9 25/25/9 27/27/9
f 26/26/10 27/27/10 10/10/10
f 10/10/10 27/27/10 11/11/10
f 11/11/11 28/28/11 13/13/11
f 13/13/12 28/28/12 29/29/12
f 13/13/13 29/29/13 15/15/13
f 15/15/14 29/29/14 30/30/14
f 15/15/15 30/30/15 17/17/15
f 17/17/16 30/30/16 31/31/16
f 17/17/17 31/31/17 19/19/17
f 19/19/18 31/31/18 32/32/18
f 19/19/19 32/32/19 21/21/19
f 21/21/20 32/32/20 33/33/20
f 21/21/21 33/33/21 23/23/21
f 23/23/22 33/33/22 34/34/22
f 23/23/23 34/34/23 25/25/23
f 25/25/24 34/34/24 35/35/24
f 25/25/25 35/35/25 27/27/25
f 27/27/26 35/35/26 36/36/26
f 27/27/27 36/36/27 11/11/27
f 11/11/28 36/36/28 28/28/28
f 37/37/29 38/38/29 39/39/29
f 39/39/30 38/38/30 40/40/30
f 39/39/31 40/40/31 41/41/31
f 41/41/32 40/40/32 42/42/32
f 41/41/33 42/42/33 43/43/33
f 43/43/34 42/42/34 44/44/34
f 43/43/35 44/44/35 45/45/35
f 45/45/36 44/44/36 46/46/36
f 45/45/36 46/46/36 47/47/36
f 47/47/37 46/46/37 48/48/37
f 47/47/37 48/48/37 49/49/37
f 49/49/38 48/48/38 50/50/38
f 49/49/38 50/50/38 51/51/38
f 51/51/39 50/50/39 52/52/39
f 51/51/39 52/52/39 53/53/39
f 53/53/40 52/52/40 54/54/40
f 53/53/40 54/54/40 55/55/40
f 55/55/41 54/54/41 56/56/41
f 55/55/41 56/56/41 38/38/41
f 38/38/42 56/56/42 57/57/42
f 38/38/42 57/57/42 40/40/42
f 40/40/43 57/57/43 58/58/43
f 40/40/43 58/58/43 42/42/43
f 42/42/44 58/58/44 44/44/44
f 38/38/45 37/37/45 55/55/45
f 55/55/46 37/37/46 59/59/46
f 55/55/47 59/59/47 53/53/47
f 53/53/48 59/59/48 60/60/48
f 53/53/49 60/60/49 51/51/49
f 51/51/50 60/60/50 61/61/50
f 51/51/51 61/61/51 49/49/51
f 49/49/52 61/61/52 62/62/52
f 49/49/53 62/62/53 47/47/53
f 47/47/54 62/62/54 63/63/54
f 47/47/55 63/63/55 45/45/55
f 45/45/56 63/63/56 43/43/56
f 35/35/57 34/34/57 57/57/57
f 57/57/57 34/34/57 58/58/57
f 44/44/58 58/58/58 33/33/58
f 33/33/58 58/58/58 34/34/58
f 57/57/59 56/56/59 35/35/59
f 35/35/59 56/56/59 36/36/59
f 56/56/60 54/54/60 36/36/60
f 36/36/60 54/54/60 28/28/60
f 54/54/61 52/52/61 28/28/61
f 28/28/61 52/52/61 29/29/61
f 52/52/62 50/50/62 29/29/62
f 29/29/62 50/50/62 30/30/62
f 50/50/63 48/48/63 30/30/63
f 30/30/63 48/48/63 31/31/63
f 44/44/64 33/33/64 32/32/64
f 46/46/64 44/44/64 32/32/64
f 48/48/65 46/46/65 31/31/65
f 31/31/65 46/46/65 32/32/65
f 7/7/66 64/64/66 3/3/66
f 3/3/66 64/64/66 65/65/67
f 37/37/66 65/65/67 64/64/66
f 39/39/66 65/65/67 37/37/66
f 3/3/68 65/65/68 1/1/68
f 1/1/68 65/65/68 66/66/69
f 39/39/70 66/66/69 65/65/68
f 41/41/70 66/66/69 39/39/70
f 1/1/71 66/66/71 4/4/71
f 4/4/71 66/66/71 67/67/72
f 41/41/73 67/67/72 66/66/71
f 43/43/73 67/67/72 41/41/73
f 4/4/74 67/67/74 5/5/74
f 5/5/74 67/67/74 68/68/75
f 43/43/74 68/68/75 67/67/74
f 63/63/74 68/68/75 43/43/74
f 5/5/76 68/68/76 2/2/76
f 2/2/76 68/68/76 69/69/76
f 63/63/77 69/69/76 68/68/76
f 62/62/77 69/69/76 63/63/77
f 2/2/7 69/69/7 6/6/7
f 6/6/7 69/69/7 70/70/7
f 62/62/7 70/70/7 69/69/7
f 61/61/7 70/70/7 62/62/7
f 6/6/78 70/70/78 8/8/78
f 8/8/78 70/70/78 71/71/79
f 61/61/79 71/71/79 70/70/78
f 60/60/79 71/71/79 61/61/79
f 8/8/80 71/71/80 9/9/80
f 9/9/80 71/71/80 72/72/80
f 60/60/81 72/72/80 71/71/80
f 59/59/81 72/72/80 60/60/81
f 9/9/82 72/72/82 7/7/82
f 7/7/82 72/72/82 64/64/83
f 59/59/82 64/64/83 72/72/82
f 37/37/82 64/64/83 59/59/82
f 14/14/84 20/20/84 12/12/84
f 16/16/85 18/18/85 14/14/84
f 14/14/84 18/18/85 20/20/84
f 12/12/84 20/20/84 22/22/86
f 12/12/84 22/22/86 10/10/87
f 10/10/87 22/22/86 24/24/88
f 10/10/87 24/24/88 26/26/88
f 73/73/1 74/74/1 75/75/1
f 76/76/1 77/77/1 73/73/1
f 73/73/1 77/77/1 74/74/1
f 75/75/1 74/74/1 78/78/1
f 75/75/1 78/78/1 79/79/1
f 79/79/1 78/78/1 80/80/1
f 79/79/1 80/80/1 81/81/1
f 82/82/2 83/83/2 84/84/2
f 84/84/2 83/83/2 85/85/2
f 86/86/2 85/85/2 83/83/2
f 87/87/2 85/85/2 86/86/2
f 84/84/3 85/85/3 88/88/3
f 88/88/3 85/85/3 89/89/3
f 87/87/3 89/89/3 85/85/3
f 90/90/3 89/89/3 87/87/3
f 88/88/4 89/89/4 91/91/4
f 91/91/4 89/89/4 92/92/4
f 90/90/4 92/92/4 89/89/4
f 93/93/4 92/92/4 90/90/4
f 91/91/5 92/92/5 94/94/5
f 94/94/5 92/92/5 95/95/5
f 93/93/5 95/95/5 92/92/5
f 96/96/5 95/95/5 93/93/5
f 94/94/6 95/95/6 97/97/6
f 97/97/6 95/95/6 98/98/6
f 96/96/6 98/98/6 95/95/6
f 99/99/6 98/98/6 96/96/6
f 97/97/7 98/98/7 100/100/7
f 100/100/7 98/98/7 101/101/7
f 99/99/7 101/101/7 98/98/7
f 102/102/7 101/101/7 99/99/7
f 100/100/8 101/101/8 103/103/8
f 103/103/8 101/101/8 104/104/8
f 102/102/8 104/104/8 101/101/8
f 105/105/8 104/104/8 102/102/8
f 103/103/9 104/104/9 106/106/9
f 106/106/9 104/104/9 107/107/9
f 105/105/9 107/107/9 104/104/9
f 108/108/9 107/107/9 105/105/9
f 106/106/10 107/107/10 82/82/10
f 82/82/10 107/107/10 83/83/10
f 108/108/10 83/83/10 107/107/10
f 86/86/10 83/83/10 108/108/10
f 86/86/89 109/109/89 87/87/89
f 87/87/90 109/109/90 110/110/90
f 87/87/91 110/110/91 90/90/91
f 90/90/92 110/110/92 111/111/92
f 90/90/93 111/111/93 93/93/93
f 93/93/94 111/111/94 112/112/94
f 93/93/95 112/112/95 96/96/95
f 96/96/96 112/112/96 113/113/96
f 96/96/97 113/113/97 99/99/97
f 99/99/98 113/113/98 114/114/98
f 99/99/99 114/114/99 102/102/99
f 102/102/100 114/114/100 115/115/100
f 102/102/101 115/115/101 105/105/101
f 105/105/102 115/115/102 116/116/102
f 105/105/103 116/116/103 108/108/103
f 108/108/104 116/116/104 117/117/104
f 108/108/105 117/117/105 86/86/105
f 86/86/106 117/117/106 109/109/106
f 118/118/107 119/119/107 120/120/107
f 120/120/108 119/119/108 121/121/108
f 120/120/109 121/121/109 122/122/109
f 122/122/110 121/121/110 123/123/110
f 122/122/111 123/123/111 124/124/111
f 124/124/112 123/123/112 125/125/112
f 124/124/113 125/125/113 126/126/113
f 126/126/36 125/125/36 127/127/36
f 126/126/36 127/127/36 128/128/36
f 128/128/37 127/127/37 129/129/37
f 128/128/37 129/129/37 130/130/37
f 130/130/38 129/129/38 131/131/38
f 130/130/38 131/131/38 132/132/38
f 132/132/39 131/131/39 133/133/39
f 132/132/39 133/133/39 134/134/39
f 134/134/40 133/133/40 135/135/40
f 134/134/40 135/135/40 136/136/40
f 136/136/41 135/135/41 137/137/41
f 136/136/41 137/137/41 119/119/41
f 119/119/42 137/137/42 138/138/42
f 119/119/42 138/138/42 121/121/42
f 121/121/43 138/138/43 139/139/43
f 121/121/43 139/139/43 123/123/43
f 123/123/44 139/139/44 125/125/44
f 119/119/114 118/118/114 136/136/114
f 136/136/115 118/118/115 140/140/115
f 136/136/116 140/140/116 134/134/116
f 134/134/117 140/140/117 141/141/117
f 134/134/118 141/141/118 132/132/118
f 132/132/119 141/141/119 142/142/119
f 132/132/120 142/142/120 130/130/120
f 130/130/121 142/142/121 143/143/121
f 130/130/122 143/143/122 128/128/122
f 128/128/123 143/143/123 144/144/123
f 128/128/124 144/144/124 126/126/124
f 126/126/125 144/144/125 124/124/125
f 116/116/57 115/115/57 138/138/57
f 138/138/57 115/115/57 139/139/57
f 125/125/58 139/139/58 114/114/58
f 114/114/58 139/139/58 115/115/58
f 138/138/59 137/137/59 116/116/59
f 116/116/59 137/137/59 117/117/59
f 137/137/60 135/135/60 117/117/60
f 117/117/60 135/135/60 109/109/60
f 135/135/61 133/133/61 109/109/61
f 109/109/61 133/133/61 110/110/61
f 133/133/62 131/131/62 110/110/62
f 110/110/62 131/131/62 111/111/62
f 131/131/63 129/129/63 111/111/63
f 111/111/63 129/129/63 112/112/63
f 125/125/64 114/114/64 113/113/64
f 127/127/64 125/125/64 113/113/64
f 129/129/65 127/127/65 112/112/65
f 112/112/65 127/127/65 113/113/65
f 79/79/126 145/145/126 75/75/126
f 75/75/126 145/145/126 146/146/66
f 145/145/126 147/147/127 146/146/66
f 146/146/66 147/147/127 148/148/127
f 147/147/127 149/149/127 148/148/127
f 148/148/127 149/149/127 150/150/66
f 118/118/66 150/150/66 149/149/127
f 120/120/66 150/150/66 118/118/66
f 75/75/70 146/146/70 73/73/70
f 73/73/70 146/146/70 151/151/69
f 146/146/70 148/148/69 151/151/69
f 151/151/69 148/148/69 152/152/70
f 148/148/69 150/150/70 152/152/70
f 152/152/70 150/150/70 153/153/70
f 120/120/70 153/153/70 150/150/70
f 122/122/70 153/153/70 120/120/70
f 73/73/71 151/151/71 76/76/71
f 76/76/71 151/151/71 154/154/72
f 151/151/71 152/152/72 154/154/72
f 154/154/72 152/152/72 155/155/71
f 152/152/72 153/153/72 155/155/71
f 155/155/71 153/153/72 156/156/71
f 122/122/71 156/156/71 153/153/72
f 124/124/71 156/156/71 122/122/71
f 76/76/74 154/154/74 77/77/74
f 77/77/74 154/154/74 157/157/74
f 154/154/74 155/155/128 157/157/74
f 157/157/74 155/155/128 158/158/128
f 155/155/128 156/156/128 158/158/128
f 158/158/128 156/156/128 159/159/74
f 124/124/74 159/159/74 156/156/128
f 144/144/74 159/159/74 124/124/74
f 77/77/77 157/157/77 74/74/77
f 74/74/77 157/157/77 160/160/77
f 157/157/77 158/158/129 160/160/77
f 160/160/77 158/158/129 161/161/77
f 158/158/129 159/159/77 161/161/77
f 161/161/77 159/159/77 162/162/129
f 144/144/129 162/162/129 159/159/77
f 143/143/129 162/162/129 144/144/129
f 74/74/7 160/160/7 78/78/7
f 78/78/7 160/160/7 163/163/7
f 160/160/7 161/161/7 163/163/7
f 163/163/7 161/161/7 164/164/7
f 161/161/7 162/162/7 164/164/7
f 164/164/7 162/162/7 165/165/7
f 143/143/7 165/165/7 162/162/7
f 142/142/7 165/165/7 143/143/7
f 78/78/78 163/163/78 80/80/78
f 80/80/78 163/163/78 166/166/78
f 163/163/78 164/164/130 166/166/78
f 166/166/78 164/164/130 167/167/130
f 164/164/130 165/165/130 167/167/130
f 167/167/130 165/165/130 168/168/78
f 142/142/78 168/168/78 165/165/130
f 141/141/78 168/168/78 142/142/78
f 80/80/81 166/166/81 81/81/81
f 81/81/81 166/166/81 169/169/81
f 166/166/81 167/167/131 169/169/81
f 169/169/81 167/167/131 170/170/81
f 167/167/131 168/168/81 170/170/81
f 170/170/81 168/168/81 171/171/131
f 141/141/131 171/171/131 168/168/81
f 140/140/131 171/171/131 141/141/131
f 81/81/83 169/169/83 79/79/83
f 79/79/83 169/169/83 145/145/132
f 169/169/83 170/170/83 145/145/132
f 145/145/132 170/170/83 147/147/133
f 170/170/83 171/171/133 147/147/133
f 147/147/133 171/171/133 149/149/133
f 140/140/133 149/149/133 171/171/133
f 118/118/133 149/149/133 140/140/133
f 88/88/134 97/97/134 84/84/134
f 91/91/88 94/94/88 88/88/134
f 88/88/134 94/94/88 97/97/134
f 84/84/134 97/97/134 100/100/135
f 84/84/134 100/100/135 82/82/136
f 82/82/136 100/100/135 103/103/88
f 82/82/136 103/103/88 106/106/88
# h3dt: 171 171 136 334
